<svg width="35" height="31" viewBox="0 0 35 31" fill="none" xmlns="http://www.w3.org/2000/svg">
<path d="M8.862 30.249C6.31867 30.249 4.284 29.3407 2.758 27.524C1.30467 25.6347 0.578 23.2003 0.578 20.221C0.578 16.1517 1.668 12.482 3.848 9.21199C6.10067 5.86933 9.516 3.07166 14.094 0.818998L15.293 2.563C13.113 3.871 11.1147 5.724 9.298 8.122C7.554 10.4473 6.682 12.809 6.682 15.207C6.682 15.861 6.86367 16.406 7.227 16.842C7.59033 17.2053 8.13533 17.387 8.862 17.387C10.6787 17.387 12.2047 18.041 13.44 19.349C14.748 20.5843 15.402 22.1103 15.402 23.927C15.402 25.7437 14.748 27.2697 13.44 28.505C12.2047 29.6677 10.6787 30.249 8.862 30.249ZM27.719 30.249C25.1757 30.249 23.141 29.3407 21.615 27.524C20.1617 25.6347 19.435 23.2003 19.435 20.221C19.435 16.1517 20.525 12.482 22.705 9.21199C24.9577 5.86933 28.373 3.07166 32.951 0.818998L34.15 2.563C31.97 3.871 29.9717 5.724 28.155 8.122C26.411 10.4473 25.539 12.809 25.539 15.207C25.539 15.861 25.7207 16.406 26.084 16.842C26.4473 17.2053 26.9923 17.387 27.719 17.387C29.5357 17.387 31.0617 18.041 32.297 19.349C33.605 20.5843 34.259 22.1103 34.259 23.927C34.259 25.7437 33.605 27.2697 32.297 28.505C31.0617 29.6677 29.5357 30.249 27.719 30.249Z" fill="#DDAFAF" fill-opacity="0.6"/>
</svg>