<svg width="35" height="31" viewBox="0 0 35 31" fill="none" xmlns="http://www.w3.org/2000/svg">
<path d="M26.138 0.751005C28.6813 0.751005 30.716 1.65934 32.242 3.476C33.6953 5.36534 34.422 7.79967 34.422 10.779C34.422 14.8483 33.332 18.518 31.152 21.788C28.8993 25.1307 25.484 27.9283 20.906 30.181L19.707 28.437C21.887 27.129 23.8853 25.276 25.702 22.878C27.446 20.5527 28.318 18.191 28.318 15.793C28.318 15.139 28.1363 14.594 27.773 14.158C27.4097 13.7947 26.8647 13.613 26.138 13.613C24.3213 13.613 22.7953 12.959 21.56 11.651C20.252 10.4157 19.598 8.88967 19.598 7.073C19.598 5.25634 20.252 3.73034 21.56 2.495C22.7953 1.33234 24.3213 0.751005 26.138 0.751005ZM7.28099 0.751007C9.82433 0.751006 11.859 1.65934 13.385 3.476C14.8383 5.36534 15.565 7.79967 15.565 10.779C15.565 14.8483 14.475 18.518 12.295 21.788C10.0423 25.1307 6.627 27.9283 2.049 30.181L0.849995 28.437C3.03 27.129 5.02833 25.276 6.845 22.878C8.58899 20.5527 9.46099 18.191 9.46099 15.793C9.46099 15.139 9.27933 14.594 8.91599 14.158C8.55266 13.7947 8.00766 13.613 7.281 13.613C5.46433 13.613 3.93833 12.959 2.703 11.651C1.395 10.4157 0.740995 8.88967 0.740995 7.073C0.740995 5.25634 1.39499 3.73034 2.703 2.495C3.93833 1.33234 5.46433 0.751007 7.28099 0.751007Z" fill="#DDAFAF" fill-opacity="0.6"/>
</svg>