<svg width="383" height="383" viewBox="0 0 383 383" fill="none" xmlns="http://www.w3.org/2000/svg">
<path fill-rule="evenodd" clip-rule="evenodd" d="M212.326 284.579C211.305 286.73 208.966 298.049 206.964 309.138C206.964 311.293 206.978 313.479 207.027 315.692C208.06 317.518 244.973 372.455 335.825 333.182C340.891 330.973 345.313 327.512 348.673 323.124C342.193 324.854 335.561 325.95 328.869 326.399C305.661 327.548 280.431 329.471 257.944 322.569C252.055 320.766 244.196 315.653 241.631 309.862C240.982 308.333 240.672 306.682 240.721 305.021C236.012 302.802 233.806 301.649 212.326 284.579ZM325.482 194.148C325.288 195.361 324.865 196.527 324.235 197.582C323.655 198.384 322.842 198.988 321.908 199.313C322.153 199.824 322.39 200.419 322.589 200.954C326.072 204.145 329.85 212.658 331.447 215.897C339.915 233.063 347.193 263.369 326.093 269.389C319.236 271.348 315.152 269.977 319.021 270.944C323.009 273.09 329.209 276.119 329.814 276.997C329.843 277.039 329.634 277.135 329.634 277.135C330.318 279.973 330.412 286.569 330.036 286.918C329.78 287.182 329.546 287.467 329.338 287.771C329.641 289.362 329.818 290.974 329.868 292.593C338.645 292.109 352.614 294.48 358.192 301.307C365.616 267.848 354.032 221.193 347.978 212.912C341.771 204.431 333.593 200.181 325.482 194.148ZM321.222 199.613C321.334 199.794 321.447 199.976 321.559 200.167C321.431 200.097 321.504 200.151 321.176 199.637L321.222 199.613Z" fill="#212121"/>
<path fill-rule="evenodd" clip-rule="evenodd" d="M263.624 125.587C264.933 130.274 268.902 132.251 272.853 134.633C273.927 135.281 276.872 136.589 276.872 136.589C276.872 136.589 278.395 140.435 278.97 142.121C280.84 147.611 282.533 154.641 282.238 160.453C281.759 169.848 275.525 172.77 272.602 177.551C268.912 183.581 268.657 190.828 273.933 195.865C279.614 201.283 288.762 198.788 295.578 201.02C297.272 201.574 298.204 203.234 299.484 204.325C302.703 207.073 308.307 210.106 312.671 209.229C316.872 208.385 317.35 203.839 319.399 200.959C321.306 198.278 325.572 200.743 325.807 190.723C326.044 185.797 325.05 180.891 322.914 176.447C321.275 173.86 319.469 171.382 317.507 169.031C316.475 167.464 318.665 170.458 317.507 169.031C307.919 157.211 311.666 150.197 310.323 141.531C309.931 139.002 307.956 136.377 306.932 134.041C306.177 132.319 306.207 130.367 305.357 128.642C301.747 121.31 295.132 116.479 287.79 113.285C271.746 106.303 258.724 117.803 257.396 120.131C255.908 122.556 254.935 125.261 254.537 128.079C254.241 129.23 254.327 130.447 254.781 131.545C255.264 132.235 256.959 131.236 257.469 130.992C260.007 129.834 262.147 127.953 263.621 125.584" fill="#212121"/>
<path fill-rule="evenodd" clip-rule="evenodd" d="M260.665 116.192C258.356 117.677 256.586 119.864 255.617 122.432C254.671 124.582 253.141 129.796 254.33 131.71C254.498 131.963 254.752 132.148 255.044 132.231C255.337 132.314 255.649 132.29 255.926 132.163C257.14 131.708 258.303 131.126 259.394 130.424C261.014 129.403 262.412 128.065 263.504 126.492C264.703 129.842 267.238 131.735 270.223 133.601C272.205 134.898 274.293 136.026 276.465 136.971C288.158 167.296 276.963 169.526 272.196 176.698C268.412 182.376 267.711 189.688 271.961 195.001C275.034 198.843 279.077 200.125 284.067 200.515C286.45 200.763 293.323 200.873 295.61 202.017C297.117 202.795 297.49 203.949 299.456 205.504C303.176 208.431 309.37 211.544 313.821 209.883C317.82 208.386 318.338 204.01 320.125 201.569C321.179 199.995 323.971 200.409 325.425 197.401C327.505 193.458 326.829 185.343 325.68 181.038C324.404 176.431 323.099 174.699 320.04 170.683C317.646 167.559 318.292 168.363 318.014 168.021C317.531 167.453 318.065 168.339 316.677 166.361C310.275 157.197 311.879 151.876 311.546 144.658C311.32 139.787 310.639 139.127 308.453 135.07C306.44 131.317 307.618 131.019 305.792 127.549C303.62 123.562 300.569 120.122 296.87 117.489C293.317 114.919 289.393 112.906 285.233 111.519C281.061 110.292 276.657 110.075 272.384 110.888C268.112 111.7 264.095 113.518 260.665 116.192ZM287.028 113.802C290.897 115.412 294.499 117.6 297.711 120.291C300.756 122.851 303.19 126.06 304.835 129.683C305.225 130.819 305.334 131.88 305.666 133.122C306.124 134.557 306.76 135.93 307.559 137.207C308.972 139.322 309.713 141.814 309.685 144.357C309.924 149.281 309.266 153.512 310.67 158.451C312.805 165.676 317.083 169.686 320.597 174.634C321.518 175.81 322.264 177.114 322.813 178.504C325.111 184.07 325.325 191.398 324.285 195.1C322.9 199.871 320.374 197.199 318.041 201.334C316.892 203.29 316.242 205.728 314.636 207.229C311.817 209.814 306.194 207.781 302.972 205.697C298.518 203.024 298.533 201.024 295.778 200.111C294.547 199.731 293.285 199.463 292.006 199.311C286.644 198.74 281.991 198.9 278.713 197.684C276.048 196.777 273.795 194.949 272.358 192.528C270.922 190.107 270.397 187.253 270.878 184.48C272.921 170.564 288.03 173.648 281.199 147.479C280.153 143.625 278.821 139.854 277.215 136.197C274.22 134.88 271.347 133.299 268.631 131.474C266.611 130.204 265.055 128.317 264.192 126.093C263.937 125.352 264.064 125.514 263.853 125.395L263.816 125.251C263.625 125.302 263.696 125.309 263.518 125.21C263.42 125.387 263.475 125.338 263.297 125.388C261.717 127.852 259.416 129.769 256.707 130.877C256.406 131.022 255.524 131.432 255.192 131.303C254.936 131.175 254.82 130.248 254.878 129.4C255.127 126.342 256.086 123.385 257.677 120.761C259.107 118.846 260.914 117.243 262.987 116.053C266.498 113.724 270.53 112.3 274.725 111.907C278.919 111.514 283.146 112.165 287.028 113.802Z" fill="#212121"/>
<path fill-rule="evenodd" clip-rule="evenodd" d="M261.095 164.266C257.612 161.667 255.207 158.411 254.677 149.8C254.632 149.034 254.731 149.262 254.257 148.799C253.815 149.253 253.874 149.149 253.874 149.31C253.689 156.893 255.082 162.388 261.122 166.449C262.436 167.342 263.909 167.973 265.462 168.308L265.28 170.97L265.245 171.498C261.671 172.732 260.615 172.968 257.698 175.371C255.74 176.849 254.173 178.784 253.132 181.006C252.889 181.623 252.848 182.301 253.014 182.943C253.18 183.585 253.545 184.159 254.057 184.58C255.313 185.981 256.977 186.952 258.815 187.356C260.393 187.682 262.018 187.707 263.605 187.431C265.861 187.07 268.012 186.226 269.912 184.956L269.972 184.422C269.287 184.348 269.569 184.312 269.089 184.58C267.861 185.205 266.554 185.662 265.203 185.939C261.921 186.66 258.367 186.39 255.914 184.024C255.505 183.627 255.139 183.189 254.821 182.717C253.835 180.86 259.742 175.595 262.441 174.524C267.333 172.596 267.008 173.49 267.146 171.345C267.402 167.315 267.423 167.612 267.285 167.245C267.229 167.126 267.149 167.021 267.05 166.936C266.95 166.851 266.834 166.788 266.708 166.751C264.675 166.353 262.757 165.504 261.095 164.266Z" fill="#212121"/>
<path fill-rule="evenodd" clip-rule="evenodd" d="M254.312 150.788C253.778 152.118 253.131 153.399 252.379 154.618C251.377 156.113 250.252 157.522 249.016 158.831C244.969 162.847 243.444 163.484 241.572 168.82C241.008 170.429 239.837 172.395 240.585 174.141C240.903 174.88 243.266 173.982 243.777 173.886C253.352 172.18 256.61 171.774 263.658 172.931C264.003 172.99 263.553 173.075 266.145 172.185C266.245 170.653 266.12 170.997 266.443 167.638C265.549 167.349 262.927 166.5 262.558 166.287C256.364 162.698 254.64 157.884 254.312 150.788ZM264.83 167.13L266.449 167.631L264.83 167.13Z" fill="#212121"/>
<path fill-rule="evenodd" clip-rule="evenodd" d="M242.222 165.137C241.246 167.122 240.401 169.169 239.693 171.265C239.446 172.026 239.376 172.833 239.489 173.625C239.967 176.361 242.125 175.115 244.588 174.686C250.63 173.647 254.685 173.042 258.573 173.272C265.535 173.731 262.484 174.448 266.036 173.204C266.596 173.008 266.864 172.959 267.048 172.397C267.1 172.045 267.076 171.961 267.14 170.379C267.278 167.224 267.767 167.108 266.258 166.642C266.062 166.505 265.829 166.431 265.59 166.433C265.155 166.296 263.42 165.747 263.001 165.57C261.445 164.734 260.029 163.662 258.802 162.392C256.025 159.438 255.1 155.363 254.728 151.285C254.696 150.913 254.746 150.288 254.183 150.426C254.132 150.442 254.085 150.47 254.046 150.506C254.007 150.543 253.977 150.588 253.957 150.638C250.127 159.064 245.222 159.922 242.222 165.137ZM246.86 172.397C245.582 172.564 244.314 172.803 243.063 173.113C242.498 173.3 241.915 173.431 241.324 173.505C240.964 172.202 241.907 170.536 242.445 168.953C244.703 162.29 247.737 161.972 251.336 157.002C252.349 155.733 253.195 154.339 253.852 152.854C254.132 152.241 253.87 152.277 254.243 154.897C254.902 159.408 256.236 162.405 259.828 165.391C261.311 166.687 263.08 167.611 264.99 168.087C265.127 168.208 265.293 168.291 265.471 168.327C265.344 169.512 265.309 170.196 265.254 171.51C263.084 172.249 264.727 172.004 260.519 171.541C256.256 171.085 253.607 171.267 246.86 172.397ZM262.983 165.563L262.961 165.553L262.983 165.563Z" fill="#212121"/>
<path fill-rule="evenodd" clip-rule="evenodd" d="M272.003 134.552C271.159 134.549 270.322 134.694 269.529 134.979C268.246 135.526 267.107 136.362 266.2 137.42C264.996 139.152 264.301 141.186 264.196 143.293C263.978 146.586 265.03 149.764 267.914 151.425C269.392 152.255 271.123 152.518 272.782 152.163C280.902 151.077 283.094 140.207 276.576 135.759C275.235 134.844 273.621 134.418 272.003 134.552ZM273.039 135.36C274.542 135.566 275.906 136.348 276.844 137.54C280.307 141.67 278.786 147.987 274.291 149.837C273.058 150.289 271.741 150.463 270.434 150.348C267.689 149.984 265.109 146.901 266.191 141.248C266.363 139.688 267.1 138.246 268.265 137.194C268.877 136.559 269.622 136.065 270.445 135.747C271.269 135.429 272.152 135.294 273.033 135.353L273.039 135.36Z" fill="#212121"/>
<path fill-rule="evenodd" clip-rule="evenodd" d="M255.821 133.201C254.576 133.183 253.369 133.629 252.435 134.452C250.941 135.697 249.963 137.452 249.69 139.378C249.323 141.033 249.291 142.746 249.596 144.414C250.234 147.547 252.126 149.288 254.064 149.72C255.423 149.927 256.812 149.752 258.077 149.217C263.621 146.743 264.196 137.249 258.859 133.927C257.948 133.372 256.885 133.118 255.821 133.201ZM256.587 134.005C257.644 134.189 258.588 134.775 259.221 135.641C262.335 139.509 261.008 146.773 256.435 147.777C255.731 147.932 255.002 147.944 254.293 147.814C252.066 147.057 251.282 144.566 251.192 142.214C251.074 140.253 251.451 138.293 252.287 136.515C252.798 135.728 253.466 135.055 254.248 134.536C254.968 134.159 255.774 133.974 256.587 134V134.005Z" fill="#212121"/>
<path d="M269.914 146.434C270.144 146.433 270.366 146.35 270.539 146.199C270.713 146.048 270.826 145.839 270.858 145.611C270.959 144.867 270.985 144.115 270.934 143.366C270.926 143.241 270.893 143.119 270.837 143.006C270.782 142.894 270.705 142.794 270.61 142.712C270.516 142.629 270.406 142.566 270.288 142.526C270.169 142.486 270.044 142.47 269.919 142.478C269.794 142.486 269.672 142.519 269.559 142.575C269.447 142.63 269.347 142.708 269.264 142.802C269.182 142.896 269.119 143.006 269.079 143.124C269.039 143.243 269.022 143.369 269.031 143.493C269.072 144.113 269.051 144.735 268.968 145.35C268.95 145.485 268.96 145.622 268.999 145.753C269.038 145.884 269.105 146.004 269.194 146.107C269.284 146.21 269.395 146.292 269.519 146.348C269.643 146.405 269.778 146.434 269.914 146.434Z" fill="#212121"/>
<path d="M255.871 144.168C256.067 144.169 256.259 144.108 256.419 143.993C256.578 143.878 256.697 143.716 256.758 143.529C256.868 143.02 256.905 142.497 256.869 141.977C256.884 141.724 256.798 141.476 256.629 141.287C256.461 141.098 256.225 140.984 255.972 140.969C255.72 140.954 255.472 141.04 255.283 141.209C255.094 141.377 254.979 141.613 254.964 141.866C254.953 142.07 254.978 142.818 254.948 142.925C254.905 143.069 254.896 143.221 254.922 143.369C254.948 143.518 255.008 143.657 255.098 143.778C255.187 143.899 255.304 143.997 255.438 144.064C255.572 144.132 255.721 144.167 255.871 144.168Z" fill="#212121"/>
<path fill-rule="evenodd" clip-rule="evenodd" d="M263.075 139.643C262.661 139.668 262.269 139.837 261.967 140.122L262.133 140.861C262.355 141.001 262.516 141.305 262.748 141.428C262.977 141.534 263.213 141.626 263.454 141.702C263.736 141.784 263.86 141.87 265.133 141.639C265.092 141.126 264.889 140.639 264.553 140.249C264.132 139.905 263.617 139.694 263.075 139.643Z" fill="#212121"/>
<path fill-rule="evenodd" clip-rule="evenodd" d="M257.841 148.646C256.84 150.647 259.549 153.48 262.737 152.9C262.864 152.874 262.781 152.915 263.219 152.517C262.709 151.951 263.034 152.227 262.532 151.968C262.209 151.805 260.745 150.896 260.445 150.685C260.003 150.398 259.642 150.002 259.397 149.536C259.344 149.429 259.301 149.318 259.269 149.203C259.219 149.108 259.207 148.998 259.235 148.895C259.311 148.627 259.481 148.367 259.574 148.087L259.484 147.556L258.954 147.653C258.552 147.939 258.162 148.027 257.841 148.646Z" fill="#212121"/>
<path fill-rule="evenodd" clip-rule="evenodd" d="M262.525 155.753C261.281 155.804 261.449 155.818 260.94 156.099C261.242 156.63 261.077 156.514 262.081 157.238C262.824 157.673 263.66 157.922 264.52 157.965C265.267 158.038 266.016 157.843 266.632 157.413C266.803 157.307 266.726 157.386 267.056 156.869C266.522 156.53 266.648 156.59 266.458 156.55C265.618 156.365 266.173 156.412 264.741 156.125C264.014 155.937 263.273 155.813 262.525 155.753Z" fill="#212121"/>
<path fill-rule="evenodd" clip-rule="evenodd" d="M238.918 192.931C239.301 189.53 239.97 170.381 240.399 164.244C239.496 163.498 207.134 166.382 191.809 168.023C190.589 168.207 189.343 168.078 188.186 167.65C187.029 167.222 185.999 166.507 185.193 165.573C184.326 166.948 183.946 219.832 184.971 225.431C185.723 226.569 186.762 227.489 187.983 228.098C189.204 228.707 190.563 228.983 191.925 228.899C205.938 228.25 234.055 226.256 235.873 225.962" fill="#212121"/>
<path fill-rule="evenodd" clip-rule="evenodd" d="M212.603 165.118C185.354 167.472 194.194 167.033 191.028 167.142C189.587 167.223 188.163 166.805 186.995 165.959C185.856 165.097 185.959 164.65 185.16 164.629C184.942 164.64 184.734 164.724 184.568 164.866C184.403 165.008 184.288 165.2 184.243 165.414C183.297 168.9 183.102 216.317 183.988 224.764C184.095 225.67 184.077 226.13 185.437 227.377C186.541 228.399 187.886 229.124 189.346 229.486C190.968 229.893 191.843 229.753 197.02 229.434C208.347 228.733 234.299 226.656 235.929 226.343L236.248 225.913L235.817 225.593C230.772 226.136 199.847 227.725 195.407 227.921C191.873 228.08 190.172 228.475 187.619 226.887C186.918 226.434 186.308 225.854 185.819 225.179C185.118 225.179 185.113 178.339 185.888 167.473C187.561 168.671 189.62 169.204 191.665 168.971C194.185 168.738 231.647 164.833 239.667 164.833C239.284 171.7 238.878 189.012 238.546 192.721C238.527 192.943 238.478 192.82 238.871 193.312C239.381 192.903 239.286 193.074 239.335 192.601C239.463 192.601 241.086 164.193 241.063 164.064C241.036 163.965 240.988 163.872 240.922 163.792C240.856 163.713 240.773 163.649 240.68 163.605C239.03 162.829 214.489 164.956 212.603 165.118Z" fill="#212121"/>
<path fill-rule="evenodd" clip-rule="evenodd" d="M202.801 151.668C201.524 151.868 188.975 160.877 184.859 165.508C184.749 165.636 184.776 165.529 184.785 166.147C185.383 166.131 185.278 166.171 185.405 166.064C186.305 165.331 189.173 163.462 191.434 161.851C193.221 160.586 200.19 155.321 202.476 153.654C202.579 154.203 202.934 156.533 203.162 157.888L203.577 158.236L203.927 157.822C204.043 155.945 203.957 154.062 203.672 152.204C203.604 152.032 203.483 151.887 203.326 151.791C203.169 151.694 202.985 151.651 202.801 151.668ZM202.306 152.945L202.293 152.927V152.934L202.276 152.909L202.284 152.919L202.27 152.896L202.278 152.908L202.266 152.886L202.253 152.86L202.267 152.887L202.256 152.858C202.275 152.881 202.292 152.907 202.306 152.934V152.945Z" fill="#212121"/>
<path fill-rule="evenodd" clip-rule="evenodd" d="M197.442 164.085C199.807 162.298 206.853 156.701 207.469 156.29C207.834 157.875 208.708 162.377 208.734 162.508L209.159 162.846L209.496 162.421C209.465 161.28 209.289 155.457 208.708 154.492C208.58 154.291 208.38 154.148 208.149 154.091C207.918 154.035 207.675 154.069 207.469 154.188C202.881 157.286 198.533 160.725 194.463 164.477C193.778 165.125 191.772 167.043 191.176 167.782L191.185 168.321L191.723 168.304C192.547 167.588 196.199 165.023 197.442 164.085ZM207.24 155.404V155.392V155.404ZM207.223 155.364L207.239 155.401L207.223 155.372L207.213 155.349L207.223 155.364Z" fill="#212121"/>
<path fill-rule="evenodd" clip-rule="evenodd" d="M231.795 157.668C224.981 157.75 200.175 163.006 190.698 167.743C190.158 168.018 190.315 167.884 190.106 168.463C190.913 168.743 190.029 168.737 193.003 167.773C200.462 165.405 229.879 158.775 232.526 159.075C233.176 159.602 235.891 163.019 236.67 163.961C236.804 164.122 236.69 164.071 237.308 164.154C237.391 163.538 237.41 163.658 237.291 163.489C233.247 157.624 233.602 157.65 231.795 157.668ZM232.498 159.052H232.487H232.498ZM232.478 159.039L232.466 159.029L232.498 159.052L232.473 159.038L232.487 159.046L232.466 159.032L232.48 159.041L232.462 159.028L232.478 159.039Z" fill="#212121"/>
<path fill-rule="evenodd" clip-rule="evenodd" d="M189.978 173.48C188.622 174.13 189.129 172.685 189.747 188.953C190.047 197.111 190.431 208.589 190.896 218.659L191.279 219.042L191.647 218.641C191.554 207.221 191.634 199.534 191.429 188.907C191.231 178.949 190.978 174.8 190.978 174.381L190.664 173.726L189.982 173.48H189.978Z" fill="white"/>
<path fill-rule="evenodd" clip-rule="evenodd" d="M222.268 227.247C222.662 227.801 222.374 227.63 223.4 227.885C226.253 228.635 229.002 229.735 231.585 231.161C235.18 233.163 238.597 235.47 241.798 238.055C245.816 241.285 252.056 247.099 255.771 250.666C257.617 252.334 259.262 254.211 260.672 256.26C261.546 257.644 260.946 257.222 261.772 257.568C262.009 256.988 261.994 257.104 261.948 256.975C260.759 253.783 257.631 250.398 255.259 247.943C250.788 243.231 245.96 238.871 240.819 234.902C238.782 233.372 236.635 231.997 234.395 230.786C230.842 228.869 226.984 227.583 222.992 226.985C222.64 226.917 222.766 226.903 222.268 227.247Z" fill="#212121"/>
<path fill-rule="evenodd" clip-rule="evenodd" d="M186.578 262.738C183.601 262.963 180.482 266.282 180.309 266.282C165.353 279.836 148.392 314.643 143.219 322.234C140.536 321.884 137.894 321.278 135.327 320.423C134.444 320.158 133.599 319.779 132.813 319.297C135.276 290.909 161.857 219.746 182.549 218.076C183.523 217.998 183.179 218.177 183.698 217.667C183.263 217.226 183.364 217.284 183.195 217.284C161.331 217.284 134 288.294 131.022 318.094C130.886 319.474 130.853 319.576 130.991 319.968C131.146 320.327 131.402 320.633 131.726 320.851C133.421 322.205 140.408 323.943 143.312 324.137C143.51 324.167 143.712 324.151 143.903 324.09C144.094 324.029 144.268 323.924 144.411 323.784C145.671 322.476 152.548 309.413 160.707 295.887C166.196 286.727 175.376 271.832 183.846 265.695C184.587 265.212 186.081 264.28 186.954 264.446C187.592 264.446 216.572 289.759 232.053 300.437C234.479 302.184 237.065 303.696 239.777 304.954C240.501 305.241 240.205 305.246 240.848 304.983C240.604 304.397 240.686 304.5 240.504 304.425C237.699 303.139 235.045 301.549 232.588 299.683C223.735 293.289 216.247 286.686 216.091 286.686C208.395 280.355 191.196 265.682 190.217 264.823C188.753 263.587 188.008 262.627 186.578 262.738Z" fill="#212121"/>
<path fill-rule="evenodd" clip-rule="evenodd" d="M172.095 276.781C173.338 285.012 176.706 297.37 178.981 305.342C182.351 317.028 189.282 338.249 189.844 339.556C189.923 339.708 190.041 339.836 190.187 339.926C190.332 340.016 190.499 340.064 190.67 340.067C190.798 340.067 201.589 340.267 201.956 340.243C202.13 340.219 202.293 340.146 202.427 340.034C202.561 339.921 202.661 339.772 202.714 339.605C203.235 337.489 210.327 290.265 212.394 285.669L212.208 285.159L211.697 285.345C208.946 290.931 202.058 332.102 201.028 338.355C199.24 338.319 192.254 338.188 191.37 338.174C187.314 326.293 176.568 293.437 173.496 279.83C172.641 276.078 173.078 276.821 172.397 276.338L172.095 276.781Z" fill="#212121"/>
<path fill-rule="evenodd" clip-rule="evenodd" d="M141.965 323.609C141.595 325.86 141.046 330.138 139.084 331.684C137.71 332.762 112.039 322.942 112.518 321.516C112.847 320.538 129.339 320.508 132.272 320.437" fill="#212121"/>
<path fill-rule="evenodd" clip-rule="evenodd" d="M141.572 323.652C141.134 325.844 140.566 328.9 139.191 330.621C138.725 331.132 138.772 331.045 138.632 331.045C134.312 330.475 115.126 322.663 114.548 321.94C114.761 321.94 114.258 321.94 116.893 321.72C121.064 321.384 128.562 321.032 132.139 320.826C132.346 320.805 132.21 320.895 132.661 320.431C132.172 319.965 132.337 320.076 132.124 320.048C130.33 320.048 114.043 319.328 112.067 320.659C111.922 320.759 111.803 320.891 111.718 321.045C111.634 321.2 111.587 321.371 111.581 321.547C111.575 321.723 111.61 321.898 111.683 322.057C111.757 322.217 111.867 322.357 112.004 322.467C114.532 324.893 134.559 332.468 138.401 332.468C138.791 332.523 139.188 332.439 139.522 332.23C141.594 330.57 142.038 326.302 142.351 323.663L142.033 323.225C141.521 323.598 141.6 323.507 141.572 323.652ZM138.687 331.107L138.65 331.13L138.669 331.116H138.66L138.687 331.107ZM138.687 331.107H138.679H138.688H138.687Z" fill="#212121"/>
<path d="M137.688 245.834C137.937 245.794 138.175 245.706 138.389 245.574C138.603 245.442 138.788 245.269 138.935 245.065C139.082 244.861 139.188 244.63 139.245 244.386C139.302 244.141 139.311 243.887 139.27 243.639C139.229 243.391 139.139 243.154 139.006 242.941C138.873 242.727 138.699 242.542 138.495 242.397C138.29 242.251 138.058 242.147 137.813 242.091C137.568 242.035 137.315 242.028 137.067 242.07C133.875 242.593 130.437 241.891 126.816 242.168C126.314 242.211 125.849 242.45 125.522 242.834C125.196 243.218 125.034 243.715 125.073 244.218C125.112 244.72 125.348 245.187 125.73 245.516C126.112 245.845 126.609 246.01 127.111 245.974C130.443 245.716 133.984 246.446 137.688 245.834Z" fill="#212121"/>
<path d="M74.8765 246.739C75.1265 246.722 75.3707 246.656 75.5953 246.545C75.8199 246.434 76.0203 246.28 76.1852 246.091C76.3501 245.903 76.4763 245.683 76.5564 245.446C76.6366 245.208 76.6692 244.958 76.6523 244.708C76.6383 244.457 76.5743 244.211 76.4642 243.986C76.354 243.76 76.1999 243.558 76.0108 243.393C75.8217 243.227 75.6015 243.101 75.3631 243.022C75.1247 242.943 74.8729 242.912 74.6224 242.932C71.0478 243.177 66.5539 243.582 63.2257 242.997C62.7294 242.915 62.2207 243.032 61.8104 243.323C61.4 243.614 61.1211 244.055 61.0343 244.551C60.9475 245.046 61.0598 245.556 61.3468 245.969C61.6338 246.382 62.0723 246.665 62.5669 246.757C66.319 247.418 71.0388 247.006 74.8765 246.739Z" fill="#212121"/>
<path fill-rule="evenodd" clip-rule="evenodd" d="M201.26 339.292C201.731 342.211 201.653 345.192 201.03 348.082C200.701 349.359 180.435 363.846 180.041 363.039C178.992 360.884 190.677 345.788 192.041 344.4C192.867 343.565 192.507 340.898 192.644 339.535" fill="#212121"/>
<path fill-rule="evenodd" clip-rule="evenodd" d="M200.878 339.325C201.231 342.163 201.066 345.041 200.391 347.82V347.829C194.282 352.699 187.916 357.238 181.32 361.424C182.865 358.445 184.628 355.583 186.594 352.863C192.62 343.974 192.432 345.147 192.812 344.196C193.093 343.072 193.168 341.908 193.035 340.758C192.973 339.25 193.156 339.736 192.682 339.159C192.209 339.559 192.271 339.415 192.232 339.865C192.245 341.112 192.132 342.357 191.894 343.58C191.662 344.194 191.994 343.325 187.849 348.456C185.857 350.944 179.407 359.248 179.04 362.435C178.941 363.584 179.529 364.057 180.205 364.019C182.424 363.733 198.089 352.223 201.021 349.195C201.708 348.512 201.688 348.388 201.886 347.301C202.235 344.624 202.153 341.908 201.643 339.258L201.229 338.905L200.878 339.325ZM200.368 347.911L200.375 347.881L200.368 347.911Z" fill="#212121"/>
<path fill-rule="evenodd" clip-rule="evenodd" d="M280.984 277.182C276.294 275.194 261.943 269.119 257.836 267.284C258.686 267.173 260.68 266.79 271.257 265.644C291.823 263.422 289.003 264.39 289.769 263.616C289.323 263.178 289.425 263.24 289.27 263.24C286.589 263.122 265.876 264.442 257.523 265.567C255.211 265.889 254.297 266.018 254.265 267.037C254.33 267.602 254.648 267.792 255.222 268.067C258.414 269.664 280.245 278.998 280.689 279.081C280.098 279.081 328.788 278.072 330.096 277.54C330.175 277.497 330.244 277.437 330.297 277.364C330.351 277.291 330.388 277.208 330.405 277.12L330.417 277.02C330.369 276.126 328.486 275.266 319.201 270.609L318.682 270.767C318.868 271.385 318.789 271.253 319.025 271.391C319.153 271.438 326.813 275.625 328.065 276.438C278.839 277.097 284.058 277.182 280.984 277.182Z" fill="#212121"/>
<path fill-rule="evenodd" clip-rule="evenodd" d="M281.359 286.387C281.154 283.898 281.094 281.399 281.179 278.903C281.179 278.658 281.251 278.787 280.81 278.312C280.362 278.74 280.427 278.62 280.408 278.88C279.853 287.018 279.669 287.6 281.46 287.727C289.141 288.467 325.224 288.621 329.64 287.736C330.63 287.598 330.777 287.307 330.858 286.307C330.929 283.537 330.72 280.768 330.235 278.04C329.997 276.85 330.068 277.086 329.546 276.763C329.065 277.545 329.324 276.659 329.546 279.487C329.714 281.767 329.698 284.058 329.499 286.336C328.019 286.54 281.49 286.4 281.359 286.387ZM281.435 286.635L281.423 286.615L281.432 286.635L281.419 286.607L281.435 286.635ZM281.435 286.626L281.423 286.607L281.435 286.626ZM281.423 286.607V286.621V286.607ZM329.446 286.582L329.437 286.612L329.445 286.587L329.437 286.607L329.449 286.578L329.446 286.582Z" fill="#212121"/>
<path fill-rule="evenodd" clip-rule="evenodd" d="M329.169 296.971C326.145 296.971 335.689 297.098 314.657 297.098C314.627 297.098 284.758 296.971 283.578 296.971C283.4 295.086 283.325 293.193 283.351 291.3C283.326 286.656 283.489 287.48 282.977 286.931C282.516 287.373 282.594 287.186 282.562 287.731C282.41 290.029 281.823 296.747 282.386 297.91C282.669 298.421 282.362 298.467 290.331 298.754C298.555 298.992 319.536 299.186 327.769 298.545C329.429 298.408 329.952 298.353 330.281 297.973C331.01 296.888 330.193 289.462 329.712 287.689L329.254 287.398L328.964 287.855C329.365 290.877 329.434 293.934 329.169 296.971ZM283.654 297.276V297.267L283.665 297.295C283.662 297.283 283.658 297.272 283.652 297.262L283.659 297.281L283.651 297.257L283.654 297.276ZM283.645 297.257V297.248V297.257ZM329.111 297.257V297.232L329.103 297.251L329.114 297.223L329.111 297.257Z" fill="#212121"/>
<path fill-rule="evenodd" clip-rule="evenodd" d="M339.424 309.081C339.43 310.147 339.378 311.212 339.269 312.273C336.916 312.555 283.024 312.965 282.89 312.965C282.609 311.184 282.685 305.597 282.691 303.725C282.691 303.173 282.757 303.363 282.323 302.896C281.86 303.339 281.94 303.151 281.91 303.697C281.699 307.072 281.261 312.769 281.768 313.857C282.041 314.374 282.105 314.328 286.199 314.472C296.298 314.799 337.409 314.615 339.971 313.475C340.408 313.297 340.493 312.954 340.548 312.468C340.669 309.281 340.412 306.09 339.782 302.963L339.324 302.672C338.608 303.805 339.44 302.015 339.424 309.081ZM282.962 313.26V313.251L282.972 313.274L282.96 313.245L282.962 313.26ZM282.951 313.24V313.26V313.24ZM339.21 312.541L339.221 312.516L339.212 312.541L339.218 312.522V312.536L339.21 312.541Z" fill="#212121"/>
<path fill-rule="evenodd" clip-rule="evenodd" d="M254.721 267.132C254.499 268.387 254.392 269.659 254.399 270.933C254.39 272.013 254.413 273.213 254.451 274.306C254.519 275.736 254.512 275.616 254.594 275.838C254.743 276.093 254.773 276.123 255.208 276.349C257.995 277.8 263.307 280.299 266.468 281.737C270.988 283.882 275.631 285.755 280.374 287.347L280.872 287.127L280.656 286.631C278.7 285.694 267.16 279.724 256.118 274.886C256.064 274.483 256.039 274.289 256.023 274.16C255.871 273.074 255.729 271.962 255.623 270.874C255.139 266.291 255.802 267.745 255.161 266.821L254.721 267.132Z" fill="#212121"/>
<path fill-rule="evenodd" clip-rule="evenodd" d="M258.732 278.835C258.357 281.68 258.292 284.557 258.536 287.416C258.569 287.537 258.629 287.65 258.71 287.746C258.792 287.841 258.894 287.917 259.009 287.969C266.651 291.702 274.517 294.959 282.561 297.722L283.059 297.504L282.843 297.008C276.433 293.751 270.56 291.117 264.809 288.582C263.929 288.199 261.466 287.118 260.499 286.721L260.487 286.746L260.15 286.594C258.792 276.71 259.971 279.693 259.172 278.528L258.732 278.835Z" fill="#212121"/>
<path fill-rule="evenodd" clip-rule="evenodd" d="M255.17 291.153C254.752 294.439 254.656 297.758 254.884 301.064C255.091 301.453 255.169 301.425 256.176 301.965C264.489 306.428 273.084 310.346 281.906 313.694L282.404 313.474L282.188 312.979C280.485 312.222 266.422 304.781 256.479 300.148C256.131 297.271 255.937 294.378 255.895 291.481C255.918 291.215 255.97 291.367 255.61 290.842L255.17 291.153Z" fill="#212121"/>
<path fill-rule="evenodd" clip-rule="evenodd" d="M337.743 302.026C333.522 302.447 282.883 301.508 282.883 301.635C281.709 301.61 285.127 302.514 257.178 290.585C258.748 290.143 259.715 289.807 262.045 289.34C262.555 289.244 262.361 289.258 262.489 289.258C262.721 289.217 262.617 289.293 262.992 288.8C262.488 288.417 262.672 288.459 262.163 288.529C259.885 288.884 257.632 289.387 255.419 290.036C255.344 290.074 255.28 290.13 255.23 290.198C255.181 290.266 255.148 290.345 255.135 290.428C255.122 290.511 255.128 290.596 255.153 290.676C255.179 290.756 255.222 290.83 255.281 290.89C255.72 291.256 281.39 303.31 282.091 303.471C279.056 303.471 336.068 304.509 339.669 303.014C339.762 302.979 339.846 302.923 339.914 302.85C339.982 302.777 340.033 302.689 340.061 302.594C340.09 302.498 340.097 302.397 340.08 302.299C340.063 302.2 340.025 302.107 339.966 302.026C339.311 301.226 331.268 297.685 329.745 297.242L329.26 297.481C329.842 298.658 328.439 296.858 337.743 302.026ZM339.02 302.804H339.029L339.039 302.814L339.024 302.804H339.02Z" fill="#212121"/>
<path fill-rule="evenodd" clip-rule="evenodd" d="M133.769 259.291C134.543 263.59 135.145 286.732 133.29 289.534C132.74 290.365 130.592 289.9 129.74 289.004C128.366 287.558 123.604 262.238 123.612 259.698" fill="#212121"/>
<path fill-rule="evenodd" clip-rule="evenodd" d="M133.391 259.354C133.867 262.904 134.04 285.827 132.523 288.972H132.512H132.504H132.496L132.478 288.98H132.468C131.762 289.05 131.056 288.844 130.498 288.405C129.575 287.735 124.035 261.226 123.987 259.688L123.604 259.305L123.221 259.688C123.105 262.026 125.974 281.029 128.282 288.079C128.431 288.737 128.757 289.341 129.225 289.828C130.247 290.777 132.504 291.36 133.678 290.466C134.048 290.147 134.313 289.724 134.437 289.252C136.096 284.241 135.187 264.112 134.132 259.222L133.689 258.911L133.391 259.354Z" fill="#212121"/>
<path fill-rule="evenodd" clip-rule="evenodd" d="M58.5785 259.546C57.8049 263.845 57.2023 286.986 59.0573 289.789C59.6075 290.619 61.7561 290.154 62.6064 289.259C63.9814 287.813 68.7421 262.492 68.7344 259.954" fill="#212121"/>
<path fill-rule="evenodd" clip-rule="evenodd" d="M58.202 259.484C57.21 264.08 56.0712 285.747 58.1011 290.02C58.2252 290.298 58.4154 290.541 58.6552 290.728C59.8259 291.621 62.0856 291.046 63.1082 290.096C63.586 289.616 63.9138 289.008 64.0517 288.345C65.9156 282.651 68.2353 268.898 68.9898 261.77C69.0294 261.38 69.1315 260.354 69.1175 259.956L68.7409 259.573L68.3579 259.956C68.3157 261.558 62.7405 288.031 61.8533 288.673C61.3142 289.094 60.6401 289.304 59.9574 289.263L59.8731 289.247L59.8553 289.24H59.8476H59.8399H59.8285C58.8276 287.168 58.7241 277.878 58.6795 275.553C58.4088 257.32 59.3804 260.233 58.6424 259.182L58.202 259.484Z" fill="#212121"/>
<path fill-rule="evenodd" clip-rule="evenodd" d="M244.08 299.732C234.542 306.389 244.286 317.637 254.738 322.236C258.928 323.86 263.259 325.093 267.676 325.918C284.478 329.432 304.677 328.591 321.234 327.734C330.843 327.238 335.341 327.233 346.699 324.543C350.861 323.492 354.165 322.786 357.154 320.828C364.327 315.604 364.031 303.321 355.091 297.7C348.905 293.486 337.972 291.769 330.563 292.182C330.323 292.193 330.447 292.112 330.003 292.586C330.514 293.07 330.284 292.949 330.779 292.949C337.145 292.824 343.475 293.933 349.419 296.216C352.172 297.259 354.693 298.832 356.839 300.848C358.855 302.887 360.14 305.537 360.492 308.384C360.843 311.231 360.243 314.114 358.783 316.583C357.783 318.302 356.239 319.64 354.394 320.383C349.789 322.374 338.73 324.644 330.903 325.334C330.058 325.41 314.051 326.276 303.82 326.537C288.907 326.792 275.765 326.31 261.336 322.663C259.511 322.222 257.715 321.667 255.959 321.004C249.989 318.624 241.23 312.394 241.383 305.994C241.586 300.333 249.653 297.582 255.243 296.617L255.558 296.183L255.123 295.869C251.208 296.352 247.442 297.669 244.08 299.732Z" fill="#212121"/>
<path fill-rule="evenodd" clip-rule="evenodd" d="M348.808 313.028C344.309 317.609 278.081 321.717 254.966 312.58L254.387 312.571L253.97 312.954V312.963L253.958 313.534L254.352 313.96C262.905 317.894 278.029 319.633 286.66 320.265C305.577 321.82 345.402 321.343 351.378 315.858C351.542 315.704 351.422 315.924 352.059 314.4L351.515 313.05C351.387 312.966 351.96 313.235 350.165 312.485L348.808 313.028Z" fill="#212121"/>
<path fill-rule="evenodd" clip-rule="evenodd" d="M24.8861 6.78419C24.1925 6.8065 23.5217 7.03692 22.9608 7.4455C21.9497 8.37491 21.7493 10.3946 21.5565 12.21C18.6304 41.3985 24.9856 212.291 26.9185 250.142C27.3155 257.779 27.2926 257.621 27.7764 258.185C28.4249 258.661 29.1965 258.939 29.9991 258.987C44.1994 261.219 142.611 259.287 147.255 259.287C148.58 259.267 148.231 259.324 148.894 259.043L149.115 258.515V258.505L148.889 257.976C147.612 257.449 46.8217 258.589 30.1931 256.061C29.454 243.379 22.0429 28.4007 25.6188 10.5133C28.4505 9.09623 106.957 11.2576 116.066 11.5755C123.04 11.8309 154.46 12.9479 161.395 14.4876C162.083 28.5603 165.175 114.777 166.134 167.878C167.294 233.55 164.741 228.147 166.42 229.056H166.43L166.984 228.883C170.942 221.599 165.914 24.4801 164.875 13.0552C164.843 12.7453 164.734 12.4483 164.558 12.1916C164.381 11.9348 164.143 11.7265 163.865 11.5857C156.813 7.65998 35.5462 5.4756 24.8861 6.78419Z" fill="#212121"/>
<path fill-rule="evenodd" clip-rule="evenodd" d="M132.658 225.684C103.521 225.787 57.5483 226.853 28.2271 229.146L27.7062 229.409L27.5109 229.939V229.948L27.7662 230.459L28.3126 230.664C54.0873 230.664 64.9006 230.937 118.65 229.462C133.911 229.07 162.416 227.813 164.902 227.907C165.641 227.907 165.141 228.008 165.972 227.769L166.269 227.282V227.272L166.121 226.719L165.623 226.414C165.456 226.238 152.76 225.684 132.658 225.684Z" fill="#212121"/>
<path fill-rule="evenodd" clip-rule="evenodd" d="M67.2229 120.751C19.7692 121.975 25.1797 121.094 23.7102 121.661L23.4689 122.18V122.19L23.6745 122.723C26.3121 123.953 127.581 123.203 165.221 121.075C165.723 121.046 165.388 121.157 166.904 120.41L167.379 119.034V119.025L166.74 117.72C163.347 116.549 176.752 117.866 67.2229 120.751Z" fill="#212121"/>
<path fill-rule="evenodd" clip-rule="evenodd" d="M157.746 56.5563C149.518 56.9125 137.355 56.6061 122.883 56.5716C106.825 56.5448 102.564 56.8499 90.9523 57.2929C18.5576 60.0225 24.5579 58.3143 23.8085 59.6535V59.6637L23.972 60.2101C26.7806 61.7881 101.444 59.8514 117.512 59.9548C135.171 60.0952 158.493 60.9608 163.983 59.8565L165.23 59.1084L165.59 57.704V57.6938L164.841 56.4465C162.209 55.7686 165.159 56.2295 157.746 56.5563Z" fill="#212121"/>
<path fill-rule="evenodd" clip-rule="evenodd" d="M91.0366 7.60126L89.7458 8.27278L89.3003 9.65669C89.3003 9.85074 89.4075 10.3818 89.751 14.7723C90.7902 28.056 91.6059 55.8542 92.3234 57.4002C94.0648 58.1087 93.5209 58.0066 93.7635 42.0176C93.8912 33.5214 93.9244 26.0797 93.5452 17.1329C93.429 14.545 93.1826 10.1176 93.1022 9.33625L92.4307 8.04298L91.0455 7.59743L91.0366 7.60126Z" fill="#212121"/>
<path fill-rule="evenodd" clip-rule="evenodd" d="M110.609 56.3687L109.289 56.9789L108.778 58.3424C108.778 58.47 111.279 114.675 111.768 119.69L112.017 120.234L112.545 120.448H112.555C113.526 119.979 113.276 120.75 113.252 112.176C113.206 88.2432 113.36 86.0844 112.592 58.2032L111.982 56.8831L110.618 56.3725L110.609 56.3687Z" fill="#212121"/>
<path fill-rule="evenodd" clip-rule="evenodd" d="M78.3056 120.262L76.9881 120.879L76.4851 122.243C76.4851 123.409 76.651 124.358 77.4962 144.885C81.1513 234.302 80.4172 227.765 81.6199 228.273H81.6301L82.1484 228.018C82.4497 227.198 82.3795 229.894 82.1484 207.409C81.3262 132.551 80.2985 129.697 80.2985 122.08L79.6819 120.762L78.3158 120.259L78.3056 120.262Z" fill="#212121"/>
<path fill-rule="evenodd" clip-rule="evenodd" d="M113.065 179.984C77.6214 181.208 81.4322 180.962 80.6113 181.317L80.3879 181.843V181.852C80.8347 182.838 79.8223 182.598 90.3944 182.655C140.057 182.922 157.449 182.034 166.619 182.034L167.947 181.439L168.473 180.081V180.073L167.879 178.745L166.522 178.219C162.614 178.606 182.769 177.549 113.065 179.984Z" fill="#212121"/>
<path fill-rule="evenodd" clip-rule="evenodd" d="M50.8994 191.568C41.4827 191.743 41.2874 191.834 40.9619 193.79C40.0835 199.27 42.5373 219.962 42.9356 228.083C43.016 229.721 42.8654 229.289 43.3709 229.796C43.8369 229.317 43.7463 229.526 43.7539 228.984C43.8331 219.708 41.927 193.862 42.8667 193.862C44.6336 193.407 59.2986 193.211 64.284 194.148C64.5087 196.776 65.2236 219.113 65.9053 228.55L66.3062 228.918L66.6714 228.517C66.6126 225.782 66.4773 202.661 66.4301 202.661C66.3828 200.566 66.3024 196.734 66.1747 194.639C66.0624 192.826 66.0815 192.543 63.6533 192.149C59.4164 191.715 55.1583 191.521 50.8994 191.568Z" fill="#212121"/>
<path fill-rule="evenodd" clip-rule="evenodd" d="M71.6006 131.046C70.7759 131.125 70.2869 131.88 69.8477 132.653C65.6028 140.265 55.2669 179.379 55.775 191.066C55.7954 191.527 55.7291 191.372 56.1938 191.796C56.9419 190.961 56.1708 192.265 56.8781 186.75C58.8965 172.098 67.874 140.889 71.2304 134.104C71.4857 140.575 67.7349 187.648 63.8257 192.526L63.8768 193.065L64.4168 193.013C65.6526 191.546 66.7288 187.186 67.1655 185.323C69.7188 174.525 71.6517 158.077 72.5275 146.909C72.7151 144.519 73.4977 134.478 72.9245 132.155C72.8767 131.841 72.7159 131.555 72.4722 131.351C72.2284 131.146 71.9185 131.038 71.6006 131.046Z" fill="#212121"/>
<path fill-rule="evenodd" clip-rule="evenodd" d="M48.641 190.937C47.8469 185.741 47.7857 150.076 50.1003 145.927C52.4493 147.359 53.6328 160.519 53.8728 163.162C55.5324 181.823 55.0218 184.144 55.3409 190.595C55.3537 190.831 55.272 190.698 55.7457 191.139C56.1925 190.67 56.1184 190.807 56.1171 190.571C56.1171 187.315 56.2193 185.729 56.3112 182.36C56.5002 174.76 55.7661 157.801 53.8664 149.872C53.3315 147.686 52.3612 144.222 50.1411 143.971C48.6602 143.834 48.1546 145.375 47.801 146.861C45.8247 155.441 46.3188 182.202 47.8227 190.719C47.9312 191.278 47.838 191.108 48.3551 191.458C48.6857 190.971 48.6615 191.066 48.641 190.937Z" fill="#212121"/>
<path fill-rule="evenodd" clip-rule="evenodd" d="M33.5687 136.91C32.5243 137.124 32.5537 138.231 32.5473 139.657C32.5473 149.878 36.025 180.383 41.0461 191.42C41.2159 191.774 41.0869 191.66 41.6844 191.887C41.9576 191.136 41.9525 191.787 41.2836 189.893C37.6655 179.73 34.8377 151.028 34.493 141.715C37.4663 149.348 44.6654 171.373 45.8898 179.095C46.4745 182.987 48.129 187.602 47.363 191.334C47.3362 191.462 47.3005 191.354 47.6299 191.887C48.1559 191.56 48.0805 191.639 48.1137 191.51C48.858 188.408 48.1469 184.975 47.5545 181.619C47.0247 178.555 47.2992 179.512 46.8141 176.726C44.5901 164.578 36.3135 139.528 34.5581 137.332C34.4445 137.182 34.2933 137.063 34.1197 136.989C33.9461 136.915 33.7561 136.888 33.5687 136.91Z" fill="#212121"/>
<path fill-rule="evenodd" clip-rule="evenodd" d="M95.0503 217.771C89.59 217.771 82.4637 218.334 82.0053 218.397L81.6313 218.78L82.0232 219.148C87.5997 219.531 107.378 219.722 110.345 220.359C110.966 220.502 111.548 220.783 112.045 221.182C112.543 221.58 112.944 222.086 113.219 222.662C113.494 223.237 113.635 223.867 113.632 224.505C113.63 225.142 113.483 225.771 113.203 226.344C112.932 226.839 112.512 227.236 112.003 227.48C111.984 227.492 111.963 227.501 111.942 227.508L111.712 228L112.204 228.228C112.722 228.071 113.195 227.793 113.585 227.418C115.444 225.758 115.425 221.663 112.902 219.676C111.757 218.856 110.39 218.4 108.981 218.37H108.972C104.827 217.927 99.0221 217.771 95.0503 217.771Z" fill="#212121"/>
<path fill-rule="evenodd" clip-rule="evenodd" d="M36.9965 49.5959C31.5375 49.5959 24.4111 50.1589 23.9515 50.2202L23.5788 50.6032L23.9707 50.9696C29.5459 51.3526 49.324 51.5454 52.2922 52.1812C52.9138 52.3239 53.4951 52.6052 53.9928 53.004C54.4904 53.4028 54.8916 53.9089 55.1663 54.4844C55.441 55.06 55.5821 55.6901 55.5792 56.3279C55.5763 56.9656 55.4294 57.5944 55.1494 58.1675C54.8781 58.6621 54.4583 59.0591 53.9493 59.3024C53.9302 59.3147 53.9096 59.3246 53.8881 59.3318L53.6596 59.8233L54.1498 60.0518C54.6677 59.8943 55.1411 59.6165 55.5311 59.2411C57.39 57.5815 57.3708 53.4859 54.8481 51.4994C53.7033 50.6787 52.337 50.2234 50.9288 50.1934H50.9185C46.7732 49.7542 40.9695 49.5959 36.9965 49.5959Z" fill="#212121"/>
<path fill-rule="evenodd" clip-rule="evenodd" d="M125.034 109.936C122.495 110.047 122.769 109.699 123.584 118.05C123.671 118.776 123.698 119.508 123.667 120.239V120.229V120.248V120.239V120.248V120.239V120.253V120.239V120.253V120.239V120.248L123.675 120.234V120.243L123.683 120.229V120.239L123.695 120.22V120.229L123.709 120.21L123.726 120.191L123.746 120.171L123.772 120.148L123.802 120.129L123.833 120.11C123.87 120.096 123.909 120.085 123.948 120.077L123.603 120.488L124.014 120.831H124.045C124.374 120.743 124.458 120.493 124.512 120.182C124.767 118.699 124.47 113.543 124.6 111.578C126.057 111.605 147.467 111.674 150.43 112.344C150.962 112.419 151.472 112.603 151.93 112.884C152.788 113.437 153.405 114.294 153.657 115.283C153.961 116.05 153.977 116.9 153.704 117.678C153.431 118.456 152.886 119.109 152.17 119.518L152.101 119.547L151.871 120.037C152.594 120.374 152.265 120.238 152.454 120.238C152.781 120.128 153.087 119.967 153.363 119.762C155.617 118.237 155.862 113.325 152.248 111.237C151.648 110.925 151.001 110.714 150.333 110.613C144.136 109.726 131.329 109.666 125.034 109.936ZM124.618 111.167V111.152L124.612 111.171V111.162L124.603 111.186V111.176V111.19C124.603 111.166 124.61 111.166 124.618 111.138V111.167Z" fill="#212121"/>
<path fill-rule="evenodd" clip-rule="evenodd" d="M137.579 172.019C127.977 172.084 128.405 172.268 128.166 172.658C127.792 173.296 128.018 175.415 128.152 176.946C128.356 178.146 128.418 179.367 128.336 180.582L128.327 180.611V180.597V180.607V180.597V180.607V180.593V180.604L128.334 180.59V180.601L128.343 180.586V180.593L128.355 180.578V180.586L128.368 180.568L128.383 180.55V180.558L128.401 180.539L128.424 180.521L128.451 180.501L128.481 180.484H128.475L128.509 180.468L128.548 180.458H128.541L128.581 180.45H128.622H128.615L128.264 180.854L128.67 181.206C128.754 181.2 128.835 181.172 128.905 181.124C128.974 181.076 129.03 181.011 129.066 180.934C129.497 180.104 129.284 175.511 129.455 173.762C129.598 173.762 146.307 173.925 153.732 174.236C155.153 174.134 156.57 174.479 157.785 175.222C158.175 175.48 158.485 175.843 158.677 176.27C158.87 176.696 158.938 177.169 158.872 177.632C158.807 178.095 158.612 178.531 158.309 178.887C158.006 179.244 157.608 179.508 157.161 179.647L156.896 180.12C157.398 180.401 157.324 180.399 157.453 180.366C157.754 180.291 158.045 180.179 158.318 180.032C161.254 178.526 160.591 173.265 155.142 172.665C151.205 172.121 141.548 172.019 137.579 172.019ZM129.474 173.387V173.379L129.462 173.408V173.401L129.453 173.419L129.465 173.371V173.393L129.477 173.361L129.474 173.387Z" fill="#212121"/>
<path fill-rule="evenodd" clip-rule="evenodd" d="M95.2393 209.034C89.779 209.034 82.6527 209.597 82.1943 209.658L81.8203 210.041L82.2122 210.407C87.7887 210.79 107.567 210.983 110.534 211.619C111.155 211.762 111.737 212.043 112.234 212.442C112.732 212.841 113.133 213.347 113.408 213.922C113.683 214.498 113.824 215.128 113.821 215.766C113.818 216.403 113.671 217.032 113.391 217.605C113.121 218.1 112.701 218.497 112.192 218.74C112.173 218.752 112.152 218.762 112.131 218.77L111.901 219.26L112.393 219.49C112.91 219.332 113.384 219.054 113.774 218.679C115.632 217.013 115.614 212.924 113.091 210.937C111.945 210.117 110.579 209.661 109.17 209.63H109.161C105.016 209.192 99.2111 209.034 95.2393 209.034Z" fill="#212121"/>
<path fill-rule="evenodd" clip-rule="evenodd" d="M37.1855 40.8533C31.7265 40.8533 24.6001 41.4176 24.1405 41.4789L23.7677 41.8619L24.1597 42.2283C29.7349 42.6113 49.513 42.8041 52.4812 43.4399C53.1028 43.5826 53.6841 43.8638 54.1817 44.2627C54.6794 44.6615 55.0806 45.1676 55.3553 45.7431C55.63 46.3187 55.7711 46.9488 55.7682 47.5866C55.7653 48.2243 55.6184 48.8531 55.3384 49.4261C55.0671 49.9208 54.6473 50.3178 54.1383 50.5611C54.1191 50.5729 54.0985 50.5823 54.0771 50.5892L53.8485 51.0807L54.3388 51.3092C54.8571 51.1527 55.3307 50.8748 55.7201 50.4985C57.5789 48.8389 57.5598 44.7446 55.0371 42.7581C53.892 41.9377 52.526 41.4821 51.1178 41.4508H51.1075C46.9622 41.0167 41.1572 40.8533 37.1855 40.8533Z" fill="#212121"/>
<path fill-rule="evenodd" clip-rule="evenodd" d="M126.007 101.508C125.286 101.547 125.025 101.989 124.949 102.705C124.781 104.507 125.753 109.547 125.485 110.442V110.466V110.456L125.478 110.475V110.466V110.48V110.471V110.48V110.471V110.48L125.486 110.471V110.48L125.494 110.471L125.487 110.48L125.496 110.466V110.475L125.508 110.461L125.5 110.471L125.513 110.456L125.505 110.466L125.521 110.452L125.513 110.461L125.528 110.442L125.521 110.452L125.538 110.437H125.531L125.553 110.423H125.544L125.567 110.407L125.558 110.418L125.583 110.404H125.574L125.601 110.39H125.592L125.62 110.379H125.611L125.641 110.37H125.632H125.661H125.652H125.683H125.673L125.318 110.776L125.721 111.129C125.821 111.124 125.917 111.091 125.998 111.033C126.827 110.429 126.204 105.16 126.44 103.077C127.243 103.134 137.981 103.162 138.11 103.162C149.727 103.29 151.183 103.4 152.442 104.431L152.467 104.456C152.909 104.831 153.268 105.295 153.519 105.818C153.771 106.341 153.91 106.91 153.927 107.49C153.945 108.07 153.841 108.647 153.622 109.184C153.403 109.721 153.073 110.206 152.655 110.608C152.106 110.967 152.357 110.593 152.017 111.314C152.539 111.556 152.465 111.562 152.594 111.519C153.523 111.11 154.282 110.392 154.743 109.488C155.204 108.583 155.339 107.547 155.124 106.554C154.717 103.842 152.903 102.027 149.476 101.741C141.665 101.183 133.827 101.105 126.007 101.508ZM126.495 102.746V102.737L126.487 102.751V102.742L126.479 102.761L126.469 102.781V102.772L126.458 102.791L126.464 102.781L126.456 102.795L126.477 102.737L126.495 102.746Z" fill="#212121"/>
<path fill-rule="evenodd" clip-rule="evenodd" d="M139.083 165.308C138.457 165.308 131.096 165.353 130.415 165.639C130.317 165.684 130.226 165.744 130.146 165.817C129.599 166.623 129.388 167.611 129.557 168.57C129.654 169.974 129.841 171.371 130.117 172.752C130.141 172.88 130.083 172.789 130.558 173.152C131.142 172.378 130.747 173.322 130.747 169.629C130.716 168.743 130.811 167.856 131.028 166.996C141.198 167.299 154.975 167.156 156.988 168.004C157.044 168.023 157.165 168.08 157.22 168.104C157.545 168.25 157.843 168.45 158.101 168.695C158.446 168.966 158.712 169.326 158.869 169.736C159.027 170.146 159.07 170.591 158.995 171.024C158.92 171.456 158.73 171.861 158.444 172.194C158.158 172.527 157.787 172.777 157.371 172.917C157.333 172.931 157.349 172.926 157.304 172.94L157.039 173.412L157.511 173.676C157.539 173.673 157.565 173.667 157.592 173.659C158.146 173.538 158.66 173.276 159.083 172.898C159.506 172.519 159.824 172.038 160.006 171.501C160.161 171.018 160.216 170.509 160.167 170.004C160.119 169.499 159.969 169.009 159.725 168.565C159.245 167.705 158.515 167.013 157.631 166.579C156.357 166.06 154.998 165.783 153.623 165.761C149.297 165.415 143.404 165.308 139.083 165.308ZM131.068 166.919H131.075H131.068ZM131.089 166.897L131.109 166.874L131.092 166.893L131.101 166.886L131.088 166.9H131.096L131.08 166.914L131.064 166.925L131.074 166.918L131.061 166.929C131.069 166.919 131.077 166.905 131.091 166.888L131.077 166.91L131.1 166.881L131.089 166.897Z" fill="#212121"/>
<path fill-rule="evenodd" clip-rule="evenodd" d="M93.0843 199.604C88.2139 199.604 81.4118 200.207 81.1335 200.243L80.7594 200.626L81.1513 200.993C86.6231 201.402 103.995 201.429 106.342 202.31C107.221 202.615 107.957 203.23 108.413 204.041C109.649 206.202 108.898 208.664 107.35 209.293L107.12 209.783L107.612 210.013C107.93 209.919 108.233 209.779 108.512 209.598C111.01 207.995 111.193 202.999 107.532 200.917H107.517C105.213 199.671 95.6823 199.604 93.0843 199.604Z" fill="#212121"/>
<path fill-rule="evenodd" clip-rule="evenodd" d="M35.0305 31.429C30.16 31.429 23.3579 32.0316 23.0796 32.0737L22.7055 32.4567L23.0987 32.8244C28.5692 33.2329 45.9409 33.2597 48.2886 34.1406C49.1669 34.4458 49.9034 35.0615 50.3594 35.8718C51.5939 38.0332 50.8445 40.4946 49.2959 41.1227L49.0661 41.6142L49.5576 41.844C49.8739 41.7494 50.1749 41.6096 50.4513 41.4291C52.9497 39.8256 53.1323 34.83 49.4721 32.7478H49.4568C47.1601 31.4941 37.6285 31.429 35.0305 31.429Z" fill="#212121"/>
<path fill-rule="evenodd" clip-rule="evenodd" d="M158.577 190.208C158.431 190.223 158.289 190.269 158.162 190.343C158.034 190.417 157.924 190.517 157.838 190.637C156.643 192.664 156.434 222.822 157.634 226.094L158.099 226.366C158.448 225.753 158.354 226.079 158.316 225.384C158.231 223.539 158.493 217.825 158.493 217.672C158.702 211.31 158.921 194.149 159.131 191.596C161.261 191.3 163.418 191.257 165.558 191.468C165.695 191.483 165.678 191.503 165.732 191.503L165.762 191.511H165.801L166.282 191.256L166.027 190.775C163.592 190.176 161.075 189.985 158.577 190.208ZM158.839 191.672L158.856 191.662L158.826 191.672L158.806 191.681H158.817L158.852 191.667L158.839 191.672ZM158.858 191.662L158.871 191.653L158.858 191.662Z" fill="#212121"/>
<path fill-rule="evenodd" clip-rule="evenodd" d="M155.728 22.6978C155.581 22.7125 155.44 22.7583 155.312 22.8323C155.185 22.9063 155.075 23.0067 154.99 23.1268C153.794 25.1542 153.586 55.3116 154.784 58.5837L155.249 58.8556C155.599 58.2415 155.504 58.5683 155.466 57.8738C155.382 56.0291 155.644 50.3147 155.644 50.1615C155.854 43.7999 156.071 26.6376 156.282 24.0856C158.411 23.7876 160.569 23.7426 162.709 23.9515C162.845 23.9669 162.829 23.9847 162.882 23.9847L162.913 23.9949H162.951L163.432 23.7396L163.177 23.2583C160.742 22.6616 158.225 22.4723 155.728 22.6978ZM155.99 24.1622L156.006 24.152L155.977 24.1622L155.956 24.1711H155.968L156.002 24.1571L155.99 24.1622ZM156.009 24.152L156.021 24.143L156.009 24.152Z" fill="#212121"/>
<path fill-rule="evenodd" clip-rule="evenodd" d="M84.1796 22.8306C84.0332 22.8457 83.8916 22.8917 83.7644 22.9656C83.6372 23.0396 83.5271 23.1398 83.4416 23.2596C82.2454 25.2869 82.0373 55.4444 83.2361 58.7177L83.7008 58.9884C84.0519 58.3756 83.9562 58.7011 83.9191 58.0066C83.8349 56.1618 84.0953 50.4475 84.0953 50.2943C84.306 43.9327 84.5243 26.7717 84.7336 24.2184C86.8636 23.921 89.0212 23.876 91.1616 24.0843C91.2982 24.0996 91.2816 24.1188 91.334 24.1188L91.3659 24.1277H91.4042L91.8842 23.8801L91.6289 23.3975C89.1941 22.7989 86.6769 22.6073 84.1796 22.8306ZM84.4426 24.295L84.4579 24.2848L84.4298 24.295H84.4375L84.4157 24.3052H84.4285L84.463 24.2911L84.4426 24.295ZM84.4617 24.2848L84.4745 24.2758L84.4617 24.2848Z" fill="#212121"/>
<path fill-rule="evenodd" clip-rule="evenodd" d="M149.729 194.109C149.231 194.356 149.168 194.676 149.061 195.269C148.007 201.595 147.824 223.966 148.862 227.129L149.328 227.397L149.593 226.929C149.523 225.269 149.541 223.607 149.648 221.95C150.132 210.434 150.432 197.092 150.633 195.445C151.427 195.323 152.226 195.245 153.029 195.211C157.649 195.061 156.545 195.326 157.227 195.326L157.253 195.335H157.292L157.773 195.087L157.518 194.605C154.975 193.955 152.333 193.787 149.729 194.109ZM150.336 195.521L150.353 195.511L150.324 195.527L150.335 195.516L150.313 195.527H150.325H150.334L150.362 195.518L150.336 195.521ZM150.357 195.511L150.371 195.502L150.357 195.511Z" fill="#212121"/>
<path fill-rule="evenodd" clip-rule="evenodd" d="M146.978 24.2784C146.48 24.5248 146.417 24.8452 146.31 25.4376C145.255 31.7635 145.073 54.1345 146.111 57.2981L146.577 57.5649L146.842 57.0977C146.771 55.4382 146.79 53.7761 146.897 52.1187C147.381 40.6031 147.681 27.2594 147.881 25.6138C148.675 25.4924 149.475 25.4144 150.278 25.3801C154.898 25.2295 153.794 25.4938 154.475 25.4938L154.502 25.504H154.541L155.022 25.2487L154.766 24.7673C152.224 24.1181 149.582 23.9523 146.978 24.2784ZM147.585 25.6904L147.602 25.6802L147.572 25.6942L147.584 25.6853L147.562 25.6942H147.574H147.583L147.611 25.684L147.585 25.6904ZM147.606 25.6802L147.62 25.6712L147.606 25.6802Z" fill="#212121"/>
<path fill-rule="evenodd" clip-rule="evenodd" d="M75.4306 24.4111C74.9327 24.6575 74.8701 24.978 74.7616 25.5704C73.7083 31.8962 73.5245 54.2673 74.5637 57.4309L75.0284 57.6977L75.294 57.2304C75.2239 55.571 75.2422 53.9089 75.3489 52.2514C75.834 40.7359 76.1327 27.3922 76.3345 25.7465C77.1284 25.6251 77.9283 25.5471 78.7308 25.5129C83.3497 25.3623 82.2454 25.6278 82.9271 25.6278L82.954 25.6367H82.9935L83.4736 25.3891L83.2182 24.9065C80.6762 24.256 78.0346 24.0879 75.4306 24.4111ZM76.0383 25.8231L76.0536 25.8129L76.0242 25.8282L76.037 25.818L76.0153 25.8282H76.0268H76.0357L76.0625 25.8193L76.0383 25.8231ZM76.0574 25.8129L76.0715 25.804L76.0574 25.8129Z" fill="#212121"/>
<path fill-rule="evenodd" clip-rule="evenodd" d="M132.818 198.16C131.689 198.279 131.605 198.714 131.414 199.858C130.505 208.302 130.311 216.808 130.833 225.284C130.862 226.061 130.977 226.831 131.174 227.582L131.638 227.849C132.021 227.182 131.864 227.653 131.852 226.509C131.843 224.346 132.113 221.17 132.362 215.559C132.441 213.345 132.861 201.909 133.115 199.685C133.243 199.685 133.498 199.588 134.52 199.514C135.064 199.455 137.042 199.357 137.862 199.386C140.142 199.386 139.316 199.783 140.243 199.304L139.988 198.823C137.645 198.241 135.228 198.017 132.818 198.16ZM132.818 199.763L132.833 199.754L132.803 199.768L132.814 199.758L132.791 199.768H132.803H132.81L132.837 199.759L132.818 199.763ZM132.838 199.754H132.846H132.838Z" fill="#212121"/>
<path fill-rule="evenodd" clip-rule="evenodd" d="M129.951 25.4299C129.353 25.7248 129.324 26.1014 129.118 27.7049C128.452 33.1231 127.753 53.0876 128.919 58.0896C128.975 58.3283 128.895 58.239 129.439 58.5517L129.709 58.0883C129.538 57.0593 129.837 51.7803 129.914 50.4947C130.11 47.206 130.62 28.7263 130.86 26.7615C133.04 26.4507 135.251 26.4104 137.442 26.6415H137.454L137.48 26.6517H137.519L138 26.3963L137.745 25.915C135.2 25.269 132.556 25.1044 129.951 25.4299ZM130.56 26.8419L130.575 26.8317L130.546 26.8457H130.553H130.532H130.543H130.552L130.579 26.8355L130.56 26.8419ZM130.579 26.8317H130.594H130.579Z" fill="#212121"/>
<path fill-rule="evenodd" clip-rule="evenodd" d="M142.268 190.124C140.412 190.124 140.343 190.429 140.163 192.375C139.618 198.459 139.178 220.903 140.372 226.015C140.418 226.211 140.372 226.142 140.883 226.44C141.281 225.741 141.091 226.409 141.069 224.489C141.069 223.159 141.762 194.582 142.02 191.888C142.671 191.828 148.776 191.76 149.255 191.76C149.255 193.157 149.265 195.449 149.232 197.002L149.59 197.412L149.998 197.055C150.714 190.544 150.545 190.894 150.372 190.671C150.015 190.352 150.195 190.52 146.097 190.228C144.81 190.172 143.511 190.124 142.268 190.124ZM141.522 191.932H141.535H141.543H141.522Z" fill="#212121"/>
<path fill-rule="evenodd" clip-rule="evenodd" d="M139.412 22.6136C137.556 22.6136 137.487 22.9187 137.308 24.8643C136.762 30.9489 136.322 53.3927 137.516 58.5045C137.562 58.7011 137.516 58.6322 138.027 58.9284C138.425 58.23 138.235 58.899 138.213 56.9776C138.213 55.6486 138.908 27.0717 139.164 24.3779C139.814 24.3179 145.915 24.2503 146.399 24.2503C146.399 25.6469 146.409 27.9385 146.378 29.4923L146.734 29.9021L147.142 29.5446C147.858 23.0336 147.689 23.3834 147.516 23.1613C147.159 22.8421 147.339 23.0093 143.241 22.717C141.965 22.6608 140.662 22.6136 139.412 22.6136ZM138.666 24.4201H138.679H138.687H138.666Z" fill="#212121"/>
<path fill-rule="evenodd" clip-rule="evenodd" d="M100.651 139.911C97.5417 140.052 94.4938 140.826 91.694 142.186C84.62 146.072 82.8991 154.57 85.5265 162.215C88.0262 170.498 97.8616 172.587 105.965 170.204C115.3 167.425 120.683 159.671 116.113 149.893C114.766 146.921 112.592 144.399 109.85 142.629C107.108 140.859 103.915 139.915 100.651 139.911ZM104.743 142.337C113.594 144.932 117.941 154.976 114.888 161.299C110.165 170.956 90.3765 173.514 86.2912 162.088C83.5655 152.768 87.49 145.262 93.9818 143.022C95.6524 142.499 97.3593 142.099 99.0885 141.826C100.988 141.635 102.907 141.807 104.743 142.334V142.337Z" fill="#212121"/>
<path fill-rule="evenodd" clip-rule="evenodd" d="M111.295 149.729C108.652 149.777 107.748 151.599 106.433 152.834C106.125 153.157 105.742 153.399 105.317 153.538C104.893 153.678 104.441 153.711 104.001 153.634C103.239 153.591 102.483 153.79 101.841 154.203C101.199 154.616 100.704 155.221 100.426 155.932C99.9745 156.769 99.8159 157.733 99.9757 158.67C100.428 160.854 102.86 162.827 105.006 163.424C105.51 163.516 105.992 163.702 106.428 163.971C107.2 164.618 106.939 165.997 107.281 167.196C107.329 167.354 107.251 167.277 107.781 167.593C108.164 166.943 108.025 167.322 108.006 166.61C107.982 165.192 108.457 163.546 106.649 162.495C105.627 162.105 104.661 161.58 103.778 160.934C102.86 160.291 102.175 159.368 101.824 158.304C101.797 157.845 101.872 157.386 102.045 156.959C102.218 156.533 102.484 156.151 102.823 155.84C103.857 154.992 105.444 156.344 107.684 154.131C107.977 153.875 109.001 152.541 109.534 152.015C110.006 151.516 110.639 151.199 111.322 151.122C112.533 150.901 113.783 151.088 114.876 151.655C115.422 152.024 114.979 151.927 115.777 151.992L115.82 151.452C115.238 150.851 114.531 150.385 113.749 150.087C112.967 149.79 112.129 149.667 111.295 149.729Z" fill="#212121"/>
<path fill-rule="evenodd" clip-rule="evenodd" d="M104.814 141.767C104.937 142.466 104.82 143.185 104.483 143.809C104.146 144.433 103.608 144.925 102.957 145.206C100.395 146.355 98.3097 144.557 95.6798 145.503C93.4354 146.366 92.4434 149.175 91.0161 149.286C90.4445 149.287 89.8857 149.117 89.4113 148.798C88.8738 148.319 88.4492 147.726 88.1679 147.063L87.6725 146.851L87.4657 147.348C87.65 148.088 87.9517 148.795 88.3594 149.44C89.0324 150.224 89.972 150.732 90.997 150.864C91.4522 150.879 91.9057 150.8 92.3296 150.634C92.7536 150.467 93.139 150.216 93.4622 149.895C94.2456 149.006 95.1023 148.185 96.0232 147.44C97.7965 146.418 100.264 148.24 103.199 146.911C104.197 146.495 104.998 145.713 105.439 144.726C105.879 143.739 105.926 142.621 105.569 141.6L105.111 141.309L104.814 141.767Z" fill="#212121"/>
<path fill-rule="evenodd" clip-rule="evenodd" d="M84.7924 157.564L84.9915 158.064C85.6209 158.468 85.8711 159.171 86.4431 160.182C88.2074 163.26 90.7174 161.842 92.5813 163.347C93.9984 164.528 94.9789 167.128 94.0265 168.89C93.8988 169.112 93.9218 168.949 93.978 169.591C94.6163 169.536 94.4887 169.591 94.6802 169.387C97.0471 166.869 95.5891 161.82 91.6928 160.846C90.5042 160.757 89.3422 160.45 88.2649 159.941C87.2997 159.203 86.6052 157.751 85.2941 157.37L84.7924 157.564Z" fill="#212121"/>
<path fill-rule="evenodd" clip-rule="evenodd" d="M112.68 140.264C112.121 140.494 111.634 140.868 111.267 141.349C110.89 141.809 110.574 142.315 110.326 142.855C110.257 143.059 110.174 143.421 110.128 143.643C110.058 143.952 110.068 143.755 110.11 144.409C110.748 144.359 110.598 144.391 110.87 144.272C111.649 143.972 112.287 143.389 112.657 142.639C113.02 142.117 113.237 141.506 113.284 140.871C113.317 140.668 113.323 140.806 113.223 140.182L112.68 140.264Z" fill="#212121"/>
<path fill-rule="evenodd" clip-rule="evenodd" d="M87.4044 171.621L87.4338 172.157C89.8625 174.296 92.8218 175.742 96.0015 176.343C105.449 178.336 114.555 174.837 119.657 167.333C125.556 158.466 124.319 147.357 111.913 138.48L111.375 138.55C111.496 139.478 111.12 138.586 113.914 141.289C116.894 144.041 119.143 147.491 120.459 151.328C123.248 160.52 118.024 169.139 110.413 172.945C102.575 176.829 92.6349 175.533 87.9432 171.592L87.4044 171.621Z" fill="#212121"/>
<path fill-rule="evenodd" clip-rule="evenodd" d="M99.9758 176.645C99.6925 177.379 99.5651 178.165 99.6017 178.952C99.5639 179.536 99.7012 180.118 99.9962 180.624C100.165 180.953 100.06 180.817 100.521 181.262C100.978 180.781 100.854 180.941 101.032 180.624C101.17 180.378 101.289 180.122 101.389 179.858C101.547 179.135 101.556 178.387 101.413 177.661C101.333 177.356 101.196 177.069 101.01 176.814C100.696 176.378 100.771 176.474 100.25 176.176L99.9758 176.645Z" fill="#212121"/>
<path fill-rule="evenodd" clip-rule="evenodd" d="M91.6647 170.499C91.183 170.937 90.8202 171.49 90.6101 172.106C90.5621 172.432 90.5458 172.762 90.5616 173.09L90.6727 173.618L91.1987 173.5C91.606 173.366 91.974 173.133 92.2699 172.823C92.5659 172.513 92.7807 172.134 92.8954 171.721C93.0736 171.138 93.0447 170.512 92.8137 169.949C92.3952 170.046 92.003 170.234 91.6647 170.499Z" fill="#212121"/>
<path fill-rule="evenodd" clip-rule="evenodd" d="M58.5454 77.5256C57.9198 77.6686 57.7104 78.0363 57.607 78.6516C56.7887 83.6013 56.6355 112.264 56.8282 121.77L57.2112 122.153L57.5942 121.77C57.7487 114.94 58.9169 83.5298 59.4109 79.3066C63.089 79.0627 82.391 79.5159 89.7318 80.1096C91.9021 80.2922 91.6098 80.2909 91.6468 80.476C92.303 84.2843 95.2623 111.782 95.5968 118.648C95.6964 120.902 95.4449 120.18 95.9134 120.843L96.3564 120.53C96.8671 117.827 94.6597 87.6292 93.4444 80.1619C93.3167 79.4062 93.249 78.9759 92.6847 78.7027C90.4238 77.749 61.054 76.9996 58.5454 77.5256Z" fill="#212121"/>
<path fill-rule="evenodd" clip-rule="evenodd" d="M66.9471 83.9562C64.0797 83.9664 63.7261 84.006 63.3252 84.3902C63.099 84.6944 62.9764 85.0632 62.9754 85.4422C62.5094 89.4816 61.9541 114.402 62.2158 115.432C62.2669 115.586 62.3607 115.722 62.4861 115.824C62.6116 115.927 62.7636 115.991 62.9243 116.011C63.2141 116.022 90.2118 114.734 90.4467 114.495C90.4738 114.462 90.4949 114.424 90.5093 114.383L90.5272 114.32C90.0982 114.246 89.9603 114.222 90.5272 114.32C90.9191 112.278 89.4165 92.6937 88.759 87.3661C88.4577 84.9405 88.5036 84.9277 86.3754 84.6941C81.9058 84.26 71.9031 83.9562 66.9471 83.9562ZM86.9155 86.5095C87.4427 89.4254 89.8135 110.499 89.7918 113.879C81.4935 113.988 74.7514 114.068 63.9061 114.286C63.9699 109.793 64.4257 90.1672 64.8368 85.8839C68.3017 85.7269 83.554 86.0818 86.9155 86.5121V86.5095ZM86.835 86.1265V86.1112V86.1265Z" fill="#212121"/>
<path fill-rule="evenodd" clip-rule="evenodd" d="M56.9534 97.4939C54.4044 102.256 52.1817 107.185 50.3007 112.248C49.1115 114.74 48.1979 117.355 47.5762 120.045C47.0017 121.928 46.9379 121.131 47.1754 122.01C47.7818 121.841 47.6631 121.915 47.7984 121.715C48.7002 120.098 49.5184 118.436 50.2496 116.736C53.1042 111.355 55.8567 103.203 57.6543 97.7991L57.4577 97.2884L56.9534 97.4939Z" fill="#212121"/>
<path fill-rule="evenodd" clip-rule="evenodd" d="M63.4657 102.686L63.2704 103.188L63.781 103.377C64.4616 103.163 65.1855 103.128 65.8837 103.273C67.0837 103.573 68.2401 104.026 69.3243 104.622C71.0461 105.618 72.4966 107.022 73.5481 108.711C74.5995 110.4 75.2197 112.321 75.354 114.306L75.6833 114.739C76.194 114.356 76.1047 114.466 76.1685 114.186C77.8064 106.602 68.5251 99.6502 63.4657 102.686Z" fill="#212121"/>
<path fill-rule="evenodd" clip-rule="evenodd" d="M80.7032 98.1897C80.8778 97.2321 80.9314 96.2563 80.8628 95.2853C80.8309 94.8045 80.6824 94.3387 80.43 93.9282C79.3448 92.1217 76.2961 90.8502 74.2675 90.3612C74.0504 90.2694 73.8172 90.2217 73.5814 90.2209C73.3457 90.2202 73.1122 90.2663 72.8945 90.3568C72.6768 90.4472 72.4792 90.5801 72.3134 90.7476C72.1476 90.9152 72.0168 91.1141 71.9287 91.3327C71.7126 91.0923 71.482 90.8655 71.238 90.6536C70.5208 89.9709 69.6346 89.4919 68.6706 89.2658C67.2445 88.7888 65.7645 88.4911 64.2648 88.3798C64.0095 88.3734 64.155 88.3096 63.689 88.7386C64.118 89.2007 63.9737 89.1216 64.2214 89.1445C66.1314 89.3798 67.9877 89.9375 69.7111 90.794C70.3754 91.2704 70.9477 91.8634 71.4001 92.5443C71.1754 93.1252 71.0452 93.2797 70.5869 94.6189C70.089 96.1126 69.8349 97.1199 69.3268 98.5089C68.3246 101.18 67.7629 101.789 68.0182 102.504C68.0851 102.663 68.202 102.797 68.3514 102.885C68.5008 102.973 68.6746 103.009 68.8468 102.99C69.5094 102.99 69.6204 102.201 70.4528 100.162C70.9565 99.1443 71.3891 98.0928 71.7474 97.0152C72.0355 95.8549 72.4255 94.7224 72.913 93.6307C73.108 93.1076 73.3401 92.5991 73.6075 92.109C74.9953 92.4304 76.3222 92.9735 77.537 93.7176C79.0627 94.7172 78.9988 95.1959 78.9988 96.0896C79.0179 96.795 78.9279 97.4991 78.732 98.177C77.9252 99.2685 76.1953 99.8749 74.745 100.767C74.1194 101.158 74.496 100.961 73.7147 101.441C72.6934 102.063 70.495 103.303 70.8639 104.434C70.9076 104.579 70.9851 104.711 71.0901 104.82C71.195 104.93 71.3244 105.012 71.4676 105.061C71.6107 105.111 71.7635 105.125 71.9134 105.104C72.0633 105.082 72.2059 105.026 72.3295 104.938C72.4967 104.79 72.6718 104.652 72.8542 104.523C73.5109 104.192 74.1269 103.786 74.6901 103.313C75.226 102.927 75.8043 102.604 76.4136 102.349C78.2954 101.346 81.6632 98.98 83.2667 100.089C84.2379 100.869 84.9563 101.919 85.3311 103.106C85.8099 105.975 79.5414 107.41 76.6766 107.979C75.5978 108.183 75.7153 108.138 75.5276 108.245C75.4289 108.307 75.348 108.394 75.293 108.497C75.2379 108.6 75.2105 108.715 75.2135 108.832C75.216 109.002 75.2814 109.166 75.3971 109.291C75.5129 109.416 75.6708 109.493 75.8404 109.509C78.0668 109.176 80.3248 109.108 82.5671 109.307C84.0774 109.45 85.2877 109.69 85.4894 111.187C85.5429 111.845 85.4864 112.507 85.3222 113.146C85.123 113.861 85.0592 113.395 85.3017 114.158L85.8188 113.994C86.3296 112.929 86.4961 111.733 86.295 110.57C85.8328 108.736 84.057 108.363 82.1726 108.154C87.6623 106.276 88.3287 103.101 85.3886 99.663C84.8862 98.9272 84.151 98.3819 83.3011 98.1146C82.4513 97.8474 81.5362 97.8738 80.7032 98.1897ZM69.5272 102.214V102.235V102.211V102.214ZM69.5272 102.23V102.216V102.23Z" fill="#212121"/>
<path fill-rule="evenodd" clip-rule="evenodd" d="M121.963 32.0673C116.437 40.1224 111.414 48.5112 106.923 57.1857L107.073 57.7041L107.583 57.5483C109.243 54.7703 122.023 35.1735 123.257 33.4946C124.844 34.2533 126.31 35.2428 127.607 36.431C126.935 39.0749 118.476 54.2417 116.569 57.3811C116.289 57.8419 116.332 57.653 116.459 58.2747C117.074 58.1471 116.92 58.2671 117.236 57.8215C120.801 52.7761 126.61 43.6007 128.877 38.3192C129.252 37.643 129.459 36.8861 129.478 36.1131C129.293 35.1671 128.143 34.3104 127.295 33.7066C126.143 32.8955 124.921 32.1868 123.645 31.5886C123.504 31.5049 123.348 31.4509 123.186 31.4297C123.023 31.4086 122.858 31.4208 122.701 31.4656C122.543 31.5104 122.397 31.5869 122.27 31.6904C122.143 31.7938 122.038 31.9221 121.963 32.0673Z" fill="#212121"/>
<path fill-rule="evenodd" clip-rule="evenodd" d="M139.504 86.295C138.283 86.295 130.763 86.4507 129.663 87.001C129.357 87.1859 129.099 87.4418 128.913 87.7471C128.726 88.0524 128.615 88.3981 128.59 88.7551C128.502 89.2747 128.328 90.6165 128.283 91.5727C128.274 94.2179 128.581 96.8546 129.199 99.4268C129.419 100.386 129.827 101.292 130.399 102.092L130.926 102.191C131.092 101.265 131.054 102.057 130.56 100.659C129.815 97.247 129.69 93.7292 130.189 90.2731C130.244 89.7329 130.351 89.1993 130.509 88.6798C132.022 88.4733 133.545 88.3506 135.071 88.3121C138.666 88.1972 141.424 87.9866 143.674 88.7104C144.408 88.9543 144.336 89.1917 144.44 90.4774C144.541 92.2456 144.523 94.0187 144.383 95.7845C144.325 97.4709 144.383 99.9974 143.381 101.326L143.426 101.866L143.966 101.822C145.474 100.246 145.641 96.77 145.998 93.895C146.189 92.491 146.236 91.0712 146.139 89.6577C145.979 87.4121 144.862 87.0929 142.807 86.6078C141.721 86.3784 140.613 86.2734 139.504 86.295ZM130.532 88.6338L130.54 88.6249L130.532 88.6338ZM130.532 88.6338L130.548 88.6134L130.532 88.6338ZM130.532 88.6338L130.544 88.6211L130.532 88.6338ZM130.532 88.6338L130.544 88.6198L130.532 88.6338Z" fill="#212121"/>
<path d="M139.727 87.9126C139.958 87.9124 140.181 87.8285 140.355 87.6764C140.529 87.5242 140.641 87.3142 140.672 87.0853C141.139 83.5949 141.201 80.1057 141.504 76.6472C141.516 76.5224 141.502 76.3966 141.464 76.2771C141.427 76.1575 141.366 76.0466 141.286 75.9505C141.205 75.8544 141.107 75.7751 140.996 75.7171C140.884 75.6591 140.763 75.6236 140.638 75.6125C140.513 75.6014 140.388 75.6151 140.268 75.6526C140.149 75.6902 140.038 75.7509 139.941 75.8313C139.845 75.9117 139.766 76.0103 139.708 76.1214C139.65 76.2325 139.615 76.3539 139.603 76.4787C139.302 79.904 139.236 83.4315 138.781 86.8312C138.763 86.9661 138.774 87.1032 138.814 87.2334C138.853 87.3637 138.92 87.484 139.009 87.5864C139.099 87.6888 139.209 87.7708 139.333 87.8271C139.457 87.8833 139.591 87.9125 139.727 87.9126Z" fill="#212121"/>
<path d="M135.207 87.8998C135.435 87.8993 135.655 87.8171 135.828 87.6682C136.001 87.5193 136.115 87.3134 136.149 87.0878C136.317 84.7798 136.308 82.4623 136.123 80.1555C136.123 79.9026 136.023 79.66 135.844 79.4812C135.665 79.3023 135.423 79.2018 135.17 79.2018C134.917 79.2018 134.674 79.3023 134.495 79.4812C134.316 79.66 134.216 79.9026 134.216 80.1555C134.387 82.3676 134.403 84.5889 134.262 86.8031C134.242 86.939 134.251 87.0777 134.289 87.2097C134.327 87.3417 134.393 87.464 134.483 87.5681C134.572 87.6722 134.684 87.7557 134.809 87.813C134.933 87.8702 135.069 87.8998 135.207 87.8998Z" fill="#212121"/>
<path fill-rule="evenodd" clip-rule="evenodd" d="M337.941 325.66C339.601 332.204 345.467 368.987 344.535 374.282C344.458 374.609 344.291 374.909 344.051 375.145C343.811 375.382 343.51 375.546 343.181 375.619C342.853 375.691 342.51 375.67 342.193 375.556C341.876 375.443 341.598 375.242 341.39 374.977C339.884 373.26 329.172 331.006 328.592 326.938" fill="white"/>
<path fill-rule="evenodd" clip-rule="evenodd" d="M337.57 325.756C338.825 331.283 341.697 352.766 342.398 358.413C342.536 359.52 344.364 373.903 343.431 374.487L343.414 374.506H343.407L343.39 374.526L343.372 374.536L343.363 374.545H343.354L343.345 374.554H343.335L343.326 374.564L343.306 374.573L343.296 374.583L343.241 374.606L343.229 374.616L343.181 374.635H343.168L343.114 374.654H343.102L343.074 374.663H343.059H343.045H343.03H343.016H343.001H342.987H342.941H342.925H342.846H342.83H342.785H342.768H342.736L342.703 374.653H342.687L342.655 374.644H342.638L342.511 374.606L342.495 374.596L342.463 374.587L342.448 374.577H342.433L342.419 374.566H342.403L342.389 374.557H342.374L342.332 374.529H342.318C342.267 374.497 342.219 374.46 342.175 374.42L342.163 374.406L342.151 374.395L342.139 374.381L342.128 374.372C340.447 371.011 329.474 329.584 328.986 326.976C328.961 326.848 329.035 326.931 328.539 326.556C328.17 327.056 328.214 326.956 328.232 327.096C328.863 331.82 336.726 365.295 339.882 373.905C340.058 374.764 340.532 375.533 341.221 376.075C341.622 376.351 342.087 376.521 342.571 376.571C343.055 376.62 343.544 376.547 343.993 376.358C345.603 375.643 345.606 374.003 345.578 372.236C345.508 368.417 344.701 361.964 344.192 358.17C343.104 350.111 340.161 332.482 338.365 325.743C338.305 325.499 338.397 325.606 337.855 325.276L337.57 325.756Z" fill="#212121"/>
<path fill-rule="evenodd" clip-rule="evenodd" d="M265.291 324.669C263.632 331.212 257.545 368.978 258.477 374.273C258.553 374.6 258.721 374.9 258.961 375.136C259.2 375.373 259.502 375.537 259.831 375.61C260.159 375.682 260.502 375.661 260.819 375.547C261.136 375.434 261.414 375.233 261.622 374.968C263.127 373.251 274.014 330.923 274.593 326.853" fill="white"/>
<path fill-rule="evenodd" clip-rule="evenodd" d="M264.924 324.578C262.781 332.259 257.071 365.466 257.456 373.557C257.422 374.031 257.501 374.506 257.688 374.943C257.875 375.381 258.163 375.767 258.529 376.07C259.095 376.47 259.788 376.649 260.477 376.576C261.166 376.502 261.805 376.18 262.275 375.671C264.336 373.315 273.553 335.431 274.897 327.413C275.002 326.785 275.025 326.985 274.653 326.474C274.121 326.875 274.257 326.663 274.13 327.27C273.503 330.175 262.322 371.98 260.889 374.366C256.932 377.672 264.556 329.72 265.626 324.947C265.677 324.711 265.725 324.858 265.388 324.294L264.924 324.578Z" fill="#212121"/>
<path fill-rule="evenodd" clip-rule="evenodd" d="M321.337 200.042C325.121 202.003 329.656 212.267 331.447 215.897C339.915 233.063 347.193 263.369 326.093 269.389C291.9 279.152 234.778 225.675 232.466 220.925C231.045 218.006 245.047 193.349 246.296 192.732C247.857 191.966 251.312 193.084 252.943 193.48C270.624 197.768 288.892 203.893 302.773 216.205C308.683 221.447 312.348 228.066 316.249 234.682" fill="white"/>
<path fill-rule="evenodd" clip-rule="evenodd" d="M247.646 191.587C245.698 191.587 245.366 192.18 243.788 194.651C240.671 199.659 232.745 213.611 231.543 219.315C231.389 219.752 231.349 220.22 231.425 220.677C231.5 221.134 231.69 221.564 231.977 221.928C236.75 228.651 275.244 263.327 305.684 270.058C313.514 271.945 320.791 271.718 324.978 270.569C344.36 266.14 342.761 243.689 335.869 224.79C334.424 220.948 332.756 217.193 330.874 213.544C329.16 210.019 325.011 201.478 321.516 199.697L320.997 199.86L321.158 200.37C324.462 202.228 328.255 210.346 329.967 213.973C332.993 219.988 335.378 226.304 337.082 232.818C341.231 249.233 340.229 265.903 323.588 269.091C297.114 274.099 257.749 244.639 238.349 226.021C236.531 224.322 234.849 222.481 233.321 220.517C232.545 217.921 244.392 196.24 246.769 193.492C246.967 193.492 247.225 193.059 250.227 193.692C250.417 193.733 256.092 195.124 259.373 195.99C272.785 199.537 284.87 204.121 295.617 211.362L295.627 211.373C306.323 218.707 309.168 223.616 315.926 234.863L316.446 235.002L316.574 234.482C309.897 222.947 306.871 217.679 295.774 209.985C282.597 200.849 266.444 195.806 250.848 192.032C249.802 191.758 248.728 191.609 247.646 191.587Z" fill="#212121"/>
<path fill-rule="evenodd" clip-rule="evenodd" d="M242.895 197.654C242.013 196.918 241.419 195.874 240.584 195.082C238.746 193.337 236.865 191.582 234.926 189.95C234.198 189.34 232.724 187.799 231.623 188.214C229.366 189.071 232.24 193.23 233.759 195.096C233.816 195.168 234.014 195.321 233.925 195.307C233.624 195.273 233.159 194.767 232.904 194.601C228.777 191.834 221.379 189.111 219.149 188.915C218.713 188.83 218.261 188.912 217.882 189.145C217.272 189.64 217.858 190.923 218.236 191.371C219.879 193.006 221.74 194.405 223.766 195.53C224.624 196.074 225.51 196.572 226.419 197.024C226.547 197.091 226.894 197.324 226.802 197.223C226.424 196.938 226.006 196.71 225.561 196.547C223.525 195.559 221.299 195.022 219.036 194.973C217.715 194.915 215.972 195.073 216.832 196.805C217.817 198.774 220.377 199.861 222.211 200.83C222.73 201.102 224.087 201.828 224.936 202.155C225.064 202.204 225.348 202.427 225.301 202.303C225.09 201.749 222.09 201.327 221.499 201.245C220.71 201.135 218.133 200.596 217.866 201.913C217.591 203.276 219.621 204.536 220.533 205.151C220.806 205.337 221.078 205.523 221.365 205.685C225.56 208.089 229.383 211.509 234.039 213.026" fill="white"/>
<path fill-rule="evenodd" clip-rule="evenodd" d="M218.624 187.971C216.733 188.123 216.261 189.574 217.06 191.238C217.465 191.973 218.013 192.619 218.67 193.141C219.81 194.138 219.996 194.089 219.73 194.066C218.619 193.882 217.48 194.037 216.459 194.51C216.227 194.658 216.034 194.859 215.895 195.096C215.757 195.333 215.677 195.6 215.662 195.874C215.589 197.481 217.295 199.099 218.697 199.971C219.298 200.372 219.293 200.186 218.697 200.319C218.402 200.352 218.119 200.454 217.872 200.618C217.624 200.782 217.42 201.003 217.275 201.262C217.131 201.521 217.05 201.811 217.04 202.108C217.031 202.404 217.092 202.699 217.22 202.967C217.576 203.721 218.128 204.366 218.817 204.836C219.49 205.331 220.595 206.043 220.96 206.248C226.833 209.643 228.867 211.67 233.727 213.331C233.961 213.41 233.847 213.419 234.39 213.145C234.107 212.593 234.203 212.69 233.973 212.606C229.953 211.17 226.46 208.109 222.677 205.699C221.623 205.03 218.433 203.189 218.619 202.08L218.632 202.036L218.624 202.061L218.636 202.031L218.628 202.056C218.63 202.044 218.635 202.033 218.641 202.022L218.629 202.047C218.636 202.039 218.641 202.031 218.644 202.022L218.632 202.047L218.648 202.017L218.634 202.041C218.643 202.027 218.634 202.031 218.666 202.008L218.648 202.022L218.661 202.012L218.685 201.993H218.694C219.381 201.63 222.158 202.221 223.012 202.364C223.432 202.458 223.835 202.616 224.207 202.832C224.996 203.153 224.804 203.178 225.207 203.227C226.177 203.27 226.703 201.987 225.372 201.249C225.075 201.109 224.763 201.002 224.442 200.929C223.981 200.809 220.258 198.769 220.124 198.691C219.471 198.318 218.868 197.863 218.33 197.337C217.969 196.978 217.694 196.542 217.527 196.06H217.535H217.544H217.554H217.564C218.604 195.644 222.319 196.215 223.948 196.899C225.842 197.594 226.435 198.565 227.327 198.054C227.47 197.959 227.583 197.826 227.656 197.671C227.728 197.515 227.757 197.343 227.738 197.172C227.628 196.524 227.077 196.247 226.484 195.956C225.454 195.5 224.47 194.944 223.548 194.296C222.25 193.466 218.684 191.37 218.536 189.865C221.176 189.865 230.556 193.762 232.466 195.354C233.029 195.855 233.656 196.376 234.331 196.046C234.494 195.956 234.62 195.811 234.686 195.636L234.724 195.516C234.758 195.366 234.752 195.208 234.705 195.061C234.658 194.913 234.572 194.781 234.457 194.678C233.602 193.836 230.805 189.945 231.638 189.016C231.697 188.959 231.768 188.915 231.845 188.888C232.547 188.888 234.284 189.949 240.321 195.507C241.059 196.188 241.774 197.318 242.627 197.974L243.167 197.931L243.121 197.387C241.512 195.996 243.463 196.83 235.016 189.245C234.284 188.43 233.342 187.832 232.292 187.518C231.939 187.456 231.575 187.5 231.248 187.646C230.099 188.156 229.911 189.248 230.182 190.475C230.948 193.485 232.565 192.742 226.03 190.16C224.203 189.408 222.336 188.762 220.436 188.223C219.843 188.07 219.236 187.986 218.624 187.971ZM224.563 202.967H224.569H224.558H224.563ZM224.622 202.839L224.632 202.848L224.621 202.839H224.622ZM224.622 202.839L224.635 202.848L224.618 202.839H224.622ZM224.622 202.839H224.614H224.622ZM218.656 202.038L218.669 202.024L218.656 202.038ZM218.656 202.038L218.671 202.018L218.656 202.038ZM218.656 202.038L218.671 202.022L218.656 202.038ZM233.318 195.823L233.327 195.832L233.313 195.813L233.318 195.823ZM234.39 194.582V194.573V194.582Z" fill="#212121"/>
<path fill-rule="evenodd" clip-rule="evenodd" d="M293.063 277.568L292.424 277.902C292.057 279.041 292.137 277.74 293.032 285.472C293.135 286.346 293.019 286.086 293.493 286.593C293.958 286.095 293.858 286.337 293.946 285.461C294.134 283.504 294.168 282.557 294.18 281.351C294.18 280.276 294.115 278.564 294.102 278.436L293.767 277.798L293.077 277.573L293.063 277.568Z" fill="#212121"/>
<path fill-rule="evenodd" clip-rule="evenodd" d="M320.611 287.208L320.002 287.604C319.681 289.044 319.916 287.51 320.239 290.989C320.797 297.5 320.42 296.512 321.056 297.195L321.439 296.794C321.619 294.965 322.263 290.659 321.725 287.97L321.331 287.365L320.623 287.208H320.611Z" fill="#212121"/>
<path fill-rule="evenodd" clip-rule="evenodd" d="M300.384 302.608L299.746 302.952L299.534 303.649C299.917 307.439 299.752 308.992 300.207 311.766C300.296 312.284 300.207 312.107 300.688 312.532C301.184 311.92 300.968 312.471 301.095 310.658C301.389 308.27 301.501 305.864 301.432 303.46L301.087 302.822L300.393 302.611L300.384 302.608Z" fill="#212121"/>
</svg>
