<svg width="16" height="16" viewBox="0 0 16 16" fill="none" xmlns="http://www.w3.org/2000/svg">
<path d="M8 0C3.58073 0 0 3.58073 0 8C0 12.4193 3.58073 16 8 16C12.4193 16 16 12.4193 16 8C16 3.58073 12.4193 0 8 0ZM12.4714 6.47135L7.43229 11.5104C7.30729 11.6354 7.13542 11.7057 6.96094 11.7057C6.78385 11.7057 6.61458 11.6354 6.48958 11.5104L4.1875 9.20833C3.92708 8.94792 3.92708 8.52604 4.1875 8.26563C4.44792 8.00521 4.86979 8.00521 5.13021 8.26563L6.96094 10.0964L11.5286 5.52865C11.7891 5.26823 12.2109 5.26823 12.4714 5.52865C12.7318 5.78906 12.7318 6.21094 12.4714 6.47135Z" fill="#DDAFAF"/>
</svg>