<svg width="30" height="30" viewBox="0 0 30 30" fill="none" xmlns="http://www.w3.org/2000/svg">
<path d="M25.362 8.32003C24.953 6.86103 24.144 5.70603 22.957 4.88903C21.459 3.85703 19.736 3.49103 18.248 3.26903C16.189 2.96203 14.324 2.91903 12.548 3.13603C10.882 3.34003 9.62797 3.66603 8.48297 4.19203C6.23997 5.22203 4.89397 6.89003 4.48297 9.14803C4.28297 10.244 4.14897 11.235 4.07097 12.18C3.89097 14.365 4.05397 16.299 4.56997 18.091C5.07197 19.838 5.94997 21.087 7.25397 21.907C7.58697 22.116 8.01097 22.267 8.42297 22.413C8.62897 22.486 8.82697 22.558 8.99997 22.634V26.164C8.99997 26.626 9.37397 27 9.83597 27C10.054 27 10.263 26.915 10.419 26.763L13.676 23.595C13.818 23.433 13.818 23.433 13.964 23.43C15.077 23.408 16.214 23.365 17.344 23.304C18.713 23.229 20.299 23.097 21.793 22.474C23.16 21.903 24.158 20.997 24.757 19.782C25.382 18.514 25.754 17.14 25.893 15.583C26.137 12.845 25.963 10.469 25.362 8.32003ZM19.691 18.74C19.364 19.275 18.874 19.645 18.298 19.885C17.877 20.061 17.447 20.024 17.032 19.848C13.548 18.374 10.817 16.05 9.01097 12.711C8.63897 12.023 8.37997 11.274 8.08297 10.547C8.02197 10.397 8.02697 10.222 7.99997 10.059C8.02597 8.88403 8.92697 8.22303 9.83697 8.02303C10.185 7.94603 10.493 8.06903 10.751 8.31603C11.465 8.99803 12.03 9.78803 12.455 10.674C12.641 11.063 12.557 11.407 12.24 11.696C12.175 11.756 12.106 11.812 12.035 11.865C11.312 12.409 11.206 12.82 11.591 13.639C12.247 15.032 13.336 15.967 14.745 16.547C15.116 16.7 15.466 16.624 15.75 16.323C15.788 16.283 15.831 16.244 15.859 16.198C16.415 15.271 17.22 15.363 17.964 15.892C18.453 16.239 18.927 16.605 19.411 16.959C20.145 17.5 20.139 18.008 19.691 18.74ZM15.511 9.14303C15.324 9.14303 15.136 9.15803 14.952 9.18903C14.64 9.24203 14.346 9.03103 14.294 8.71903C14.242 8.40803 14.452 8.11303 14.764 8.06103C15.009 8.02103 15.261 8.00003 15.511 8.00003C17.986 8.00003 20 10.014 20 12.489C20 12.74 19.979 12.992 19.938 13.237C19.891 13.516 19.649 13.714 19.375 13.714C19.344 13.714 19.312 13.712 19.28 13.706C18.969 13.653 18.759 13.359 18.811 13.048C18.842 12.866 18.857 12.678 18.857 12.49C18.857 10.644 17.356 9.14303 15.511 9.14303ZM18 12.857C18 13.172 17.744 13.428 17.429 13.428C17.114 13.428 16.858 13.172 16.858 12.857C16.858 11.912 16.089 11.143 15.144 11.143C14.829 11.143 14.573 10.887 14.573 10.572C14.573 10.257 14.829 10.001 15.144 10.001C16.718 10 18 11.282 18 12.857ZM21.846 13.554C21.786 13.82 21.551 13.999 21.289 13.999C21.247 13.999 21.204 13.994 21.162 13.985C20.854 13.915 20.661 13.609 20.731 13.302C20.814 12.937 20.856 12.56 20.856 12.182C20.856 9.40403 18.596 7.14303 15.817 7.14303C15.438 7.14303 15.062 7.18503 14.697 7.26803C14.391 7.33903 14.083 7.14503 14.014 6.83703C13.944 6.52903 14.137 6.22303 14.445 6.15403C14.893 6.05103 15.355 6.00003 15.819 6.00003C19.227 6.00003 22 8.77303 22 12.181C22 12.645 21.948 13.107 21.846 13.554Z" fill="#1F2229"/>
</svg>