<svg width="160" height="58" viewBox="0 0 160 58" fill="none" xmlns="http://www.w3.org/2000/svg">
<g clip-path="url(#clip0)">
<path d="M82.6049 19.2111L90.2171 18.7308C90.3907 19.9456 90.7091 20.8497 91.2301 21.4994C92.0695 22.5165 93.2272 23.025 94.7612 23.025C95.89 23.025 96.7873 22.7707 97.3951 22.234C97.9739 21.8102 98.3213 21.1322 98.3213 20.4259C98.3213 19.7479 98.0029 19.0981 97.453 18.6743C96.8741 18.1658 95.5137 17.6573 93.3719 17.2052C89.8698 16.4424 87.3517 15.4254 85.8755 14.1258C84.3994 12.911 83.5601 11.1312 83.6179 9.23835C83.6179 7.93879 84.0232 6.63922 84.7757 5.56567C85.644 4.35086 86.8307 3.39032 88.2489 2.85354C89.7829 2.20376 91.9247 1.86475 94.6165 1.86475C97.9161 1.86475 100.434 2.45802 102.171 3.67283C103.907 4.85939 104.949 6.78048 105.268 9.40786L97.7424 9.83163C97.5398 8.70157 97.1346 7.88228 96.4689 7.34551C95.8032 6.80873 94.9349 6.55447 93.8061 6.55447C92.8799 6.55447 92.1852 6.75223 91.7221 7.1195C91.288 7.45851 90.9986 7.96704 91.0275 8.53206C91.0275 8.95583 91.259 9.35135 91.6064 9.60562C91.9826 9.94463 92.8799 10.2554 94.2981 10.5379C97.8003 11.2724 100.289 12.007 101.823 12.7698C103.357 13.5326 104.457 14.4648 105.123 15.5667C105.818 16.6967 106.165 17.9963 106.136 19.3241C106.136 20.9062 105.673 22.4882 104.747 23.816C103.792 25.2004 102.46 26.2739 100.897 26.9237C99.2475 27.63 97.1635 27.9972 94.6744 27.9972C90.275 27.9972 87.2359 27.178 85.5282 25.5111C83.8205 23.8443 82.8075 21.7537 82.6049 19.2111ZM1.82344 27.5735V2.31677H15.1664C17.6266 2.31677 19.5369 2.51453 20.8394 2.9383C22.1129 3.33382 23.2417 4.15311 23.9942 5.25491C24.8336 6.46972 25.2388 7.88228 25.2098 9.35135C25.2967 11.8375 23.9942 14.2106 21.7656 15.4536C20.8972 15.9339 19.9421 16.2729 18.958 16.4424C19.6816 16.6402 20.4052 16.9792 21.042 17.3747C21.534 17.7703 21.9392 18.2223 22.3155 18.7026C22.7496 19.1828 23.1259 19.7196 23.4443 20.2846L27.3227 27.6017H18.2344L13.9508 19.8326C13.4009 18.8438 12.9378 18.194 12.5036 17.8833C11.9247 17.4877 11.2301 17.29 10.5355 17.29H9.84081V27.5452H1.82344V27.5735ZM9.84081 12.5438H13.2272C13.9508 12.4873 14.6454 12.3742 15.3401 12.2047C15.8611 12.12 16.3242 11.8375 16.6425 11.4137C17.424 10.3967 17.3082 8.95583 16.3531 8.08004C15.8321 7.65627 14.8191 7.43026 13.3719 7.43026H9.84081V12.5438ZM0 49.214L7.61216 48.7337C7.78582 49.9485 8.1042 50.8526 8.62518 51.5024C9.4356 52.5194 10.6223 53.0562 12.1563 53.0562C13.2851 53.0562 14.1823 52.8019 14.7902 52.2652C15.369 51.8131 15.7164 51.1634 15.7164 50.4571C15.7164 49.779 15.398 49.1292 14.848 48.7055C14.2692 48.197 12.9088 47.6884 10.7381 47.2364C7.23589 46.4736 4.7178 45.4566 3.24168 44.157C1.76556 42.9422 0.926194 41.1624 0.984081 39.2695C0.984081 37.97 1.38929 36.6704 2.14182 35.5969C3.01013 34.382 4.19682 33.4215 5.61505 32.8847C7.14906 32.2349 9.29088 31.8959 11.9826 31.8959C15.2822 31.8959 17.8003 32.4892 19.5369 33.704C21.2735 34.9188 22.2865 36.8117 22.6049 39.439L15.0796 39.8628C14.877 38.7328 14.4718 37.9135 13.8061 37.3767C13.1693 36.8399 12.2721 36.5857 11.1433 36.6139C10.2171 36.6139 9.52243 36.8117 9.05933 37.2072C8.59624 37.5462 8.33574 38.0547 8.36469 38.6198C8.36469 39.0435 8.59624 39.439 8.94356 39.6933C9.31983 40.0323 10.2171 40.3431 11.6353 40.6256C15.1375 41.3601 17.6266 42.0947 19.1606 42.8575C20.6946 43.6202 21.7945 44.5525 22.4602 45.6543C23.1548 46.7844 23.5022 48.084 23.5022 49.3835C23.5022 50.9656 23.0101 52.5194 22.1129 53.8472C21.1577 55.2315 19.8263 56.3051 18.2634 56.9549C16.6136 57.6612 14.5297 58.0284 12.0405 58.0284C7.6411 58.0284 4.60203 57.2091 2.89436 55.5423C1.18669 53.8472 0.231548 51.7566 0 49.214H0Z" fill="black"/>
<path d="M38.4949 47.236L45.4993 49.2983C45.123 51.0217 44.3415 52.6602 43.2706 54.101C42.2865 55.3724 40.9841 56.3612 39.508 57.0109C38.0029 57.6607 36.0926 57.9997 33.7771 57.9997C30.9696 57.9997 28.6541 57.6042 26.8886 56.8132C25.0941 56.0221 23.5601 54.6096 22.2576 52.6037C20.9551 50.5979 20.3184 48.027 20.3184 44.8911C20.3184 40.7099 21.4472 37.4893 23.7337 35.2574C26.0203 33.0256 29.233 31.8955 33.4009 31.8955C36.6715 31.8955 39.2185 32.5453 41.0998 33.8166C42.9522 35.1162 44.3415 37.0938 45.2677 39.7494L38.2055 41.2749C38.0318 40.6817 37.7713 40.0884 37.424 39.5799C36.9899 38.9866 36.4399 38.5346 35.7742 38.1956C35.1085 37.8565 34.356 37.7153 33.6035 37.7153C31.78 37.7153 30.3907 38.4216 29.4356 39.8624C28.712 40.9077 28.3357 42.5745 28.3357 44.8346C28.3357 47.6315 28.7699 49.5526 29.6382 50.5979C30.5065 51.6432 31.7221 52.1517 33.314 52.1517C34.848 52.1517 36.0058 51.7279 36.7873 50.9086C37.5687 50.0329 38.1476 48.818 38.4949 47.236ZM54.848 32.3193H62.8365V41.1619H71.5774V32.3193H79.6237V57.576H71.5774V47.349H62.8365V57.576H54.848V32.3193Z" fill="black"/>
<path d="M78.5239 44.9485C78.5239 40.8238 79.7106 37.6032 82.055 35.3148C84.3994 33.0265 87.699 31.8682 91.8958 31.8682C96.2084 31.8682 99.508 32.9982 101.852 35.2583C104.197 37.5184 105.355 40.6826 105.355 44.7508C105.355 47.7172 104.834 50.1185 103.821 52.0114C102.836 53.876 101.302 55.4015 99.4211 56.4186C97.4819 57.4639 95.0796 58.0007 92.2142 58.0007C89.2909 58.0007 86.8886 57.5486 84.9783 56.6446C83.0101 55.684 81.3893 54.1867 80.3184 52.3504C79.1317 50.3728 78.5239 47.9149 78.5239 44.9485ZM86.5123 44.9768C86.5123 47.5194 87.0043 49.3557 87.9595 50.4858C88.9146 51.5876 90.246 52.1526 91.9247 52.1526C93.6324 52.1526 94.9638 51.6159 95.919 50.5141C96.8741 49.4122 97.3372 47.4629 97.3372 44.6378C97.3372 42.2647 96.8452 40.5131 95.8611 39.4395C94.877 38.3377 93.5456 37.8009 91.8669 37.8009C90.3907 37.7444 88.9725 38.366 87.9884 39.4678C87.0043 40.5696 86.5123 42.4059 86.5123 44.9768ZM113.546 44.9485C113.546 40.8238 114.732 37.6032 117.077 35.3148C119.421 33.0265 122.721 31.8682 126.918 31.8682C131.23 31.8682 134.559 32.9982 136.874 35.2583C139.19 37.5184 140.376 40.6826 140.376 44.7508C140.376 47.7172 139.855 50.1185 138.842 52.0114C137.858 53.876 136.324 55.4015 134.443 56.4186C132.504 57.4639 130.101 58.0007 127.236 58.0007C124.313 58.0007 121.91 57.5486 120 56.6446C118.032 55.684 116.411 54.1867 115.34 52.3504C114.153 50.3728 113.546 47.9149 113.546 44.9485ZM121.534 44.9768C121.534 47.5194 122.026 49.3557 122.981 50.4858C123.936 51.5876 125.268 52.1526 126.946 52.1526C128.654 52.1526 129.986 51.6159 130.941 50.5141C131.896 49.4122 132.359 47.4629 132.359 44.6378C132.359 42.2647 131.867 40.5131 130.883 39.4395C129.899 38.3377 128.567 37.8009 126.889 37.8009C125.412 37.7444 123.965 38.366 123.01 39.4678C122.026 40.5696 121.534 42.4059 121.534 44.9768Z" fill="black"/>
<path d="M139.537 32.3198H147.525V51.3612H160V57.5765H139.508V32.3198H139.537Z" fill="black"/>
<path d="M130.732 30.8616C138.775 24.9458 141.255 14.9175 136.271 8.46285C131.288 2.00817 120.728 1.57134 112.686 7.48717C104.643 13.403 102.163 23.4313 107.146 29.886C112.13 36.3406 122.689 36.7775 130.732 30.8616Z" fill="black"/>
<path d="M135.869 8.76009C140.628 14.9251 138.327 24.6558 130.426 30.4668C122.526 36.2779 112.309 35.7557 107.549 29.5907C102.789 23.4257 105.091 13.695 112.991 7.88392C120.892 2.07283 131.109 2.59511 135.869 8.76009Z" fill="white" stroke="black"/>
<path d="M113.575 17.3181L116.469 15.3405L120.029 20.2845C120.637 21.0756 121.1 21.9231 121.447 22.8554C121.65 23.5617 121.592 24.3245 121.302 25.0025C120.926 25.85 120.318 26.5563 119.508 27.0649C118.553 27.7146 117.742 28.0819 117.048 28.1949C116.382 28.3079 115.687 28.1949 115.051 27.9124C114.356 27.5734 113.748 27.0931 113.285 26.4716L115.774 24.2115C115.977 24.5222 116.237 24.8047 116.527 25.0308C116.729 25.172 116.961 25.2568 117.221 25.2568C117.424 25.2568 117.627 25.172 117.771 25.059C118.061 24.8895 118.263 24.5505 118.234 24.2115C118.148 23.7312 117.945 23.2509 117.627 22.8837L113.575 17.3181ZM122.258 20.454L124.891 18.4199C125.181 18.759 125.557 19.0132 125.962 19.1545C126.541 19.324 127.149 19.211 127.641 18.8437C127.988 18.6177 128.278 18.3069 128.394 17.9114C128.567 17.4029 128.278 16.8379 127.757 16.6684C127.67 16.6401 127.583 16.6119 127.496 16.6119C127.149 16.5836 126.541 16.7249 125.644 17.0921C124.168 17.6854 123.01 17.9114 122.142 17.8267C121.302 17.7419 120.521 17.3181 120.058 16.6119C119.711 16.1316 119.537 15.5666 119.508 15.0015C119.508 14.3518 119.682 13.702 120.058 13.1652C120.608 12.4024 121.274 11.7526 122.084 11.2441C123.3 10.4248 124.37 10.0293 125.297 10.0293C126.223 10.0293 127.091 10.4531 127.902 11.3289L125.297 13.3347C124.776 12.6849 123.792 12.5437 123.126 13.0522L123.039 13.1369C122.75 13.3065 122.547 13.5607 122.431 13.8715C122.344 14.0975 122.402 14.3518 122.547 14.5495C122.663 14.6908 122.836 14.8038 123.039 14.8038C123.271 14.832 123.676 14.719 124.255 14.4648C125.702 13.8715 126.802 13.5325 127.554 13.4195C128.191 13.3065 128.857 13.363 129.465 13.6172C130.014 13.8432 130.478 14.2387 130.796 14.719C131.201 15.284 131.433 15.9621 131.462 16.6684C131.491 17.4029 131.288 18.1092 130.883 18.7307C130.362 19.4935 129.696 20.1433 128.915 20.6518C127.323 21.7254 126.02 22.1774 124.978 22.0079C123.849 21.8384 122.923 21.2733 122.258 20.454Z" fill="black"/>
</g>
<defs>
<clipPath id="clip0">
<rect width="160" height="58" fill="white"/>
</clipPath>
</defs>
</svg>