<svg width="30" height="30" viewBox="0 0 30 30" fill="none" xmlns="http://www.w3.org/2000/svg">
<path d="M25.9698 16.4575C26.0335 15.9794 26.0769 15.4948 26.0769 15C26.0769 8.88277 21.1172 3.92308 15 3.92308C14.5052 3.92308 14.0206 3.96646 13.5425 4.03015C12.4883 3.38123 11.2514 3 9.92308 3C6.09969 3 3 6.09969 3 9.92308C3 11.2514 3.38123 12.4883 4.03015 13.5425C3.96646 14.0206 3.92308 14.5052 3.92308 15C3.92308 21.1172 8.88277 26.0769 15 26.0769C15.4948 26.0769 15.9794 26.0335 16.4575 25.9698C17.5117 26.6188 18.7486 27 20.0769 27C23.9003 27 27 23.9003 27 20.0769C27 18.7486 26.6188 17.5117 25.9698 16.4575ZM15.1375 21.4615C11.5412 21.4615 9.47631 19.5766 9.47631 17.7268C9.47631 16.7834 10.464 16.4815 10.8591 16.4815C11.772 16.4815 12.0757 17.2265 12.2418 17.568C13.1695 19.4751 14.0612 19.224 14.94 19.3071C15.7163 19.38 17.5385 19.0375 17.5385 17.7065C17.5385 17.5791 17.7388 16.7132 16.1658 16.284C15.1606 16.0089 13.3883 15.672 11.9298 15.1108C10.5582 14.5828 9.75323 13.4954 9.75323 12.0942C9.75323 11.3935 10.1123 8.53846 14.9695 8.53846C18.2114 8.53846 19.9394 10.1991 19.9394 11.6603C19.9394 11.9963 19.8111 12.2926 19.5535 12.5594C19.296 12.8262 18.5705 13.2166 17.7757 12.708C17.5754 12.5797 17.4102 12.3129 17.2126 11.9668C16.9745 11.532 16.5849 10.692 14.7914 10.692C13.0514 10.692 12.5686 11.5218 12.5686 11.868C12.5686 13.0311 14.7886 13.2757 15.3849 13.4298C17.5615 13.9911 20.5228 14.5071 20.5228 17.4415C20.5228 20.8108 17.0169 21.4615 15.1375 21.4615Z" fill="#1F2229"/>
</svg>