<svg width="30" height="30" viewBox="0 0 30 30" fill="none" xmlns="http://www.w3.org/2000/svg">
<path d="M15 5C11.136 5 6.12079 5.96815 6.12079 5.96815L6.10817 5.98257C4.3483 6.26403 3 7.77627 3 9.61538V15.1538V15.1556V20.6923V20.6941C3.00172 21.5725 3.3165 22.4214 3.88781 23.0886C4.45913 23.7557 5.24957 24.1973 6.11719 24.3341L6.12079 24.3395C6.12079 24.3395 11.136 25.3095 15 25.3095C18.864 25.3095 23.8792 24.3395 23.8792 24.3395L23.881 24.3377C24.7496 24.2012 25.5409 23.7592 26.1127 23.0913C26.6844 22.4234 26.9991 21.5733 27 20.6941V20.6923V15.1556V15.1538V9.61538C26.9987 8.73673 26.6841 7.88734 26.1128 7.21982C25.5414 6.5523 24.7507 6.11042 23.8828 5.97356L23.8792 5.96815C23.8792 5.96815 18.864 5 15 5ZM12.2308 10.9063L19.6154 15.1538L12.2308 19.4014V10.9063Z" fill="#1F2229"/>
</svg>