<svg width="291" height="291" viewBox="0 0 291 291" fill="none" xmlns="http://www.w3.org/2000/svg">
<path fill-rule="evenodd" clip-rule="evenodd" d="M226.731 48.6457C230.915 52.5392 239.974 259.564 226.203 266.508C196.706 281.374 113.021 238.028 111.802 231.146C110.505 223.825 99.0089 48.5855 111.254 25.6722C111.732 24.7788 114.107 23.028 114.649 22.6206C125.269 14.6918 213.87 36.6798 226.731 48.6457Z" fill="#212121"/>
<path fill-rule="evenodd" clip-rule="evenodd" d="M114.309 22.1558C110.879 24.7147 110.706 25.1231 109.847 27.4132C100.07 54.258 108.021 202.852 110.923 230.056C110.913 230.716 111.055 231.369 111.338 231.965C116.015 240.59 191.736 278.816 223.217 268.496C224.448 268.09 225.642 267.581 226.788 266.975C240.868 257.632 231.199 54.3569 227.033 48.5447L227.047 48.5398C215.044 36.8377 125.464 13.8284 114.309 22.1558ZM124.209 21.4923C142.154 21.5699 174.115 29.2087 192.206 34.5873C200.095 36.9367 220.445 43.3173 226.531 48.859C227.021 50.04 227.316 51.2927 227.404 52.5682C230.077 70.6102 231.889 124.057 232.384 144.031C232.637 154.569 235.252 260.357 225.967 265.84C225.716 265.991 224.677 266.458 224.065 266.698C203.188 275.028 160.274 257.902 140.054 248.132C134.375 245.404 116.89 236.535 112.935 231.714C112.679 231.468 112.52 231.137 112.49 230.782C111.018 220.323 100.421 55.5238 111.021 27.6538C111.251 27.0198 111.532 26.4054 111.86 25.8166C112.824 24.7823 113.895 23.853 115.055 23.0443C117.098 21.6029 121.715 21.4923 124.209 21.4923ZM227.047 48.5398L227.033 48.5447C227.017 48.522 226.999 48.5003 226.98 48.4797L227.047 48.5398Z" fill="#212121"/>
<path fill-rule="evenodd" clip-rule="evenodd" d="M217.226 51.2626C221.158 55.1426 228.224 259.024 216.729 268.384C204.927 277.992 110.383 240.001 109.238 233.143C107.972 225.561 98.2513 36.15 111.917 25.3248C121.891 17.4242 205.142 39.3375 217.226 51.2626Z" fill="white"/>
<path fill-rule="evenodd" clip-rule="evenodd" d="M112.156 24.4827C111.316 24.9726 110.637 25.698 110.204 26.5692C98.8052 46.7452 106.386 202.83 107.922 226.103C108.428 233.744 108.442 233.572 109.109 234.418C114.101 240.484 154.748 257.53 183.303 265.627C190.712 267.708 208.004 272.381 215.313 269.924C216.117 269.692 216.85 269.26 217.442 268.668C218.034 268.077 218.467 267.345 218.699 266.54C226.224 247.942 223.013 139.359 222.302 119.183C219.735 48.0498 217.251 51.245 217.549 51.1674C206.308 39.4905 124.433 17.4492 112.156 24.4827ZM120.894 24.1965C137.902 24.2741 168.209 32.0089 185.286 37.4089C192.604 39.7369 211.483 46.0545 217.016 51.4662C220.792 55.5159 227.112 253.226 216.633 267.467C214.197 270.637 202.778 268.674 198.853 267.935C179.592 264.208 152.533 254.249 134.603 246.498C129.329 244.207 115.079 237.874 110.795 234.051C109.892 233.212 109.962 233.093 109.886 232.414C108.266 216.991 99.5763 40.4052 111.878 26.1559C113.539 24.3003 118.335 24.1965 120.894 24.1965ZM217.546 51.1674H217.532C217.512 51.1393 217.501 51.1257 217.485 51.1043L217.546 51.1674Z" fill="#212121"/>
<path fill-rule="evenodd" clip-rule="evenodd" d="M148.418 44.5337C136.569 42.0796 126.818 41.2725 124.123 43.6092C113.77 52.5866 121.136 209.686 122.094 215.978C122.961 221.667 194.592 253.177 203.533 245.207C212.242 237.447 206.888 68.3442 203.91 65.1258C200.427 61.3641 187.636 54.8001 176.086 52.0628C174.146 51.602 175.26 56.8672 173.651 57.5268C168.601 59.5958 149.136 51.6098 148.334 50.1888C147.971 49.5369 148.119 47.1798 148.418 44.5337Z" fill="white"/>
<path fill-rule="evenodd" clip-rule="evenodd" d="M175.789 51.6119C173.714 51.7642 174.785 56.6394 173.449 57.1739C169.066 58.8326 154.223 53.2066 149.839 50.8495C148.396 50.0677 148.702 50.0299 148.605 50.0299C148.229 49.2791 148.556 46.1023 148.632 45.2992C148.701 44.6114 148.813 44.3505 148.477 44.2477C148.409 44.5707 148.449 44.3816 148.477 44.2477C142.958 43.0905 130.894 40.7712 125.495 42.4755C124.542 42.7164 123.718 43.3118 123.19 44.14C113.741 58.8957 120.367 212.927 121.444 216.332C122.676 220.122 142.768 229.219 146.413 230.857C157.028 235.594 190.83 249.675 201.8 246.854C204.078 246.233 204.733 245.22 205.407 243.176C212.225 222.286 207.748 80.129 204.753 66.0436C204.517 64.9232 204.442 64.8243 203.258 63.8048C198.081 59.4573 187.776 55.0836 181.133 53.0049C179.38 52.4379 177.596 51.9729 175.789 51.6119ZM141.451 43.5697C144.384 44.0304 147.842 44.7123 148.1 44.7705C147.913 46.2179 147.823 47.6761 147.829 49.1355C147.888 50.35 148.07 50.5226 148.961 51.0755C153.199 53.6412 167.907 59.1905 173.077 58.1032C173.377 58.087 173.669 57.9945 173.923 57.8345C174.178 57.6744 174.387 57.4521 174.532 57.1885C175.219 55.8916 175.062 53.0543 175.669 52.514C175.819 52.3831 175.81 52.4093 177.199 52.7662C182.237 54.1235 187.142 55.9331 191.854 58.173C195.195 59.7561 200.983 62.7728 203.517 65.448C206.168 70.751 211.312 234.607 203.148 244.536C202.284 245.514 200.101 245.7 198.867 245.74C184.22 246.018 148.576 230.868 133.931 223.247C132.1 222.287 123.559 217.779 122.797 215.875C122.055 212.189 113.979 50.2559 124.737 43.6162C128.048 41.6238 137.658 42.9818 141.448 43.5697H141.451Z" fill="#212121"/>
<path fill-rule="evenodd" clip-rule="evenodd" d="M84.7305 74.0769C85.0215 73.7268 85.1185 72.684 85.3212 72.2834C85.9236 71.1078 86.4687 69.9379 86.9586 68.7099C87.365 67.6866 88.5988 65.6127 87.8044 64.2528C87.555 63.9416 87.2084 63.723 86.8201 63.6321C86.4318 63.5412 86.0243 63.5831 85.6626 63.7513C85.098 64.0482 84.6135 64.4771 84.2503 65.0016C84.1824 65.0909 84.0748 65.5196 84.0136 65.5594C83.8972 65.635 84.1019 65.2305 83.9749 63.3507C83.8643 61.691 84.0253 59.7248 83.5219 58.1243C83.3987 57.7305 82.8952 56.8633 82.3258 56.937C81.8205 57.002 81.3714 57.6442 81.1618 58.0632C80.4762 59.8662 80.2015 61.7995 80.3577 63.7222C80.3577 63.7911 80.3218 64.0394 80.3674 64.0985C80.4103 62.3636 80.0909 60.6387 79.4294 59.0342C79.1501 58.295 79.0085 57.7732 78.2004 57.5928C76.4156 57.2048 76.2963 59.8053 76.5252 60.947C76.8696 62.6532 77.0229 64.277 77.0025 64.1005C76.8775 63.4278 76.6148 62.7881 76.2309 62.2218C75.8469 61.6554 75.3501 61.1745 74.7715 60.8093C74.2865 60.5328 73.3378 60.2438 73.0061 60.8956C72.4018 62.0858 73.0488 63.9589 73.4814 65.0763C74.2839 67.7266 75.7167 70.143 77.6572 72.1185C78.2254 72.9227 78.9515 73.6026 79.7912 74.1167C80.1627 74.2777 84.7305 74.0769 84.7305 74.0769Z" fill="white"/>
<path fill-rule="evenodd" clip-rule="evenodd" d="M77.7339 56.8225C76.0189 56.9583 75.5669 58.943 75.7425 60.6317C74.0207 59.2116 72.038 59.5153 72.0856 62.1032C72.1874 63.3152 72.4989 64.5004 73.0061 65.6059C73.5097 67.253 74.3182 68.7909 75.3894 70.1397C76.3299 71.3645 77.3401 72.5343 78.4148 73.6433C78.7835 74.0258 79.2292 74.3256 79.7224 74.5231C81.4137 74.5576 83.1058 74.5042 84.7916 74.3631C84.8577 74.3485 84.9169 74.3119 84.9594 74.2593C84.6897 74.0449 84.617 73.9877 84.9594 74.2593C85.2386 73.7259 85.442 73.1562 85.5637 72.5666C85.6239 72.3998 86.4891 70.9021 87.3553 68.868C87.7191 68.027 87.946 67.704 88.2603 66.8601C88.724 65.5496 88.7734 63.9501 87.5367 63.2992C87.1498 63.115 86.7239 63.0276 86.2957 63.0445C85.8675 63.0614 85.4499 63.1821 85.0787 63.3962C84.5733 63.7095 84.6422 63.792 84.6354 63.6125C84.5326 61.1604 84.7402 58.521 83.7954 57.1368C82.806 55.6517 81.1017 55.9301 80.2064 58.5142C80.056 58.9585 80.2064 58.8722 79.8184 58.0292C79.6373 57.6381 79.3399 57.3123 78.9668 57.0964C78.5938 56.8805 78.1632 56.7848 77.7339 56.8225ZM83.226 60.8189C83.42 65.4749 83.3841 64.2072 83.387 64.5661C83.387 65.5652 83.29 65.6272 83.4918 65.9318C83.5675 66.0332 83.6722 66.1093 83.792 66.1502C83.9118 66.191 84.0411 66.1947 84.163 66.1607C84.2908 66.1207 84.4057 66.0476 84.496 65.9488C84.5863 65.85 84.6488 65.729 84.6771 65.5981C84.7625 65.3401 84.7693 65.3246 84.7741 65.3217C85.3503 64.5758 85.9051 64.0073 86.8218 64.1907C87.0029 64.2186 87.1694 64.3066 87.2946 64.4404C87.4199 64.5743 87.4966 64.7462 87.5124 64.9288C87.7501 66.0036 87.0381 67.3626 86.6394 68.3578C85.5569 71.1853 85.0874 71.9254 84.9594 72.2921C84.8091 72.7441 84.7576 73.2757 84.5947 73.7209C84.5947 73.7296 84.5724 73.7772 84.5675 73.7849C83.8041 73.7995 80.7477 73.8431 79.9881 73.7393C79.6574 73.5794 79.3609 73.3567 79.1151 73.0836C78.7689 72.7286 77.4283 71.0728 77.2537 70.8526C76.108 69.4446 75.1858 67.8686 74.5193 66.1801C74.0808 64.8299 73.0352 62.3535 73.6346 61.2089H73.6443C74.5775 61.0537 76.1188 62.8162 76.2895 64.0995C76.2965 64.2599 76.349 64.415 76.4408 64.5466C76.5413 64.6819 76.686 64.7776 76.8498 64.8172C77.0136 64.8567 77.186 64.8375 77.3371 64.763C77.4879 64.6881 77.6084 64.5638 77.6786 64.4108C77.7843 64.1024 77.762 63.9152 77.4584 61.8491C77.2606 61.1183 77.1733 60.3621 77.1994 59.6055C77.1954 59.1432 77.3591 58.6952 77.6601 58.3445C77.7843 58.2849 77.9264 58.2745 78.0578 58.3154C78.1533 58.325 78.2444 58.3606 78.3211 58.4182C78.3979 58.4758 78.4575 58.5533 78.4934 58.6423C78.714 59.1475 78.9035 59.6658 79.0608 60.1943C79.4528 61.2528 79.6475 62.3742 79.6351 63.5029C79.6487 64.0335 79.5633 64.4594 80.0163 64.7319C80.1182 64.7925 80.2331 64.8276 80.3515 64.8342C80.4698 64.8409 80.588 64.8189 80.696 64.7702C80.8041 64.7214 80.8987 64.6474 80.9721 64.5543C81.0454 64.4611 81.0952 64.3517 81.1172 64.2353C81.2142 63.6533 80.8107 61.0614 81.6313 58.8033C81.9349 58.0186 82.2512 57.7081 82.4015 57.647C83.0786 58.1078 83.1843 59.9702 83.226 60.8189ZM79.9435 73.7335H79.9319H79.9435ZM79.9435 73.7335H79.9261H79.9406H79.928H79.9435ZM83.5025 65.2334V65.2256L83.4947 65.2441L83.5025 65.2276V65.2334ZM73.623 61.2069H73.6298H73.623ZM73.623 61.2069H73.6317H73.623ZM73.623 61.2069H73.6298H73.623ZM73.623 61.2069H73.6298H73.623ZM73.623 61.2069H73.6308H73.623ZM73.623 61.2069L73.6308 61.2011L73.623 61.2069ZM73.623 61.2069L73.6317 61.2001L73.623 61.2069ZM73.623 61.2069L73.6327 61.1992L73.623 61.2069ZM73.623 61.2069V61.1992V61.2069ZM73.623 61.2069L73.6317 61.1992L73.623 61.2069ZM73.623 61.2069L73.6327 61.1963L73.623 61.2069ZM73.623 61.2069L73.6317 61.1982L73.623 61.2069ZM73.623 61.2069L73.6317 61.1963L73.623 61.2069ZM73.623 61.2069L73.6317 61.1963L73.623 61.2069Z" fill="#212121"/>
<path fill-rule="evenodd" clip-rule="evenodd" d="M125.923 122.679C123.692 122.346 121.651 120.556 119.559 119.769C110.558 116.429 102.865 110.293 97.6082 102.259C94.1298 96.8738 91.8377 90.8443 89.3632 84.9797C88.1588 82.342 87.1886 79.6035 86.4639 76.7958C86.2379 75.8035 86.0759 73.3329 85.3746 72.5996C84.8023 72.003 82.8244 72.4541 82.0659 72.4599C81.35 72.4657 79.4003 72.1165 78.8591 72.6054C77.9453 73.4299 78.3867 75.5212 78.4022 76.5582C78.4594 80.5827 78.7688 84.6305 79.054 88.6434C79.6128 96.4878 80.057 105.064 82.4384 112.602C85.2688 121.563 91.9929 129.684 99.0777 135.494C102.841 138.582 106.977 140.772 111.126 143.286C111.724 143.648 114.753 145.808 115.394 145.549C116.667 145.036 117.668 140.609 118.17 139.42C120.535 133.828 125.923 122.679 125.923 122.679Z" fill="white"/>
<path fill-rule="evenodd" clip-rule="evenodd" d="M125.968 122.386C123.872 122.046 122.029 120.411 119.788 119.469C108.348 114.99 100.424 107.352 95.1502 96.6264C93.154 92.567 88.7404 81.8524 87.9412 79.4409C86.7151 75.6958 87.0517 74.9013 86.4862 73.198C85.8159 71.1891 84.518 71.5257 82.256 71.7323C81.6051 71.7808 80.576 71.5509 79.5225 71.6479C79.1308 71.6525 78.751 71.7832 78.4395 72.0207C78.128 72.2581 77.9013 72.5897 77.793 72.9662C77.5293 74.0706 77.488 75.2164 77.6718 76.3369C77.7077 76.9461 77.6631 77.6115 77.8153 80.7475C77.9395 83.3044 78.7019 94.7941 79.1462 99.0941C79.7369 104.775 80.6875 110.614 82.8797 115.89C85.6997 122.22 89.7698 127.916 94.8456 132.635C100.768 138.261 104.275 139.868 110.84 143.762C111.967 144.47 114.096 145.964 115.155 146.09C116.859 146.218 117.856 141.822 118.46 139.99C119.296 137.506 126.196 122.814 126.215 122.716C126.222 122.666 126.215 122.615 126.196 122.569C126.176 122.523 126.145 122.483 126.105 122.453L126.063 122.426C126.033 122.41 126 122.399 125.966 122.393C125.931 122.622 125.9 122.821 125.968 122.386ZM84.8701 73.0952C85.4163 73.7499 85.4444 75.7384 86.0128 77.8928C87.2146 82.2685 92.602 94.5836 94.7186 98.5325C96.0139 100.995 97.5239 103.339 99.231 105.536C108.073 116.798 119.003 119.795 120.862 120.756C122.3 121.676 123.856 122.397 125.487 122.9C116.117 141.951 117.84 139.373 116.472 142.928C116.228 143.704 115.82 144.418 115.277 145.024C115.049 145.185 113.072 143.902 112.865 143.768C106.016 139.267 98.8207 136.368 90.4118 125.69C80.8524 113.423 80.8252 103.402 79.5187 84.8186C79.3508 82.3587 79.217 80.0656 79.151 77.6668C79.0471 76.4151 79.0105 75.1588 79.0414 73.9032C79.0609 73.6384 79.1536 73.3841 79.3091 73.1689C79.5545 72.9012 81.6759 73.2174 82.3675 73.1563C83.1932 73.0034 84.038 72.9828 84.8701 73.0952Z" fill="#212121"/>
<path fill-rule="evenodd" clip-rule="evenodd" d="M176.631 149.838C176.602 142.704 158.783 123.872 135.59 120.949C127.646 119.948 107.294 119.388 99.1776 135.896C97.7042 138.893 96.126 142.235 96.2929 145.676C96.5004 149.923 98.746 153.277 100.795 156.831C106.298 166.373 112.429 173.552 120.583 181.249C127.236 187.531 138.068 190.852 147.057 188.81C153.903 187.101 160.465 184.408 166.537 180.815C172.466 177.248 180.808 168.967 182.225 161.699C183.392 155.717 176.644 152.998 176.631 149.838Z" fill="white"/>
<path fill-rule="evenodd" clip-rule="evenodd" d="M109.036 124.436C104.202 127.16 100.372 131.367 98.1126 136.435C97.2306 138.161 96.5228 139.97 95.9999 141.837C94.5158 147.722 97.0504 151.97 100.176 157.225C102.756 161.718 105.699 165.994 108.975 170.008C112.001 173.707 118.829 181.112 122.652 183.911C129.119 188.695 138.519 191.283 146.766 189.559C151.002 188.559 155.128 187.142 159.085 185.329C166.281 182.101 171.986 178.521 177.338 171.889C179.428 169.417 181.06 166.592 182.156 163.547C183.012 160.892 183.048 158.673 181.394 156.155C179.75 153.594 176.967 151.737 176.924 149.838C176.924 146.891 174.24 143.036 172.396 140.744C167.919 135.441 162.536 130.974 156.497 127.552C138.58 117.305 119.709 118.364 109.036 124.436ZM136.584 121.72C148.823 123.478 160.595 129.906 168.77 137.914C171.479 140.578 176.268 146.052 176.336 149.845C176.336 153.303 183.191 155.757 181.745 162.04C180.167 168.352 173.78 175.062 168.531 178.829C162.956 182.843 151.297 187.712 144.614 188.547C139.109 189.1 133.558 188.131 128.566 185.745C123.156 183.179 120.527 180.372 116.2 175.915C108.644 168.065 104.93 162.504 100.077 154.153C97.2153 149.149 96.0087 145.683 97.9875 140.337C98.8875 137.98 100.005 135.711 101.324 133.56C108.599 122.4 123.566 119.85 136.582 121.719L136.584 121.72Z" fill="#212121"/>
<path fill-rule="evenodd" clip-rule="evenodd" d="M107.379 75.041C107.379 75.041 117.602 79.7339 121.007 90.1129C122.277 93.9871 126.439 97.8409 130.462 96.9223C132.476 96.4625 133.224 95.4314 135.809 95.5468C139.503 95.7146 142.827 105.045 136.358 105.789C135.375 105.805 134.393 105.716 133.429 105.525C133.577 107.046 133.401 108.581 132.914 110.029C132.427 111.477 131.639 112.806 130.603 113.928C129.982 114.572 125.048 116.844 124.63 117.601C123.899 118.928 126.861 120.823 127.202 121.876C127.805 123.726 125.303 127.051 124.165 128.138C122.239 129.975 119.53 130.466 117.627 128.176C117.056 127.517 116.657 126.727 116.465 125.877C116.272 125.027 116.293 124.143 116.525 123.302C116.872 122.358 118.605 120.203 117.258 119.138C116.731 118.72 115.415 119.191 114.811 119.151C113.216 118.976 111.648 118.603 110.145 118.039C104.058 116.008 99.2397 109.906 97.2561 104.005C95.7177 99.4258 94.4605 93.535 94.7341 88.7297C94.801 87.5657 94.4159 85.1116 95.1289 84.1561C95.964 83.0358 98.1436 82.8253 99.3057 82.1026C102.41 80.2679 105.147 77.8736 107.379 75.041Z" fill="white"/>
<path fill-rule="evenodd" clip-rule="evenodd" d="M107.503 74.7751C107.198 74.6646 107.196 74.8333 106.619 75.5511C104.44 78.0153 101.884 80.1182 99.0457 81.7814C98.0505 82.3431 96.2744 82.5875 95.22 83.4207C93.9784 84.4024 94.2151 86.1494 94.25 88.1078C94.1069 90.5065 94.2119 92.9135 94.5633 95.2906C95.0376 98.5662 95.8226 101.789 96.9078 104.916C98.0641 108.055 99.8204 110.939 102.079 113.406C105.044 116.726 109.046 118.943 113.433 119.696C114.129 119.88 114.856 119.918 115.567 119.805C116.521 119.658 116.677 119.673 116.816 119.708C117.094 119.931 117.058 120.284 116.969 120.627C116.538 122.179 115.539 122.646 115.573 124.77C115.604 125.911 115.954 127.02 116.582 127.973C117.211 128.925 118.093 129.683 119.13 130.161C122.6 131.427 125.715 128.251 127.358 124.923C127.673 124.403 127.876 123.823 127.954 123.22C128.031 122.617 127.982 122.004 127.808 121.421C127.27 120.372 125.291 118.861 125.242 118.065C125.224 117.792 126.934 116.874 127.258 116.695C130.944 114.652 130.782 114.847 131.634 113.846C133.378 111.734 134.278 109.052 134.161 106.316C134.716 106.434 135.282 106.498 135.849 106.51C139.376 106.453 141.396 103.821 140.49 99.999C139.971 97.9096 138.522 95.5467 136.494 94.9919C135.908 94.8715 135.305 94.846 134.711 94.9162C132.797 95.1102 132.017 95.8862 130.452 96.2849C126.795 97.1579 123.195 93.9821 121.714 90.5435C121.315 89.3769 120.848 88.2348 120.315 87.1232C117.631 82.0545 113.486 77.9095 108.417 75.2262C108.203 75.1098 107.724 74.8634 107.503 74.7664C107.45 74.8886 107.395 75.0031 107.503 74.7751ZM133.111 104.894C132.57 105.224 132.749 105.535 132.757 106.602C132.797 108.964 131.969 111.259 130.429 113.051C129.958 113.589 130.01 113.565 127.453 114.942C126.387 115.481 125.363 116.099 124.39 116.793C124.203 116.938 124.051 117.124 123.947 117.337C123.843 117.55 123.789 117.784 123.789 118.021C123.753 119.606 125.953 121.098 126.473 122.021C126.803 122.627 126.223 123.939 125.909 124.551C122.869 130.17 118.997 129.999 117.443 126.464C116.124 123.314 118.305 122.778 118.49 120.353C118.521 120.008 118.463 119.66 118.322 119.344C118.181 119.027 117.961 118.751 117.684 118.542C117.329 118.305 116.902 118.197 116.477 118.236C115.105 118.302 115.007 118.91 110.306 117.333C104.278 115.269 99.6908 109.348 97.6431 103.157C96.0021 98.4918 95.1903 93.5751 95.2443 88.6296C95.2705 87.5083 94.9533 85.1929 95.5013 84.4247C96.1241 83.5517 97.9554 83.2491 99.2038 82.6263C102.376 80.7452 105.179 78.3024 107.476 75.4173C113.202 78.373 117.696 83.2611 120.162 89.2146C120.554 90.6137 121.161 91.9437 121.96 93.1576C123.564 95.4575 125.951 97.3713 128.719 97.6341C130.765 97.799 131.913 97.0405 133.358 96.5245C134.335 96.1497 135.403 96.0867 136.417 96.344C139.045 97.4799 141.12 103.795 137.081 104.938C135.175 105.469 133.879 104.566 133.108 104.894H133.111Z" fill="#212121"/>
<path fill-rule="evenodd" clip-rule="evenodd" d="M130.343 114.072C131.502 114.528 132.72 114.817 133.961 114.93C134.475 115.06 135.002 115.125 135.532 115.124C137.116 115.034 138.486 114.276 139.994 113.901C146.508 112.283 153.39 109.585 156.752 103.192C157.607 101.352 158.248 99.4205 158.663 97.4345C159.31 95.3771 159.534 93.21 159.322 91.0636C158.515 86.0196 153.932 81.8796 153.348 76.9375C150.917 56.3599 129.292 52.961 113.545 56.1853C106.847 57.5569 90.7561 68.7594 93.9455 79.959C94.0968 80.4877 94.3015 84.227 95.0125 84.1756C96.8691 84.0447 106.093 78.5098 107.26 75.0634C107.26 75.0634 117.483 79.7543 120.887 90.1324C122.158 94.0066 126.319 97.8604 130.343 96.9418C132.356 96.482 133.104 95.4499 135.689 95.5663C139.384 95.7341 142.708 105.065 136.238 105.809C135.256 105.825 134.275 105.736 133.311 105.545C133.458 107.066 133.282 108.6 132.795 110.048C132.308 111.497 131.52 112.825 130.483 113.948C130.44 113.993 130.393 114.035 130.343 114.072Z" fill="#212121"/>
<path fill-rule="evenodd" clip-rule="evenodd" d="M132.934 107.853C132.829 108.974 132.537 110.07 132.072 111.095C131.597 112.15 130.927 113.106 130.098 113.914C130.076 113.948 130.06 113.987 130.054 114.027C130.047 114.067 130.049 114.109 130.059 114.148C130.069 114.188 130.088 114.225 130.114 114.257C130.139 114.289 130.171 114.315 130.208 114.334L130.225 114.301L130.206 114.338C131.148 114.763 132.153 115.032 133.182 115.134C134.868 115.389 135.339 115.789 137.766 115.005C138.639 114.721 138.888 114.607 139.676 114.374C140.421 114.163 141.576 113.953 144.102 113.147C151.22 110.797 156.446 107.198 158.555 99.974C159.364 97.1697 160.293 94.0017 159.936 91.1344C159.193 85.779 154.617 81.9427 153.98 76.6203C152.021 61.1342 139.207 54.3374 123.659 54.4073C120.005 54.4344 114.164 54.9272 110.776 56.3017C108.615 57.2093 106.555 58.3434 104.633 59.685C97.7353 64.4865 91.083 72.0283 93.2548 80.1753C93.4488 81.0929 93.5284 83.547 94.1977 84.4695C94.5963 84.9778 95.0251 84.9545 95.609 84.7974C98.5413 83.9515 105.891 79.1908 107.598 76.0179C111.807 78.2722 115.389 81.5392 118.019 85.5239C120.266 89.0867 120.029 90.4709 121.498 92.7708C122.734 94.7672 124.575 96.3167 126.753 97.193C130.642 98.551 132.199 96.2802 134.885 96.0697C135.276 96.001 135.677 96.0181 136.06 96.1198C136.443 96.2215 136.8 96.4053 137.105 96.6585C139.883 98.905 141.082 105.203 135.82 105.458C134.673 105.478 133.509 105.07 133.149 105.225C132.685 105.679 133.142 105.666 132.934 107.853ZM135.016 57.2581C144.827 59.9838 151.128 66.3072 152.596 76.3215C152.826 78.5343 153.551 80.667 154.717 82.5615C156.195 85.23 158.045 87.9198 158.639 90.6649C158.982 92.7552 158.839 94.8965 158.22 96.9224C157.469 99.9594 157.025 102.03 155.39 104.482C150.645 111.404 142.265 112.623 138.082 114.147C136.942 114.697 135.662 114.887 134.411 114.69C133.211 114.555 132.024 114.319 130.864 113.984C130.908 113.938 131.127 113.693 131.312 113.473C133.021 111.355 133.868 108.671 133.683 105.956C134.779 106.257 135.932 106.296 137.046 106.07C142.421 104.741 140.369 97.1067 136.877 95.3878C135.928 95.0312 134.895 94.9637 133.908 95.1938C132.096 95.5673 130.942 96.5858 129.075 96.5518C125.713 96.4936 122.547 93.2208 121.465 89.949C119.347 83.2939 113.786 77.665 108.027 74.6774C107.556 74.4319 107.057 74.1245 106.651 74.7385C106.428 75.3207 106.099 75.8562 105.681 76.3176C102.745 79.337 99.2338 81.736 95.3539 83.3724C95.2317 83.4103 95.2569 83.4141 95.2356 83.3589C94.9232 82.3956 94.7777 80.3732 94.6536 79.8232C94.4268 79.0292 94.2966 78.2108 94.2656 77.3856C94.0978 72.7723 97.0844 68.3646 100.347 65.1209C104.737 60.7307 110.318 57.6956 113.471 56.9603C120.58 55.3987 127.953 55.5007 135.016 57.2581Z" fill="#212121"/>
<path fill-rule="evenodd" clip-rule="evenodd" d="M104.632 138.654C103.215 137.509 101.71 136.479 100.13 135.574C99.5608 135.24 98.6122 135.042 98.2358 134.452C97.8952 133.708 97.6729 132.915 97.5772 132.102C96.9564 129.418 96.5897 126.567 93.5643 125.625C90.4603 124.655 86.8781 124.17 83.7944 125.46C82.0737 126.175 80.6594 128.922 82.2502 130.474C81.5586 130.296 81.0814 131.356 80.7574 131.857C80.3628 132.464 80.2162 133.2 80.3475 133.913C80.4789 134.625 80.8783 135.26 81.4635 135.687C79.6264 136.714 80.2025 140.343 81.901 141.416C83.703 142.334 85.7252 142.731 87.7404 142.563C88.5397 142.408 89.3514 142.327 90.1654 142.32C90.7474 142.417 91.2382 143.127 91.6844 143.463C92.8106 144.309 96.0834 146.688 96.4044 146.756C96.8555 146.85 104.632 138.654 104.632 138.654Z" fill="white"/>
<path fill-rule="evenodd" clip-rule="evenodd" d="M87.8034 123.985C86.0506 124.004 83.5907 124.388 82.3123 125.598C81.8006 126.059 81.4034 126.633 81.1522 127.274C80.9009 127.915 80.8026 128.606 80.865 129.291C81.0881 130.663 81.3781 129.635 80.6584 130.635C80.3315 131.102 80.0474 131.597 79.8097 132.115C79.5894 132.694 79.5205 133.319 79.6096 133.931C79.6988 134.544 79.9429 135.124 80.3189 135.616C80.3713 135.681 80.3732 135.65 80.3073 135.731C79.955 136.26 79.7239 136.86 79.6305 137.488C79.5371 138.117 79.5837 138.758 79.767 139.367C79.9172 140.131 80.2747 140.838 80.8002 141.413C81.3258 141.987 81.9992 142.406 82.7468 142.623C84.5103 143.197 86.3742 143.398 88.2196 143.213C88.855 143.034 89.5172 142.97 90.1751 143.024C90.5326 143.29 90.8703 143.582 91.1858 143.897C91.5176 144.165 95.1172 146.71 96.0193 147.186C96.1641 147.282 96.3381 147.323 96.5104 147.302C96.6828 147.282 96.8422 147.201 96.9602 147.073C98.3551 145.991 103.565 140.267 104.753 138.956C104.877 138.833 104.94 138.762 104.917 138.591C104.904 138.528 104.869 138.471 104.82 138.43C103.77 137.532 102.661 136.705 101.502 135.953C100.749 135.421 99.9423 134.968 99.0952 134.603C98.9015 134.501 98.7355 134.353 98.6117 134.172C98.4878 133.991 98.4097 133.783 98.3842 133.565C98.0885 131.617 97.6105 129.701 96.9564 127.842C95.8147 125.499 94.1919 125.029 91.6883 124.436C90.4142 124.142 89.1111 123.99 87.8034 123.985ZM96.2357 146.249L96.2492 146.242L96.2337 146.252L96.2463 146.243L96.2318 146.251L96.2434 146.245L96.2357 146.249ZM89.725 141.62C88.6299 141.799 87.521 141.88 86.4115 141.862C84.9176 141.852 83.4518 141.456 82.1561 140.712C81.6355 140.209 81.2826 139.558 81.1455 138.848C81.0084 138.137 81.0937 137.401 81.3898 136.741C81.7215 136.243 81.9097 136.43 82.1444 135.965C82.2066 135.81 82.2139 135.638 82.1653 135.478C82.1166 135.319 82.0148 135.18 81.8767 135.086C81.5068 134.813 81.2378 134.425 81.1117 133.983C80.9857 133.541 81.0098 133.07 81.1803 132.643C81.4189 132.116 81.7344 131.628 82.1163 131.194C82.1861 131.206 82.2571 131.21 82.3278 131.205C82.4971 131.187 82.6547 131.11 82.7734 130.988C82.8921 130.866 82.9644 130.706 82.9777 130.537C82.9777 129.835 82.3763 129.929 82.29 128.949C82.2865 128.542 82.3643 128.139 82.5187 127.763C82.6731 127.387 82.901 127.045 83.1891 126.759C84.1339 125.789 86.1699 125.448 87.525 125.394C89.2068 125.352 90.8855 125.56 92.506 126.012C94.188 126.456 95.2676 126.861 96.1192 128.877C96.7779 130.436 97.2571 133.412 97.5742 134.204C97.6711 134.48 97.8248 134.732 98.0253 134.944C98.2258 135.156 98.4688 135.323 98.7383 135.435C100.087 135.953 101.36 136.652 102.521 137.512C103.057 137.866 103.606 138.246 104.183 138.69C102.876 139.996 97.9021 144.954 96.452 146.098C96.3909 146.146 96.4141 146.146 96.3482 146.098C95.2162 145.349 92.2916 143.119 92.0588 142.933C91.4157 142.421 91.0772 141.597 89.725 141.62Z" fill="#212121"/>
<path fill-rule="evenodd" clip-rule="evenodd" d="M183.835 151.347C192.979 153.641 189.694 167.956 186.309 173.507L183.835 151.347Z" fill="white"/>
<path fill-rule="evenodd" clip-rule="evenodd" d="M183.547 151.274L183.762 151.634C184.628 151.898 185.433 152.331 186.13 152.908C186.828 153.486 187.404 154.196 187.825 154.997C188.54 156.421 188.943 157.98 189.008 159.572C189.059 163.87 188.251 168.136 186.631 172.118C185.987 173.67 186.004 173.126 186.156 173.759C186.604 173.648 186.536 173.692 186.603 173.595C191.543 166.582 193 152.763 183.908 151.06L183.547 151.274Z" fill="#212121"/>
<path fill-rule="evenodd" clip-rule="evenodd" d="M181.983 179.987C179.458 185.537 174.873 189.886 169.197 192.112L181.983 179.987Z" fill="white"/>
<path fill-rule="evenodd" clip-rule="evenodd" d="M181.713 179.865C178.735 184.977 174.356 189.13 169.094 191.834L168.919 192.211L169.299 192.382C173.358 191.277 176.925 188.834 179.423 185.449C180.669 183.848 181.626 182.043 182.253 180.114L182.105 179.726L181.713 179.865Z" fill="#212121"/>
<path fill-rule="evenodd" clip-rule="evenodd" d="M155.71 196.418C148.241 200.338 134.877 200.192 128.532 193.804L155.71 196.418Z" fill="white"/>
<path fill-rule="evenodd" clip-rule="evenodd" d="M128.326 194.011C134.382 200.971 148.074 201.37 155.847 196.68L155.972 196.281L155.572 196.155C148.325 199.339 136.639 199.162 129.964 194.559C128.379 193.451 129.074 193.598 128.328 193.594L128.326 194.011Z" fill="#212121"/>
<path fill-rule="evenodd" clip-rule="evenodd" d="M107.59 75.6919C107.387 77.7244 107.698 79.7753 108.494 81.6565C109.289 83.5378 110.545 85.1891 112.145 86.4589" fill="white"/>
<path fill-rule="evenodd" clip-rule="evenodd" d="M107.296 75.6686C106.684 78.2268 107.087 80.9225 108.42 83.19C109.238 84.6742 110.47 85.8892 111.965 86.6878L112.378 86.6383C112.303 86.0631 112.434 86.391 111.809 85.6547C110.296 83.8666 109.185 81.7743 108.551 79.5195C108.216 78.2737 107.994 77.0005 107.886 75.7151L107.614 75.397L107.296 75.6686Z" fill="#212121"/>
<path fill-rule="evenodd" clip-rule="evenodd" d="M106.097 77.8908C106.102 77.5998 104.87 79.5107 104.582 80.0083C104.075 80.9 103.764 81.8901 103.671 82.9119C103.579 83.9338 103.706 84.9637 104.045 85.9321" fill="white"/>
<path fill-rule="evenodd" clip-rule="evenodd" d="M106.243 78.12L106.231 78.1307L106.241 78.1171L106.228 78.1278L106.233 78.122L106.222 78.1297L106.228 78.1249L106.213 78.1346L106.195 78.1452L106.169 78.1559L106.136 78.1666H106.141H106.114L106.381 77.8901V77.8717C106.381 77.8481 106.378 77.8246 106.372 77.8019C106.372 77.7951 106.357 77.7543 106.355 77.7485C106.263 77.5817 106.079 77.4449 105.732 77.7175C104.921 78.3298 104.252 79.1098 103.771 80.0042C103.289 80.8986 103.006 81.8864 102.94 82.9002C102.888 83.9508 103.146 84.9936 103.68 85.8994C103.771 86.0643 103.68 85.9964 104.129 86.2156C104.432 85.5822 104.251 86.1283 104.251 84.9634C104.244 84.6322 104.255 84.3009 104.285 83.9711C104.307 82.529 104.697 81.1166 105.419 79.868C105.58 79.5566 106.091 78.3654 106.222 78.1472L106.215 78.154L106.243 78.12ZM105.801 77.893L106.078 78.1608H106.06C106.023 78.1589 105.986 78.1493 105.953 78.1326C105.919 78.1159 105.89 78.0925 105.866 78.0638L105.828 78.0114L105.807 77.9629L105.795 77.9231V77.8921V77.8911L105.801 77.893Z" fill="#212121"/>
<path fill-rule="evenodd" clip-rule="evenodd" d="M114.63 94.083C114.63 95.1423 114.673 95.1452 114.681 96.184L114.63 94.083Z" fill="white"/>
<path d="M114.63 94.083C114.63 95.1423 114.673 95.1452 114.681 96.184" stroke="black" stroke-width="2.126" stroke-linecap="round" stroke-linejoin="round"/>
<path fill-rule="evenodd" clip-rule="evenodd" d="M99.3804 93.4478C99.3658 94.1491 99.3697 94.2461 99.3959 95.0696L99.3804 93.4478Z" fill="white"/>
<path d="M99.3804 93.4478C99.3658 94.1491 99.3697 94.2461 99.3959 95.0696" stroke="black" stroke-width="2.126" stroke-linecap="round" stroke-linejoin="round"/>
<path fill-rule="evenodd" clip-rule="evenodd" d="M107.042 92.4121C106.577 94.6092 105.846 96.5763 105.167 99.3437C105.933 99.8559 106.769 100.254 107.649 100.526" fill="white"/>
<path fill-rule="evenodd" clip-rule="evenodd" d="M104.857 99.9587C105.7 100.42 106.625 100.709 107.581 100.81L107.937 100.596L107.719 100.242C107.096 99.9179 106.508 99.5308 105.964 99.0867C106.731 96.9585 107.192 94.7321 107.331 92.4742L107.104 92.123L106.751 92.35C105.829 94.3699 105.11 96.4768 104.606 98.6395C104.487 99.2108 104.324 99.6619 104.857 99.9587Z" fill="#212121"/>
<path fill-rule="evenodd" clip-rule="evenodd" d="M101.905 103.78C101.905 103.78 110.647 105.429 114.903 104.665C115.182 106.752 115.544 109.066 114.279 110.942C112.892 112.996 109.296 113.376 107.238 112.349C104.018 110.741 101.592 107.67 101.905 103.78Z" fill="white"/>
<path fill-rule="evenodd" clip-rule="evenodd" d="M101.676 103.856C101.551 105.122 101.712 106.399 102.148 107.594C102.583 108.789 103.283 109.871 104.194 110.758C105.305 111.924 106.698 112.785 108.238 113.257C109.781 113.611 111.398 113.453 112.843 112.807C115.656 111.449 115.962 108.686 115.559 105.592C115.413 104.472 115.434 104.481 115.275 104.293C115.202 104.221 115.11 104.171 115.011 104.148C114.911 104.125 114.807 104.129 114.709 104.161C111.508 104.704 105.074 104.028 101.944 103.562H101.907C101.785 103.571 101.7 103.608 101.676 103.856ZM114.444 105.266C114.67 107.133 114.877 109.063 113.82 110.633C112.8 112.11 110.522 112.564 108.741 112.274C107.772 112.092 106.859 111.686 106.076 111.086C105.014 110.426 104.112 109.538 103.435 108.487C102.757 107.435 102.322 106.246 102.16 105.006C102.127 104.69 102.112 104.372 102.117 104.054C105.612 104.8 110.908 105.676 114.444 105.266Z" fill="#212121"/>
<path fill-rule="evenodd" clip-rule="evenodd" d="M85.878 108.176C87.4484 107.731 89.0957 107.627 90.7095 107.871C94.4363 108.698 97.4995 113.267 95.7981 116.951C94.8543 118.996 91.3769 121.167 88.0294 120.995C87.6133 120.973 86.7539 121.03 86.5017 120.646C85.4618 119.07 86.2747 115.809 86.1816 114C86.0826 112.072 85.878 108.176 85.878 108.176Z" fill="#212121"/>
<path fill-rule="evenodd" clip-rule="evenodd" d="M89.4806 107.263C88.2425 107.332 87.0161 107.541 85.8246 107.884C85.4803 107.973 85.5821 108.011 85.62 112.297C85.62 112.525 85.65 113.897 85.6442 114.222C85.5744 116.178 84.7382 119.333 85.942 121.078C86.4348 121.732 87.3514 121.695 88.2244 121.72C90.4619 121.742 92.6406 121.004 94.4033 119.625C95.5253 118.866 96.354 117.746 96.7517 116.451C97.9632 112.344 94.3606 107.263 89.4806 107.263ZM91.2266 108.565C93.9484 109.666 96.1027 112.886 95.4461 115.778C95.2229 116.735 94.67 117.582 93.8844 118.171C92.6988 119.192 91.261 119.876 89.7211 120.151C88.8428 120.309 87.945 120.326 87.0614 120.202C86.2602 118.882 86.8674 115.784 86.7228 113.975C86.1874 107.961 86.1409 108.446 86.2553 108.425C88.0537 108.161 89.4864 107.897 91.2246 108.565H91.2266Z" fill="#212121"/>
<path fill-rule="evenodd" clip-rule="evenodd" d="M91.5001 120.108C91.9676 121.431 92.2252 122.819 92.2635 124.221C92.4483 125.427 92.4903 126.651 92.3886 127.866C91.8212 130.821 86.5686 130.796 84.8905 128.953C84.0592 128.04 84.4918 125.073 84.5345 123.889C84.5559 123.306 84.3037 121.075 84.7605 120.73C85.2882 120.331 86.2495 120.553 86.848 120.571C87.979 120.604 91.5001 120.108 91.5001 120.108Z" fill="#212121"/>
<path fill-rule="evenodd" clip-rule="evenodd" d="M91.4604 119.819C89.8633 119.981 88.2579 120.046 86.653 120.013C86.0993 119.895 85.5285 119.879 84.9691 119.967C84.6982 120.013 84.4494 120.145 84.2597 120.344C84.0701 120.543 83.9497 120.798 83.9166 121.071C83.8199 121.626 83.7828 122.189 83.8061 122.752C83.8567 123.503 83.834 124.257 83.7382 125.003C83.5946 126.827 83.4588 128.704 84.6199 129.715C86.6239 131.461 91.2091 131.477 92.6573 129.03C93.1382 127.968 93.2515 126.777 92.9794 125.644C92.8526 123.715 92.4468 121.814 91.7746 120.001C91.7426 120.005 91.7349 119.802 91.4604 119.819ZM91.7339 123.624C91.7581 123.721 91.8532 126.606 91.8513 126.704C91.901 127.082 91.8596 127.466 91.7305 127.825C91.6015 128.184 91.3884 128.507 91.1092 128.767C90.2775 129.271 89.3187 129.527 88.3462 129.504C87.3737 129.481 86.428 129.181 85.6209 128.638C84.7159 127.884 85.3193 125.382 85.197 122.893C85.1404 122.324 85.1459 121.75 85.2135 121.181C85.8349 121.069 86.4684 121.04 87.0973 121.096C88.175 121.03 90.1208 120.669 91.2984 120.445C91.5809 121.481 91.7273 122.55 91.7339 123.624ZM85.1573 121.22L85.168 121.21L85.1437 121.231L85.1534 121.221L85.1321 121.239L85.1709 121.207L85.1573 121.22Z" fill="#212121"/>
<path fill-rule="evenodd" clip-rule="evenodd" d="M43.7897 129.501C48.0189 128.919 60.5843 126.244 66.3907 125.114C71.5443 124.111 85.4269 120.831 85.7907 120.272C86.3872 119.364 86.0526 114.467 85.9294 108.812C83.1571 107.403 46.4213 87.0004 46.2031 87.0489C33.532 89.8639 35.6562 127.716 43.7897 129.501Z" fill="#212121"/>
<path fill-rule="evenodd" clip-rule="evenodd" d="M46.1177 86.3399C41.5975 87.3729 39.2074 92.1152 38.026 96.5831C35.5389 105.746 36.3915 123.477 41.8196 128.726C42.354 129.294 43.0609 129.669 43.8304 129.793V129.784C43.8625 129.965 67.6284 125.687 79.5788 122.788C86.0419 121.207 86.2165 121.002 86.4658 120.47C87.0546 119.16 86.7956 114.412 86.7102 112.074C86.6375 108.474 86.6734 108.738 86.5638 108.485C86.3795 108.194 86.4047 108.27 85.035 107.528C74.2419 101.656 46.884 86.3156 46.1177 86.3399ZM85.231 109.249L85.2931 112.115H85.3008C85.3648 113.645 85.6219 118.445 85.2572 119.801C80.7894 121.671 48.1663 128.551 43.7946 129.201C42.7226 128.808 41.8296 128.039 41.2813 127.037C37.9697 121.896 37.3809 111.119 37.9571 104.491C38.509 98.5667 40.4189 89.3207 46.1332 87.7987C47.724 88.5922 80.0803 106.524 85.231 109.249Z" fill="#212121"/>
<path fill-rule="evenodd" clip-rule="evenodd" d="M29.2096 82.6886C27.8198 83.2478 26.4674 83.8958 25.1608 84.6286C24.573 83.808 23.0618 81.2161 22.4245 80.5953C22.3285 80.4948 22.2115 80.4166 22.0819 80.3663C21.9524 80.316 21.8133 80.2949 21.6747 80.3043C20.1771 80.5146 18.7267 80.9798 17.3863 81.6798C16.8576 80.9348 16.3193 80.0618 15.6645 79.1578C14.0155 76.886 13.6722 76.9782 12.7119 77.4467C11.4415 78.0912 10.2449 78.8718 9.1432 79.7747C9.0462 79.8717 9.08307 79.7902 9.06561 80.2519C9.83288 80.2772 8.97538 80.3936 11.0318 79.3479C11.812 78.9453 12.6153 78.589 13.4374 78.2809C13.5702 78.4131 13.6925 78.5555 13.8031 78.7067C15.5898 81.123 16.2756 83.4908 17.3979 83.2221C18.7021 82.6319 20.0531 82.1514 21.437 81.7855C21.5418 81.7748 21.503 81.7525 21.6136 81.8951C22.5836 83.1823 23.9416 85.6151 24.5527 86.0351C25.2869 86.4619 25.9339 85.6907 29.1883 83.9321C29.6937 84.6111 31.459 87.4241 31.8965 88.2098L32.2923 88.3466C32.4465 87.9043 32.4465 87.9916 32.4067 87.8946C32.1439 87.2844 31.4804 85.9187 31.137 85.2251C29.973 82.8971 29.7577 82.6226 29.2096 82.6886ZM24.833 84.7721H24.8204H24.8359H24.833ZM29.0224 83.7304H29.0166H29.0224ZM29.0224 83.7304L29.004 83.7139L29.0137 83.7216L28.9952 83.7051L29.003 83.711L28.9923 83.6993C29.0037 83.7079 29.0144 83.7173 29.0243 83.7275L29.0224 83.7304ZM13.5897 78.2489H13.6013H13.581H13.5936H13.5693H13.5615C13.5848 78.2489 13.5742 78.2489 13.6042 78.2431L13.5897 78.2489Z" fill="#212121"/>
<path fill-rule="evenodd" clip-rule="evenodd" d="M8.59518 103.855C7.80754 104.103 5.17012 107.212 4.8345 108.041L4.97224 108.429C5.70071 108.167 4.93829 108.552 6.3768 107.108C7.0967 106.399 7.85613 105.731 8.65145 105.107C8.84545 104.964 8.80278 104.98 8.90269 105.023C9.2593 105.202 9.60174 105.407 9.92701 105.638C14.8032 109.01 13.2366 109.018 16.2708 106.253C16.6876 105.858 17.1477 105.51 17.6424 105.218C18.3291 105.596 19.8094 106.705 21.1276 107.575C22.3614 108.361 22.4856 108.212 23.5177 106.946C24.3364 105.929 25.0095 105.006 25.5605 104.361C26.3113 104.825 28.8401 106.669 29.6073 107.279C29.7043 107.354 29.6073 107.33 30.0855 107.306C30.0632 106.831 30.1011 106.926 30.007 106.829C28.698 105.544 27.3115 104.34 25.8554 103.224C25.7535 103.154 25.6346 103.113 25.5113 103.106C25.3881 103.099 25.2653 103.125 25.156 103.183C24.477 103.554 22.5962 105.996 22.0811 106.509C20.7656 105.508 19.3905 104.588 17.9635 103.754C17.8382 103.71 17.705 103.692 17.5725 103.702C17.4399 103.711 17.3108 103.748 17.1933 103.811C15.9018 104.565 14.7447 105.529 13.7692 106.662C12.5353 105.886 9.63696 103.613 8.59518 103.855ZM21.8211 106.777L21.8338 106.766L21.8211 106.777ZM8.93371 104.922H8.9444L8.92498 104.931H8.93664L8.91236 104.941H8.92208L8.90754 104.945L8.94827 104.926L8.93371 104.922ZM25.3267 104.235H25.3209H25.3267ZM25.3267 104.235L25.3034 104.228H25.3151L25.2928 104.219L25.2782 104.212C25.2969 104.217 25.315 104.224 25.3325 104.232L25.3267 104.235Z" fill="#212121"/>
<path fill-rule="evenodd" clip-rule="evenodd" d="M27.3792 123.734C27.2608 123.747 27.1468 123.786 27.046 123.849C26.9451 123.913 26.86 123.998 26.7972 124.099C26.2569 124.798 24.9309 127.494 24.7243 127.821C23.5603 127.38 21.3643 126.366 20.4001 126.105C19.8579 125.965 19.6144 126.032 19.0683 126.505C18.1271 127.501 17.3156 128.613 16.653 129.812C15.5433 129.424 12.5935 128.058 11.3326 128.135C11.2155 128.135 11.0998 128.162 10.9949 128.214C10.89 128.266 10.7987 128.341 10.7282 128.435C9.68187 129.839 8.85082 131.392 8.2625 133.042C8.23728 133.159 8.21205 133.082 8.46619 133.484C9.06759 133.096 8.56804 133.456 9.43619 132.059C10.0436 131.085 10.7188 130.156 11.4567 129.277C12.2157 129.474 12.9542 129.743 13.6625 130.08C16.4512 131.279 17.0672 131.776 17.6695 130.909C18.3359 129.758 19.1088 128.671 19.9781 127.664C20.1314 127.523 20.0936 127.539 20.1906 127.567C21.2469 127.902 23.8397 129.072 24.6642 129.275C24.8063 129.327 24.9596 129.34 25.1085 129.314C25.2574 129.287 25.3966 129.222 25.512 129.124C26.0183 128.625 26.9747 126.225 27.646 124.953C28.5296 125.255 31.5745 126.574 32.3078 126.934L32.7103 126.822L32.5988 126.418C32.0371 126.066 28.0757 123.728 27.3792 123.734ZM11.5585 129.182H11.5682L11.5508 129.195L11.5615 129.187L11.5401 129.202L11.5489 129.196L11.5362 129.204L11.5711 129.177L11.5585 129.182ZM24.5313 128.137L24.542 128.124L24.5313 128.137ZM27.3947 124.88C27.3947 124.88 27.3947 124.88 27.3879 124.88H27.3947ZM27.3947 124.88H27.3695H27.3821H27.3579H27.3676H27.352C27.3655 124.878 27.3792 124.877 27.3928 124.878L27.3947 124.88Z" fill="#212121"/>
<path fill-rule="evenodd" clip-rule="evenodd" d="M168.515 153.357C167.309 161.206 168.558 173.791 143.536 182.629C114.607 192.845 92.4594 149.191 92.9308 147.633C93.4255 146.002 95.1861 144.616 96.1493 143.268C97.5885 141.322 99.1433 139.463 100.805 137.703C101.281 137.181 102.092 135.993 102.727 135.741C103.284 135.521 104.124 136.141 104.598 136.323C106.319 136.995 108.079 137.487 109.794 138.182C113.131 139.54 116.584 140.401 119.989 141.533C122.578 142.393 125.824 143.525 128.622 142.834C129.204 142.69 132.405 134.498 134.159 132.31" fill="white"/>
<path fill-rule="evenodd" clip-rule="evenodd" d="M100.387 137.158C99.8053 137.82 98.2145 139.457 96.4782 141.659C95.6139 142.775 95.5169 142.979 95.0581 143.508C94.3218 144.367 92.0511 146.587 92.2237 147.895C92.6199 149.216 93.1524 150.492 93.8126 151.702C96.1359 156.159 98.8458 160.403 101.911 164.386C111.836 177.247 125.773 188.162 141.516 183.953C144.98 182.913 148.344 181.566 151.568 179.927C156.303 177.529 160.809 174.376 163.903 170.119C167.73 164.767 168.021 160.128 168.686 154.337C168.824 153.187 168.88 153.507 168.559 153.064C168.163 153.355 168.233 153.23 168.171 153.613C167.46 158.013 167.483 163.769 163.127 169.549C158.519 175.655 150.136 179.774 142.895 182.146C138.266 183.706 133.286 183.904 128.548 182.716C115.311 179.357 103.991 166.347 97.0766 154.632C95.801 152.539 94.6883 150.351 93.7486 148.087C93.7039 147.973 93.6689 147.856 93.6438 147.736C94.1288 146.343 95.5537 145.283 96.9079 143.405C97.9448 141.983 98.9371 140.812 100.089 139.501C102.768 136.479 102.37 136.743 102.963 136.351C103.326 136.427 103.673 136.564 103.99 136.757C104.991 137.258 107.607 137.969 109.555 138.744C112.542 139.925 115.168 140.593 118.544 141.618C121.089 142.394 123.514 143.344 126.142 143.479C127.055 143.53 127.97 143.432 128.852 143.188C129.566 142.732 131.224 138.276 133.109 134.615C134.522 131.916 134.414 132.839 134.328 132.085L133.916 132.133C132.213 134.212 129.32 141.291 128.429 142.447C127.314 142.663 126.168 142.665 125.052 142.454C123.529 142.189 122.78 141.988 113.593 138.954C110.793 138.012 110.367 137.744 109.025 137.239C107.772 136.774 107.057 136.552 105.932 136.147C105.242 135.931 104.576 135.643 103.946 135.288C102.271 134.51 101.656 135.703 100.387 137.158ZM128.403 142.484L128.41 142.479L128.403 142.484ZM102.959 136.36H102.966H102.959ZM102.959 136.36H102.966H102.959ZM102.959 136.36H102.966H102.959ZM102.968 136.36H102.961H102.968Z" fill="#212121"/>
<path fill-rule="evenodd" clip-rule="evenodd" d="M147.685 58.655C146.618 58.1011 134.256 49.7455 127.454 50.9028C126.166 51.122 124.827 51.0085 123.532 51.2073C122.642 51.455 121.707 51.5017 120.796 51.3441C118.344 50.4711 119.098 45.2903 120.028 43.5841C122.86 38.3936 128.016 36.4226 133.696 36.1403C136.019 35.8976 138.367 36.1215 140.602 36.7989C144.16 37.9901 146.987 40.7177 149.191 43.6258C151.045 46.0712 152.465 49.0927 152.095 52.2481C151.86 53.4439 151.484 54.6076 150.976 55.7149C150.591 56.7615 149.328 59.5076 147.685 58.655Z" fill="#212121"/>
<path fill-rule="evenodd" clip-rule="evenodd" d="M135.584 35.3515C128.861 35.3961 122.916 37.1178 119.569 42.9175C118.277 45.2067 117.77 49.8045 119.732 51.5175C120.896 52.4826 122.148 52.1267 123.637 51.8783C124.584 51.727 125.629 51.7551 126.784 51.6494C127.75 51.4624 128.736 51.3973 129.719 51.4554C136.472 51.9695 145.957 58.1028 147.699 58.9884V58.9807C149.434 59.7053 150.723 57.3889 151.423 55.6371C152.199 53.763 152.707 52.8163 152.625 50.6736C152.431 46.6054 149.666 42.6498 146.708 39.828C145.267 38.3491 143.533 37.1871 141.618 36.4163C139.702 35.6455 137.647 35.2828 135.584 35.3515ZM147.684 58.9807L147.699 58.9865V58.9943C147.507 58.8905 147.56 58.9225 147.684 58.9807ZM135.908 36.8036C138.402 36.743 140.862 37.3969 142.996 38.6883C146.481 40.9154 149.25 44.0992 150.972 47.8587C152.362 51.4544 151.438 53.3799 150.556 55.7321C150.116 56.9553 149.084 58.9574 147.822 58.3967C144.422 56.1376 140.861 54.1311 137.168 52.3934C130.054 49.2778 127.847 50.3098 125.956 50.3797C125.133 50.3842 124.311 50.4331 123.493 50.5262C122.128 50.7202 121.218 51.0422 120.546 50.37C119.561 49.2758 119.816 46.7325 120.171 45.2979C120.335 44.569 120.635 43.8778 121.056 43.2609C124.306 38.1034 129.865 36.8036 135.908 36.8036Z" fill="#212121"/>
<path d="M179.699 221.29C175.035 221.29 171.254 217.66 171.254 213.181C171.254 208.702 175.035 205.072 179.699 205.072C184.364 205.072 188.145 208.702 188.145 213.181C188.145 217.66 184.364 221.29 179.699 221.29Z" fill="#212121"/>
<path fill-rule="evenodd" clip-rule="evenodd" d="M182.044 206.157C183.373 206.517 184.572 207.247 185.5 208.263C186.429 209.279 187.049 210.539 187.288 211.895C187.527 213.25 187.375 214.646 186.85 215.918C186.324 217.191 185.447 218.287 184.321 219.079C179.354 222.584 172.384 219.472 172.002 213.606C171.726 208.283 177.069 204.612 182.044 206.157ZM176.871 204.764C175.602 205.128 174.432 205.775 173.449 206.655C172.466 207.536 171.695 208.627 171.193 209.848C170.692 211.069 170.473 212.387 170.554 213.705C170.635 215.022 171.012 216.304 171.659 217.455C172.512 218.887 173.731 220.065 175.192 220.867C176.652 221.669 178.301 222.067 179.967 222.018C181.632 221.969 183.255 221.476 184.666 220.59C186.077 219.704 187.226 218.457 187.994 216.977C191.423 209.852 184.474 202.431 176.871 204.767V204.764Z" fill="#212121"/>
<path fill-rule="evenodd" clip-rule="evenodd" d="M179.634 217.354C179.634 217.354 173.372 215.122 175.001 210.769C175.152 210.262 175.464 209.817 175.89 209.502C176.315 209.187 176.832 209.018 177.361 209.021C177.891 209.023 178.405 209.197 178.827 209.517C179.25 209.836 179.557 210.284 179.704 210.792C179.852 210.285 180.16 209.839 180.583 209.522C181.006 209.205 181.52 209.033 182.049 209.033C182.578 209.033 183.092 209.205 183.515 209.522C183.938 209.839 184.246 210.285 184.394 210.792C186.022 215.146 179.871 217.249 179.634 217.354Z" fill="white"/>
<path fill-rule="evenodd" clip-rule="evenodd" d="M177.202 208.274C174.913 208.34 173.748 210.747 174.038 212.803C174.22 213.862 174.732 214.837 175.501 215.587C176.609 216.668 177.931 217.505 179.381 218.045V218.035V218.045C179.717 218.142 179.832 218.069 180.178 217.931C182.567 216.974 185.07 215.254 185.376 212.709C185.495 211.539 185.17 210.367 184.467 209.425C184.178 209.078 183.818 208.797 183.412 208.601C183.006 208.405 182.563 208.297 182.112 208.286C181.661 208.275 181.212 208.36 180.797 208.537C180.382 208.713 180.009 208.976 179.703 209.308C179.377 208.976 178.987 208.714 178.558 208.537C178.128 208.359 177.667 208.27 177.202 208.274ZM178.937 210.772C179.044 211.063 179.08 211.473 179.701 211.529C180.346 211.475 180.37 211.036 180.477 210.753C180.635 210.453 180.872 210.201 181.163 210.027C181.454 209.852 181.787 209.761 182.126 209.763C183.158 209.774 183.699 210.7 183.88 211.711C184.261 214.067 181.789 215.688 179.629 216.561C177.495 215.67 175.081 213.927 175.519 211.605C176.071 208.916 178.48 209.617 178.937 210.772Z" fill="#212121"/>
<path fill-rule="evenodd" clip-rule="evenodd" d="M64.5787 155.467C52.9387 155.618 44.1757 165.904 46.8461 177.046C50.1112 190.032 66.6409 194.25 76.8366 185.739C89.2089 175.056 81.3733 155.436 64.5787 155.467ZM69.6547 158.384C71.8151 159.032 73.8174 160.122 75.5349 161.585C86.0176 170.546 80.4819 187.541 65.8834 189.155V189.161C62.5934 189.372 59.3146 188.604 56.4607 186.953C53.6068 185.303 51.3056 182.844 49.8473 179.888C44.1302 167.643 55.9515 154.379 69.6547 158.384Z" fill="#212121"/>
<path fill-rule="evenodd" clip-rule="evenodd" d="M57.4909 176.734L57.554 177.355C60.0866 180.426 64.2227 181.025 67.9582 179.914C69.343 179.457 70.6177 178.718 71.7014 177.743L71.7218 177.72L71.8188 177.099C70.5995 176.919 72.1777 176.954 68.5722 177.72C66.5123 178.29 64.3495 178.382 62.2488 177.988C60.8015 177.813 59.3997 177.369 58.1156 176.679L57.4909 176.734Z" fill="#212121"/>
<path fill-rule="evenodd" clip-rule="evenodd" d="M69.2105 168.929C68.5838 170.221 68.9301 169.358 68.8225 171.487C68.8002 171.778 68.7546 171.529 69.0368 172.505L69.7711 172.914H69.7789L70.5879 172.679L70.9972 171.944C71.0515 171.784 71.0428 169.81 71.0457 169.81L70.7644 169.018L70.0059 168.65H69.9981L69.2105 168.929Z" fill="#212121"/>
<path fill-rule="evenodd" clip-rule="evenodd" d="M58.362 168.714C57.7354 170.006 58.0817 169.142 57.974 171.272C57.9517 171.563 57.9051 171.314 58.1884 172.289L58.9227 172.699H58.9304L59.7394 172.464L60.1487 171.729C60.2205 171.516 60.172 170.151 60.1963 169.595L59.914 168.802L59.1564 168.435H59.1487L58.362 168.714Z" fill="#212121"/>
<path fill-rule="evenodd" clip-rule="evenodd" d="M179.039 87.6026C170.69 87.7103 164.826 95.1948 166.694 102.62C169.005 111.738 180.516 114.572 187.577 108.675C196.151 101.276 190.765 87.5716 179.039 87.6026ZM182.59 89.5717C184.102 90.0271 185.503 90.791 186.705 91.8153C194.021 98.0708 190.197 109.954 179.95 111.093C177.65 111.244 175.356 110.71 173.36 109.558C171.363 108.406 169.753 106.688 168.733 104.621C164.633 95.739 173.387 86.7684 182.59 89.5717Z" fill="#212121"/>
<path fill-rule="evenodd" clip-rule="evenodd" d="M174.46 101.891C171.733 102.066 173.404 107.639 178.328 107.74C179.511 107.873 180.709 107.756 181.844 107.394C184.937 106.255 185.678 103.32 184.395 102.503C184.104 102.333 184.285 102.319 179.243 102.068C178.93 102.053 174.769 101.871 174.46 101.891ZM183.652 103.726C183.611 104.263 183.405 104.774 183.062 105.19C182.546 105.805 181.901 106.3 181.173 106.639C180.444 106.978 179.65 107.152 178.847 107.149C177.894 107.112 176.976 106.786 176.214 106.214C175.451 105.642 174.881 104.852 174.579 103.948C174.517 103.74 174.508 103.52 174.551 103.307C178.601 103.542 181.827 103.627 183.652 103.726ZM183.638 103.648V103.642V103.648ZM183.638 103.64V103.626V103.634V103.645L183.631 103.636L183.637 103.644L183.629 103.63L183.636 103.64L183.627 103.626L183.634 103.638L183.627 103.624L183.634 103.637L183.627 103.623L183.638 103.64ZM174.565 103.282H174.57H174.565ZM174.565 103.282L174.575 103.273L174.565 103.282ZM174.57 103.276L174.579 103.262L174.57 103.276L174.579 103.263L174.569 103.277L174.579 103.265L174.567 103.28L174.577 103.269L174.565 103.282V103.275V103.268L174.57 103.276Z" fill="#212121"/>
<path fill-rule="evenodd" clip-rule="evenodd" d="M181.359 97.2541C180.674 97.6421 180.049 97.8778 180.332 98.6247C180.482 98.8876 180.616 98.9701 181.473 99.5598C182.129 99.9674 182.829 100.3 183.559 100.551L183.967 100.476L183.888 100.068C183.425 99.4652 182.902 98.9108 182.327 98.4133C182.145 98.3221 182.41 98.4307 183.602 97.2978C184.156 96.7788 184.016 97.0019 184.196 96.4869L183.8 96.3481C182.944 96.5182 182.119 96.8241 181.359 97.2541Z" fill="#212121"/>
<path fill-rule="evenodd" clip-rule="evenodd" d="M174.142 96.0562L174.281 96.452C174.59 96.7226 174.976 97.1038 175.348 97.4142C176.036 97.9758 176.154 97.9108 176.008 97.9836C175.435 98.4826 174.912 99.0369 174.447 99.6384L174.367 100.047L174.777 100.121C174.828 100.106 175.331 99.9158 175.605 99.7965C176.047 99.6227 176.468 99.3998 176.86 99.1321C176.998 98.9943 177.785 98.5792 178.004 98.195C178.286 97.4472 177.656 97.2124 176.976 96.8244C176.218 96.39 175.393 96.0839 174.535 95.9185L174.142 96.0562Z" fill="#212121"/>
<path fill-rule="evenodd" clip-rule="evenodd" d="M264.412 170.465C256.082 170.487 249.639 178.133 251.623 186.02C254.604 197.783 271.523 198.753 276.52 187.996C280.348 179.522 273.714 170.35 264.412 170.465ZM268.107 172.453C269.681 172.918 271.139 173.711 272.384 174.782C273.629 175.852 274.632 177.174 275.327 178.661C278.631 186.058 273.35 194.037 265.359 194.832C258.395 195.206 252.555 189.898 252.626 183.289C252.717 175.458 260.648 170.181 268.108 172.453H268.107Z" fill="#212121"/>
<path fill-rule="evenodd" clip-rule="evenodd" d="M259.662 185.294C259.289 185.315 258.938 185.484 258.689 185.762C258.439 186.041 258.309 186.407 258.328 186.781C258.246 188.981 260.911 191.52 264.171 191.326C269.991 191.841 272.038 186.234 269.595 185.784C268.852 185.651 260.127 185.27 259.662 185.294ZM269.225 187.147C269.234 187.348 269.203 187.55 269.134 187.739C268.682 189.137 266.947 190.625 264.213 190.737C264.213 190.857 260.801 190.396 259.836 187.693C259.715 187.393 259.676 187.066 259.722 186.745V186.737L259.732 186.712C259.832 186.712 269.125 187.14 269.225 187.147ZM269.211 187.076L269.205 187.069L269.211 187.076ZM269.211 187.066L269.216 187.077L269.206 187.064V187.07L269.196 187.056L269.203 187.066L269.195 187.052L269.203 187.065L269.195 187.051V187.057V187.064L269.189 187.051L269.211 187.066ZM259.75 186.697L259.756 186.691L259.75 186.697ZM259.75 186.697L259.76 186.689L259.75 186.697ZM259.75 186.692L259.755 186.686L259.76 186.679L259.75 186.694L259.76 186.681L259.748 186.696L259.759 186.684L259.747 186.697V186.69L259.754 186.68L259.745 186.695L259.75 186.686L259.755 186.679L259.75 186.692Z" fill="#212121"/>
<path fill-rule="evenodd" clip-rule="evenodd" d="M266.061 180.927C265.924 181.01 265.819 181.136 265.761 181.286C265.702 181.435 265.694 181.6 265.738 181.754C265.844 182.045 265.861 182.045 266.641 182.608C267.284 183.08 267.991 183.456 268.74 183.725C269.203 183.907 269.031 183.884 269.516 183.794C269.419 183.299 269.502 183.465 269.184 183.094C268.771 182.578 268.309 182.103 267.802 181.678L267.714 181.607C268.357 181.174 268.959 180.683 269.515 180.143C269.647 180.024 269.584 180.143 269.75 179.658L269.355 179.52C268.179 179.78 267.062 180.257 266.061 180.927Z" fill="#212121"/>
<path fill-rule="evenodd" clip-rule="evenodd" d="M259.341 179.216L259.479 179.611L259.489 179.621C260.073 180.187 260.705 180.703 261.377 181.161C260.762 181.673 260.203 182.248 259.71 182.878C259.622 182.975 259.666 182.888 259.575 183.347C260.045 183.434 259.958 183.433 260.06 183.393C260.787 183.136 261.483 182.796 262.134 182.381C262.202 182.348 262.986 181.786 263.177 181.615C263.289 181.5 263.359 181.351 263.378 181.192C263.396 181.032 263.362 180.871 263.28 180.733C263.149 180.545 263.139 180.532 262.624 180.24C261.776 179.71 260.845 179.328 259.87 179.11C259.694 179.067 259.805 179.054 259.341 179.216Z" fill="#212121"/>
<path d="M263.986 119.446C252.162 119.446 242.576 110.243 242.576 98.8907C242.576 87.5384 252.162 78.3354 263.986 78.3354C275.811 78.3354 285.397 87.5384 285.397 98.8907C285.397 110.243 275.811 119.446 263.986 119.446Z" fill="#212121"/>
<path fill-rule="evenodd" clip-rule="evenodd" d="M270.26 80.0027C285.991 84.7848 290.014 104.894 276.364 114.762C263.228 124.055 244.52 116.072 243.347 100.036C242.656 85.6918 256.781 75.9103 270.26 80.0027ZM257.154 78.6331C239.957 84.1621 236.391 105.696 250.859 116.035C261.867 123.855 277.854 120.313 284.001 108.013C292.247 91.0831 275.557 72.9363 257.154 78.6331Z" fill="#212121"/>
<path fill-rule="evenodd" clip-rule="evenodd" d="M263.824 109.468C263.824 109.468 247.948 103.804 252.076 92.7764C254.837 85.3957 263.199 88.4366 263.999 92.8346C264.799 88.4366 273.127 85.4539 275.889 92.8346C280.015 103.863 264.422 109.203 263.824 109.468Z" fill="white"/>
<path fill-rule="evenodd" clip-rule="evenodd" d="M263.787 110.204C264.012 110.198 263.973 110.204 264.49 109.999C269.899 107.911 276.033 103.964 277.148 98.262C277.586 95.6944 277.082 93.0552 275.728 90.8298C272.765 86.0895 266.61 87.0003 263.999 90.8803C263.305 89.8206 262.34 88.9664 261.204 88.4068C256.594 86.0846 251.757 88.6095 250.769 94.8505C250.116 99.3814 252.446 103.017 256.023 105.895C258.361 107.741 260.983 109.196 263.787 110.204ZM262.951 92.02C263.117 92.3609 263.237 92.7219 263.309 93.0938C263.37 93.2548 263.484 93.3896 263.633 93.4748C263.783 93.56 263.957 93.5903 264.126 93.5604C264.939 93.3451 264.496 92.8251 265.274 91.6252C267.09 88.8219 272.583 87.3408 274.974 92.5535C278.299 100.185 271.531 105.622 263.819 108.679C263.722 108.582 248.601 103.105 252.889 92.7213C255.191 87.2117 261.249 88.7201 262.951 92.02Z" fill="#212121"/>
<path d="M75.2002 44.7828C69.5361 44.7828 64.9444 40.3744 64.9444 34.9363C64.9444 29.4983 69.5361 25.0898 75.2002 25.0898C80.8644 25.0898 85.456 29.4983 85.456 34.9363C85.456 40.3744 80.8644 44.7828 75.2002 44.7828Z" fill="#212121"/>
<path fill-rule="evenodd" clip-rule="evenodd" d="M78.0927 26.2559C79.7338 26.7021 81.214 27.606 82.3605 28.8621C83.507 30.1181 84.2724 31.6744 84.5674 33.3493C84.8623 35.0241 84.6747 36.7483 84.0263 38.3205C83.3779 39.8927 82.2956 41.2479 80.9058 42.2279C74.7501 46.5977 66.0647 42.5916 65.6971 35.4631C65.3033 29.2425 71.5937 24.2887 78.0927 26.2559ZM71.812 24.8668C70.2944 25.3024 68.895 26.0758 67.7186 27.1289C66.5423 28.182 65.6194 29.4876 65.0192 30.9479C64.4189 32.4083 64.1569 33.9855 64.2526 35.5615C64.3483 37.1375 64.7994 38.6714 65.572 40.0483C66.5922 41.7633 68.0524 43.1745 69.8014 44.1355C71.5503 45.0966 73.5243 45.5726 75.5191 45.5143C77.5138 45.4561 79.4567 44.8656 81.1465 43.8041C82.8364 42.7426 84.2117 41.2487 85.1301 39.477C89.2507 30.9099 80.8369 22.0684 71.812 24.8668Z" fill="#212121"/>
<path fill-rule="evenodd" clip-rule="evenodd" d="M75.1217 40.0037C75.1217 40.0037 67.5168 37.2877 69.4957 32.008C69.68 31.3918 70.0589 30.852 70.5756 30.4691C71.0924 30.0863 71.7192 29.8811 72.3624 29.8843C73.0055 29.8875 73.6302 30.0988 74.1432 30.4867C74.6562 30.8746 75.0297 31.4182 75.208 32.0361C75.3872 31.4196 75.7617 30.8778 76.2752 30.4924C76.7887 30.1069 77.4134 29.8985 78.0554 29.8985C78.6975 29.8985 79.3222 30.1069 79.8357 30.4924C80.3492 30.8778 80.7237 31.4196 80.9029 32.0361C82.8778 37.3187 75.4088 39.8766 75.1217 40.0037Z" fill="white"/>
<path fill-rule="evenodd" clip-rule="evenodd" d="M75.078 40.7398C75.2642 40.735 75.2487 40.7447 75.7211 40.5584C77.8949 39.6787 80.2306 38.2634 81.3471 36.2012C81.9056 35.1609 82.0941 33.9617 81.8815 32.8002C81.6689 31.6388 81.068 30.584 80.1773 29.8089C79.4113 29.2926 78.483 29.0743 77.5672 29.1953C76.6514 29.3162 75.8116 29.7681 75.206 30.4656C74.8303 30.0517 74.3732 29.7197 73.8633 29.4906C73.3534 29.2614 72.8017 29.1399 72.2427 29.1338C70.3308 29.158 69.1435 30.4627 68.6255 32.3028C67.7651 35.5271 69.8671 38.0035 72.7548 39.6854C73.487 40.1233 74.2663 40.477 75.078 40.7398ZM72.265 30.6072C72.6772 30.6134 73.0815 30.7216 73.4417 30.9222C73.8019 31.1228 74.1068 31.4095 74.3291 31.7567C74.5804 32.2174 74.3961 32.3668 74.8413 32.6762C74.9903 32.7612 75.1642 32.7916 75.3332 32.762C75.5021 32.7324 75.6554 32.6448 75.7667 32.5142C76.0014 32.1844 75.8637 32.2232 76.0363 31.8498C76.3223 31.3434 76.7839 30.9593 77.3338 30.77C77.8837 30.5807 78.4839 30.5994 79.021 30.8226C79.565 31.2082 79.9887 31.74 80.2429 32.3565C80.4972 32.9729 80.5716 33.6488 80.4576 34.3058C80.0793 36.6794 77.3536 38.3148 75.1226 39.2131C72.9546 38.3245 70.3036 36.5717 69.9409 34.2418C69.8248 33.3132 70.0302 32.3729 70.5228 31.5772C70.7016 31.276 70.957 31.0275 71.263 30.8571C71.5691 30.6868 71.9148 30.6005 72.265 30.6072Z" fill="#212121"/>
<path d="M82.7866 227.557C77.1225 227.557 72.5308 223.149 72.5308 217.711C72.5308 212.273 77.1225 207.864 82.7866 207.864C88.4507 207.864 93.0424 212.273 93.0424 217.711C93.0424 223.149 88.4507 227.557 82.7866 227.557Z" fill="#212121"/>
<path fill-rule="evenodd" clip-rule="evenodd" d="M85.6801 209.035C87.3211 209.481 88.8013 210.385 89.9478 211.641C91.0943 212.897 91.8597 214.454 92.1547 216.129C92.4497 217.803 92.262 219.528 91.6137 221.1C90.9653 222.672 89.883 224.027 88.4931 225.007C82.354 229.365 73.6521 225.395 73.2855 218.242C72.8907 212.017 79.1811 207.063 85.6801 209.035ZM79.3994 207.646C77.8818 208.082 76.4826 208.855 75.3063 209.908C74.1301 210.962 73.2073 212.267 72.6072 213.727C72.007 215.188 71.7451 216.765 71.8408 218.341C71.9366 219.917 72.3877 221.451 73.1603 222.828C74.1808 224.542 75.6411 225.953 77.3899 226.914C79.1388 227.875 81.1128 228.351 83.1074 228.293C85.102 228.234 87.0447 227.644 88.7346 226.583C90.4244 225.521 91.7998 224.028 92.7184 222.256C96.838 213.684 88.4233 204.843 79.3994 207.641V207.646Z" fill="#212121"/>
<path fill-rule="evenodd" clip-rule="evenodd" d="M82.708 222.778C82.708 222.778 75.1042 220.062 77.082 214.782C77.266 214.166 77.6447 213.626 78.1615 213.243C78.6782 212.86 79.305 212.655 79.9482 212.658C80.5914 212.661 81.2162 212.872 81.7291 213.26C82.242 213.649 82.6154 214.192 82.7934 214.81C82.9729 214.194 83.3476 213.652 83.8611 213.267C84.3746 212.882 84.9993 212.674 85.6413 212.674C86.2833 212.674 86.908 212.882 87.4215 213.267C87.935 213.652 88.3097 214.194 88.4892 214.81C90.4641 220.093 82.9961 222.651 82.708 222.778Z" fill="white"/>
<path fill-rule="evenodd" clip-rule="evenodd" d="M82.6692 223.513C82.8555 223.513 82.8399 223.519 83.3114 223.333C85.4851 222.453 87.8209 221.038 88.9374 218.976C89.4967 217.936 89.6862 216.737 89.4747 215.576C89.2632 214.414 88.6633 213.359 87.7734 212.583C87.0074 212.067 86.0791 211.849 85.1633 211.97C84.2475 212.091 83.4077 212.543 82.8021 213.24C82.4265 212.826 81.9695 212.494 81.4595 212.265C80.9496 212.035 80.3978 211.914 79.8388 211.908C77.9259 211.932 76.7348 213.237 76.2207 215.076C75.3603 218.301 77.4632 220.778 80.3509 222.46C81.0812 222.898 81.859 223.251 82.6692 223.513ZM79.8504 213.382C80.2627 213.388 80.667 213.496 81.0272 213.697C81.3874 213.897 81.6923 214.184 81.9146 214.531C82.1668 214.991 81.9825 215.141 82.4267 215.451C82.5759 215.536 82.75 215.566 82.919 215.536C83.0881 215.507 83.2416 215.419 83.3531 215.289C83.5868 214.959 83.4501 214.998 83.6218 214.623C83.9081 214.117 84.3697 213.733 84.9196 213.544C85.4694 213.355 86.0695 213.374 86.6065 213.597C87.1508 213.982 87.5748 214.514 87.8292 215.131C88.0837 215.747 88.1581 216.423 88.044 217.08C87.6657 219.454 84.94 221.089 82.709 221.987C80.541 221.099 77.891 219.346 77.5273 217.016C77.4124 216.087 77.6199 215.146 78.1151 214.352C78.2933 214.051 78.5476 213.804 78.8523 213.633C79.157 213.463 79.5014 213.376 79.8504 213.382Z" fill="#212121"/>
<path fill-rule="evenodd" clip-rule="evenodd" d="M45.914 89.4185C46.2709 89.8656 47.4844 94.3984 47.2409 102.067C46.914 112.326 44.9575 126.387 44.2679 126.414C37.1433 126.745 37.1122 89.725 45.914 89.4185Z" fill="white"/>
<path fill-rule="evenodd" clip-rule="evenodd" d="M45.75 89.1301C43.0253 89.2679 41.323 92.725 40.4606 95.3129C38.3033 101.789 37.96 110.793 38.9086 117.52C39.3936 120.876 40.6313 126.929 44.0234 127.148C44.1817 127.18 44.3456 127.171 44.4988 127.119C44.652 127.068 44.7891 126.978 44.8964 126.857C46.0527 125.431 48.7764 104.479 47.3806 94.2963C47.2361 93.2041 46.6929 89.9381 46.1565 89.2436C46.0226 89.102 45.9207 89.1214 45.75 89.1301ZM46.4416 93.1896C46.819 96.7821 46.8612 100.402 46.5677 104.002C46.2505 108.874 44.9061 122.47 43.8585 125.647C38.445 124.284 37.895 90.8655 45.6938 89.7335L45.7413 89.7276C46.0841 90.8568 46.3186 92.016 46.4416 93.1896Z" fill="#212121"/>
<path fill-rule="evenodd" clip-rule="evenodd" d="M51.7912 97.9631L51.2781 98.6305V98.6372L51.3925 99.4714C52.2461 100.129 51.8649 99.9254 52.9445 100.213C58.9643 101.826 65.3993 104.694 73.2806 108.066C74.6581 108.635 75.9973 109.293 77.2896 110.036C79.5448 111.383 78.5419 111.226 79.604 111.138L79.5487 110.518C79.0081 110.035 78.4365 109.589 77.8376 109.181C75.0149 107.257 65.9804 102.999 63.7338 101.979C60.15 100.306 56.4371 98.9247 52.6312 97.8486L51.7912 97.9631Z" fill="white"/>
</svg>