<svg width="30" height="30" viewBox="0 0 30 30" fill="none" xmlns="http://www.w3.org/2000/svg">
<path d="M5.3125 0H24.6875C27.625 0 30 2.38209 30 5.32836V24.009C30 26.9552 27.625 29.3373 24.6875 29.3373H5.3125C2.375 29.3373 0 26.9552 0 24.009V5.32836C0 2.38209 2.375 0 5.3125 0Z" fill="#001E36"/>
<path d="M6.75 20.5738V7.67285C6.75 7.58509 6.7875 7.53494 6.875 7.53494C7.0875 7.53494 7.2875 7.53494 7.575 7.5224C7.875 7.50987 8.1875 7.50987 8.525 7.49733C8.8625 7.48479 9.225 7.48479 9.6125 7.47225C10 7.45972 10.375 7.45972 10.75 7.45972C11.775 7.45972 12.625 7.58509 13.325 7.84837C13.95 8.06151 14.525 8.41255 15 8.87643C15.4 9.27763 15.7125 9.76658 15.9125 10.3057C16.1 10.8323 16.2 11.3714 16.2 11.9355C16.2 13.0137 15.95 13.9039 15.45 14.606C14.95 15.3081 14.25 15.8346 13.4375 16.1355C12.5875 16.449 11.65 16.5618 10.625 16.5618C10.325 16.5618 10.125 16.5618 10 16.5493C9.875 16.5367 9.7 16.5367 9.4625 16.5367V20.5612C9.475 20.649 9.4125 20.7242 9.325 20.7367H6.9C6.8 20.7367 6.75 20.6866 6.75 20.5738ZM9.475 9.95464V14.1672C9.65 14.1797 9.8125 14.1923 9.9625 14.1923H10.625C11.1125 14.1923 11.6 14.117 12.0625 13.9666C12.4625 13.8537 12.8125 13.6155 13.0875 13.3021C13.35 12.9887 13.475 12.5624 13.475 12.0108C13.4875 11.6221 13.3875 11.2334 13.1875 10.8949C12.975 10.569 12.675 10.3182 12.3125 10.1803C11.85 9.99225 11.35 9.91703 10.8375 9.92957C10.5125 9.92957 10.225 9.92957 9.9875 9.94211C9.7375 9.92957 9.5625 9.94211 9.475 9.95464Z" fill="#31A8FF"/>
<path d="M24 13.4025C23.625 13.2019 23.225 13.064 22.8 12.9763C22.3375 12.876 21.875 12.8133 21.4 12.8133C21.15 12.8007 20.8875 12.8383 20.65 12.901C20.4875 12.9386 20.35 13.0264 20.2625 13.1518C20.2 13.2521 20.1625 13.3774 20.1625 13.4903C20.1625 13.6031 20.2125 13.716 20.2875 13.8163C20.4 13.9542 20.55 14.067 20.7125 14.1548C21 14.3052 21.3 14.4431 21.6 14.5685C22.275 14.7942 22.925 15.1076 23.525 15.4837C23.9375 15.747 24.275 16.098 24.5125 16.5243C24.7125 16.9255 24.8125 17.3643 24.8 17.8157C24.8125 18.4049 24.6375 18.9942 24.3125 19.4831C23.9625 19.9846 23.475 20.3733 22.9125 20.5989C22.3 20.8622 21.55 21.0001 20.65 21.0001C20.075 21.0001 19.5125 20.95 18.95 20.8371C18.5125 20.7619 18.075 20.624 17.675 20.436C17.5875 20.3858 17.525 20.298 17.5375 20.1977V18.0163C17.5375 17.9786 17.55 17.9285 17.5875 17.9034C17.625 17.8783 17.6625 17.8909 17.7 17.916C18.1875 18.2043 18.7 18.4049 19.25 18.5303C19.725 18.6557 20.225 18.7183 20.725 18.7183C21.2 18.7183 21.5375 18.6557 21.7625 18.5428C21.9625 18.4551 22.1 18.2419 22.1 18.0163C22.1 17.8407 22 17.6777 21.8 17.5148C21.6 17.3518 21.1875 17.1637 20.575 16.9255C19.9375 16.6998 19.35 16.3989 18.8 16.0228C18.4125 15.747 18.0875 15.3834 17.85 14.9572C17.65 14.556 17.55 14.1171 17.5625 13.6783C17.5625 13.1392 17.7125 12.6252 17.9875 12.1613C18.3 11.6598 18.7625 11.2586 19.3 11.0079C19.8875 10.707 20.625 10.5691 21.5125 10.5691C22.025 10.5691 22.55 10.6067 23.0625 10.6819C23.4375 10.7321 23.8 10.8324 24.1375 10.9703C24.1875 10.9828 24.2375 11.033 24.2625 11.0831C24.275 11.1333 24.2875 11.1834 24.2875 11.2336V13.2772C24.2875 13.3273 24.2625 13.3774 24.225 13.4025C24.1125 13.4276 24.05 13.4276 24 13.4025Z" fill="#31A8FF"/>
</svg>
