<svg width="30" height="30" viewBox="0 0 30 30" fill="none" xmlns="http://www.w3.org/2000/svg">
<path d="M29.3684 0.640869H0.947357V29.3777H29.3684V0.640869Z" fill="#FCDC00"/>
<path d="M28.4211 1.57895V28.4211H1.57895V1.57895H28.4211ZM30 0H0V30H30V0Z" fill="#173647"/>
<path d="M17.6179 25.8949L15.7989 24.6317H14.4158L12.581 25.8633L9.22104 24.4549L8.82946 22.2443L7.8663 21.2591L5.67788 20.8675L4.3042 17.5043L5.56736 15.6791V14.2959L4.3042 12.4643L5.70315 9.11697L7.89473 8.7254L8.90525 7.75276L9.30946 5.56118L12.6695 4.1875L14.4916 5.45066H15.8653L17.6968 4.1875L21.0568 5.58645L21.4358 7.77803L22.4084 8.76013L24.6 9.16118L25.9421 12.5117L24.6379 14.3433V15.717L25.9326 17.5612L24.54 20.9307L22.3547 21.3096L21.3758 22.2822L20.9747 24.4928L17.6179 25.8949ZM13.9263 23.0528H16.2947L17.8168 24.0854L19.5821 23.3686L19.9168 21.5307L21.6031 19.8538L23.4316 19.538L24.1358 17.7791L23.0526 16.2254V13.8696L24.1484 12.338L23.4316 10.5791L21.6095 10.2443L19.9579 8.55803L19.6421 6.72961L17.8737 6.00013L16.3421 7.05487H13.98L12.461 5.99066L10.6958 6.69487L10.3579 8.52645L8.67473 10.197L6.8463 10.5128L6.11051 12.2717L7.16525 13.8033V16.1749L6.10104 17.6938L6.82736 19.4591L8.65894 19.7749L10.3105 21.4738L10.6263 23.3117L12.3853 24.0791L13.9263 23.0528Z" fill="#173647"/>
<path d="M18.9127 10.9547L17.899 12.1641C18.578 12.7321 19.0656 13.4954 19.2957 14.3502C19.5258 15.205 19.4871 16.1099 19.1849 16.9419C18.8827 17.774 18.3317 18.4928 17.6067 19.0008C16.8817 19.5087 16.0179 19.7811 15.1327 19.781C15.06 19.781 14.9906 19.781 14.9211 19.781L17.9842 14.9526L14.5106 14.1852L17.1158 9.61888L15.7295 8.84204L12.1042 15.2526L15.4484 15.9947L13.3074 19.3705C12.6802 19.0776 12.1328 18.6378 11.7118 18.0884C11.2907 17.5389 11.0084 16.896 10.8888 16.2142C10.7692 15.5324 10.8157 14.8318 11.0246 14.1718C11.2334 13.5118 11.5984 12.912 12.0884 12.4231L10.9706 11.3052C10.1307 12.1443 9.56409 13.2176 9.34495 14.3844C9.12581 15.5512 9.26441 16.7569 9.74256 17.8436C10.2207 18.9302 11.0161 19.847 12.0244 20.4736C13.0327 21.1003 14.2069 21.4076 15.3929 21.3553C16.5789 21.3029 17.7214 20.8933 18.6706 20.1803C19.6198 19.4672 20.3313 18.484 20.7119 17.3594C21.0925 16.2349 21.1243 15.0216 20.8032 13.8787C20.4821 12.7357 19.8231 11.7165 18.9127 10.9547Z" fill="#173647"/>
</svg>
