<svg width="300" height="300" viewBox="0 0 300 300" fill="none" xmlns="http://www.w3.org/2000/svg">
<path fill-rule="evenodd" clip-rule="evenodd" d="M127.1 10.091C128.129 10.0213 129.158 10.2285 130.08 10.691C130.693 11.186 130.725 11.847 130.865 13.125C131.895 22.725 133.848 92.992 133.529 93.796C133.103 94.511 132.71 94.487 131.884 94.614C113.984 97.419 91.2 103.814 73.684 109.761C27.521 125.513 14.46 138.037 12.774 138.739C12.6099 138.791 12.4366 138.807 12.2658 138.786C12.095 138.766 11.9305 138.709 11.7833 138.62C11.6362 138.531 11.5097 138.411 11.4124 138.269C11.3151 138.127 11.2491 137.966 11.219 137.797C9.60699 132.41 5.31899 55.5 5.00899 48.819C4.98149 48.5598 5.01582 48.2978 5.10916 48.0544C5.20251 47.8111 5.35221 47.5933 5.54599 47.419C12.8 39.548 108.728 10.116 127.1 10.091ZM13.07 135.845C40.115 115.967 97.739 97.363 131.028 92.106C128.687 3.24301 128.475 17.022 128.293 12.674C126.632 12.5469 124.963 12.6076 123.316 12.855C106 14.941 64.941 26.768 47.138 32.347C42.915 33.672 8.32199 44.524 6.09999 48.431C5.93799 48.719 11.345 124.421 13.07 135.845ZM5.28999 49.007L5.29999 49L5.28999 49.007Z" fill="black"/>
<path fill-rule="evenodd" clip-rule="evenodd" d="M19.27 55.357C19.331 56.805 23.496 111.515 23.77 111.351C29.963 107.671 55.943 98.303 59.515 96.336C60.108 96.009 56.833 46.172 56.185 43.936C55.349 41.054 19.264 55.2 19.27 55.357Z" fill="#212121"/>
<path fill-rule="evenodd" clip-rule="evenodd" d="M55.219 42.451C55.5797 42.4124 55.9442 42.4697 56.2757 42.617C56.6071 42.7643 56.8939 42.9965 57.107 43.29C58.207 45.254 60.576 86.257 60.791 91.517C61 96.757 61.091 97.006 59.815 97.655C57.492 98.81 50.615 101.455 44.541 103.834C24.201 111.802 25.231 112.097 24.221 112.493C24.0565 112.558 23.8801 112.587 23.7036 112.577C23.527 112.568 23.3546 112.521 23.1978 112.439C23.0411 112.357 22.9037 112.243 22.7951 112.104C22.6864 111.964 22.609 111.803 22.568 111.631C21.891 108.763 18.678 55.389 18.75 55.383C18.7453 55.2794 18.7712 55.1767 18.8245 55.0878C18.8779 54.9988 18.9563 54.9276 19.05 54.883C20.39 54.166 49.031 42.415 55.219 42.451ZM19.826 55.68C19.865 56.149 24.599 107.81 24.76 109.412C32.713 105.381 53.392 97.784 58.279 95.493C58.344 89.909 55.692 48.77 55.179 44.651C50.781 44.328 24.3 53.862 19.826 55.68ZM55.5 44.693L55.48 44.686L55.5 44.693ZM55.478 44.686L55.501 44.692L55.478 44.686ZM55.492 44.691L55.477 44.685L55.492 44.691ZM55.492 44.691L55.472 44.685L55.492 44.691Z" fill="#212121"/>
<path fill-rule="evenodd" clip-rule="evenodd" d="M68.412 40.482C68.358 39.943 68.9 39.559 69.372 39.282C75.128 35.882 110.928 26.647 115.814 26.755C116.182 26.7315 116.546 26.8428 116.838 27.0683C117.13 27.2938 117.33 27.6179 117.4 27.98C118.071 30.348 119.641 46.053 119.183 48.222C119.141 48.4531 119.044 48.6707 118.9 48.8559C118.755 49.0411 118.568 49.1884 118.354 49.285C117.968 49.3946 117.572 49.4679 117.172 49.504C110.586 50.72 74.972 60.126 70.372 59.325C70.1179 59.3056 69.8767 59.2054 69.6838 59.0389C69.4908 58.8724 69.3563 58.6485 69.3 58.4C68.952 56.609 68.748 48.913 68.5 42.483C68.433 40.662 68.406 40.505 68.412 40.482ZM115.056 29.366C110.056 29.915 72.189 38.074 69.473 40.504C69.704 42.46 70.561 54.704 71.003 57.511C75.837 57.365 109.013 48.384 116.658 46.942C116.717 43.652 115.265 29.345 115.056 29.366Z" fill="#212121"/>
<path fill-rule="evenodd" clip-rule="evenodd" d="M120.682 58.787L120.864 59.133V59.14L120.739 59.511C120.011 59.895 121.139 59.483 116.732 60.194C106.824 61.807 89.547 66.417 80.311 69.394C72.036 72.082 74.829 71.794 72.706 71.908L71.957 71.244V71.237L71.902 70.237C72.693 69.344 72.49 69.522 72.802 69.38C81.294 65.68 109.482 59.108 120.309 58.656L120.682 58.787Z" fill="#212121"/>
<path fill-rule="evenodd" clip-rule="evenodd" d="M121.526 72.048L121.708 72.393V72.4L121.583 72.771C120.855 73.155 121.983 72.743 117.576 73.454C107.668 75.068 90.391 79.678 81.155 82.654C72.603 85.433 75.777 85.047 73.55 85.168L72.801 84.504V84.498L72.747 83.498C73.538 82.606 73.335 82.784 73.647 82.641C82.139 78.941 110.327 72.369 121.154 71.917L121.526 72.048Z" fill="#212121"/>
<path fill-rule="evenodd" clip-rule="evenodd" d="M294.633 40.767C294.905 41.219 294.861 40.742 294.902 47.305C294.932 52.17 295.366 126.221 294.066 130.934C294.035 131.116 293.961 131.289 293.851 131.437C293.74 131.586 293.596 131.706 293.431 131.789C293.265 131.871 293.082 131.913 292.897 131.912C292.712 131.911 292.53 131.866 292.366 131.781C288.907 129.524 285.323 127.463 281.633 125.607C252.346 110.621 201.167 97.862 170.338 95.059C170.057 95.0335 169.793 94.9181 169.583 94.73C169.374 94.5403 169.23 94.2899 169.172 94.014C169.063 93.066 166.372 19.014 167.129 12.514C167.125 12.114 167.261 11.7253 167.514 11.4157C167.767 11.1061 168.121 10.8952 168.514 10.82C179.15 6.98597 289.834 33.224 294.633 40.767ZM293.794 41.421C293.795 41.4458 293.799 41.4705 293.803 41.495H293.813C293.806 41.4343 293.784 41.3762 293.749 41.326L293.755 41.335C290.715 36.607 240.455 25.035 234.977 23.792C226.516 21.878 178.045 11.24 169.592 13.105C169.676 17.397 168.679 5.36797 171.72 92.556C199.208 95.186 243.728 105.889 273.355 119.063C288.171 125.689 292.099 129.363 292.141 128.883C293.326 115.283 293.694 41.421 293.794 41.421ZM294.583 41.842H294.578H294.586C294.509 41.716 294.03 40.893 294.583 41.842Z" fill="black"/>
<path fill-rule="evenodd" clip-rule="evenodd" d="M281.021 49.041C281.049 50.49 280.237 105.353 279.952 105.206C273.545 101.912 247.042 94.151 243.352 92.406C242.74 92.116 242.962 42.172 243.472 39.906C244.135 36.973 281.018 48.881 281.021 49.041Z" fill="#212121"/>
<path fill-rule="evenodd" clip-rule="evenodd" d="M244.9 38.344C251.468 38.444 278.754 47.469 281.187 48.544C281.29 48.5811 281.38 48.6489 281.443 48.7382C281.507 48.8276 281.542 48.9343 281.543 49.044C281.443 49.044 281.116 49.049 281.55 49.044C281.628 51.991 281.668 102.544 281.172 105.421C281.142 105.595 281.074 105.76 280.975 105.905C280.875 106.05 280.745 106.172 280.594 106.263C280.418 106.365 280.221 106.426 280.018 106.441C279.345 106.454 279.837 106.321 275.466 104.65C266.345 101.195 250.034 96.35 244.16 94.15C243.514 93.9848 242.908 93.6909 242.379 93.286C241.93 92.712 241.785 92.799 241.71 81.086C241.673 74.669 241.746 43.942 242.359 39.848C242.557 38.61 243.66 38.33 244.9 38.344ZM244.528 40.552C244.255 44.886 244.137 84.98 244.534 91.39C244.575 91.976 269.698 99.376 278.848 103.331C278.943 100.904 280.47 50.239 280.488 49.398C275.636 47.764 249.025 40 244.526 40.552H244.528ZM244.212 40.615L244.232 40.606L244.212 40.615ZM244.212 40.615L244.234 40.606L244.212 40.615ZM244.235 40.606L244.221 40.613L244.236 40.606H244.235ZM244.217 40.612L244.237 40.605L244.217 40.612Z" fill="#212121"/>
<path fill-rule="evenodd" clip-rule="evenodd" d="M183.478 26.381C190.514 26.519 226.759 33.549 230.597 36.404C230.739 36.4876 230.857 36.6066 230.94 36.7494C231.022 36.8923 231.066 37.0541 231.067 37.219C231.03 38.412 231.442 50.141 231.344 53.957C231.311 55.039 231.359 55.709 230.509 56.057C226.881 57.422 192.466 50.539 183.637 49.285C181.332 48.968 180.774 49.47 180.649 45.939C180.509 41.656 180.843 32.546 181.222 28.972C181.419 27.143 181.574 26.363 183.478 26.381ZM183.3 46.6C190.812 47.546 224.749 54.518 229.516 54.356C229.761 51.789 229.9 39.687 229.994 37.456C230.104 35.443 188.435 29.135 183.819 28.956C183.347 34.8247 183.174 40.7136 183.3 46.6Z" fill="#212121"/>
<path fill-rule="evenodd" clip-rule="evenodd" d="M182.381 59.376C189.417 59.514 225.663 66.544 229.5 69.399C229.642 69.4826 229.76 69.6016 229.843 69.7444C229.925 69.8873 229.969 70.0491 229.97 70.214C229.933 71.407 230.345 83.135 230.247 86.952C230.214 88.034 230.262 88.704 229.412 89.047C225.784 90.412 191.369 83.53 182.54 82.275C180.24 81.959 179.677 82.461 179.552 78.93C179.412 74.647 179.746 65.536 180.125 61.963C180.322 60.138 180.477 59.358 182.381 59.376ZM182.2 79.6C189.712 80.546 223.649 87.518 228.416 87.356C228.661 84.789 228.8 72.687 228.894 70.456C229.004 68.443 187.335 62.135 182.719 61.956C182.247 67.8247 182.074 73.7136 182.2 79.6Z" fill="#212121"/>
<path fill-rule="evenodd" clip-rule="evenodd" d="M118.766 134.652C128.826 134.695 129.266 147.478 129.266 147.478C129.266 147.478 121.719 177.969 119.185 177.717C113.252 177.131 105.848 175.599 99.297 160.772C94.304 149.472 93.508 114.394 92.83 112.748C92.02 110.778 89.838 109.101 88.744 107.167C86.922 103.948 86.839 99.079 89.511 96.776C90.5523 96.1454 91.7112 95.7337 92.917 95.566C91.8869 93.3219 91.0256 91.0041 90.34 88.632C89.885 87.358 89.291 86.161 89.879 84.926C90.0116 84.6462 90.2083 84.4017 90.4531 84.2121C90.6979 84.0225 90.9839 83.8933 91.288 83.8349C91.592 83.7764 91.9055 83.7904 92.2032 83.8758C92.5008 83.9611 92.7741 84.1153 93.001 84.326C94.187 85.426 97.364 91.512 97.696 92.899C97.79 93.294 102.034 97.251 102.76 100.112C102.927 100.773 106.175 105.769 106.772 106.698C110.509 112.523 112.518 119.477 115.14 125.85C116.021 127.982 117.652 133.364 118.764 134.65C120.434 136.631 121.973 138.72 123.372 140.901" fill="white"/>
<path fill-rule="evenodd" clip-rule="evenodd" d="M93.4 83.334C94.721 84.258 97.064 88.965 97.742 90.406C99.035 93.184 98.208 92.081 99.147 93.147C103.855 98.475 103.075 98.911 103.98 100.535C106.714 105.411 108.521 107.028 111.392 114.1C112.24 116.19 116.248 127.033 116.284 127.136C116.933 129.046 118.246 133.061 119.09 134.219C124.247 134.333 127.221 137.6 128.928 142.467C129.446 144.072 129.774 145.731 129.907 147.412C129.939 148.179 125.574 165.098 122.969 172.58C122.442 174.162 121.789 175.698 121.015 177.175C120.049 178.798 119.543 178.684 118.385 178.575C116.589 178.413 114.818 178.047 113.105 177.483C110.032 176.393 107.287 174.541 105.124 172.101C101.488 167.889 98.7578 162.974 97.104 157.661C93.994 146.8 92.951 127.9 92.177 116.9C91.891 112.942 91.896 113.121 91.398 112.338C90.606 111.104 89.182 109.766 88.19 108.306C85.877 104.854 85.535 99.254 88.49 96.278C89.3003 95.5282 90.3053 95.0216 91.39 94.816C90.7747 93.3222 90.2354 91.7982 89.774 90.25C89.225 88.504 89.105 88.333 88.874 87.593C87.684 83.679 91.034 81.732 93.4 83.334ZM118.96 176.86L118.97 176.853L118.96 176.86ZM118.976 176.849L118.964 176.86L118.973 176.853L118.976 176.849ZM118.967 176.856H118.973H118.967ZM91.588 84.83C91.217 84.837 90.912 85.021 90.737 85.558C90.6461 86.4147 90.8185 87.2787 91.231 88.035C91.9421 90.433 92.8158 92.7798 93.846 95.059C93.9597 95.2672 94.0001 95.5076 93.9608 95.7415C93.9214 95.9755 93.8046 96.1894 93.629 96.349C93.211 96.669 93.229 96.549 92.212 96.791C91.5098 96.9255 90.8379 97.1864 90.229 97.561C88.329 99.085 87.778 103.312 89.702 106.677C90.16 107.407 90.6835 108.094 91.266 108.73C94.14 112.043 93.991 112.219 94.266 115.925C94.922 124.795 95.58 137.579 97.319 148.565C98.51 156.015 99.569 160.073 103.289 166.265C105.589 169.929 107.944 172.765 111.744 174.801C114.035 175.914 116.516 176.584 119.056 176.774C119.989 175.271 120.741 173.663 121.297 171.983C123.965 164.516 126.256 156.258 128.297 148.63C128.678 147.17 128.642 147.61 128.559 146.63C127.976 141.868 126.186 137.122 121.629 135.551C121.048 135.362 120.449 135.23 119.842 135.158C121.23 136.926 122.525 138.764 123.722 140.667L123.599 141.267L122.999 141.137C116.407 131.41 119.282 138.392 114.817 126.748C114.475 125.881 113.978 124.759 113.44 123.368C112.112 120.03 111.071 117.144 109.662 113.939C106.737 107.613 106.509 108.055 103.1 102.576C102.605 101.858 102.188 101.089 101.857 100.282C101.197 98 98.077 94.935 97.103 93.762C96.566 93.101 97.054 93.381 95.403 90.147C94.6564 88.6718 93.8267 87.2402 92.918 85.859C92.55 85.308 92.257 84.818 91.588 84.83ZM103.631 99.862V99.855V99.862ZM103.631 99.862V99.848V99.862ZM98.557 92.457L98.548 92.443L98.557 92.457Z" fill="#212121"/>
<path fill-rule="evenodd" clip-rule="evenodd" d="M88.177 98.26C87.7213 98.0609 87.2164 98.0032 86.7275 98.0943C86.2387 98.1854 85.7884 98.4211 85.435 98.771C84.466 99.682 84.7 101.249 85.109 102.409C85.9758 104.399 87.2447 106.189 88.836 107.665C89.623 108.255 91.617 107.918 91.879 106.744C92.179 105.409 91.62 104.325 91.036 103.105C90.32 101.607 89.444 99.347 88.177 98.26Z" fill="white"/>
<path fill-rule="evenodd" clip-rule="evenodd" d="M87.032 97.513C87.5558 97.5021 88.0693 97.6595 88.497 97.962C89.2655 98.5933 89.9208 99.3508 90.435 100.202C90.972 101.057 92.16 103.192 92.414 103.721C92.8361 104.525 93.0383 105.427 93 106.334C93.0036 106.834 92.859 107.323 92.5846 107.741C92.3101 108.158 91.9181 108.485 91.458 108.68C91.0047 108.897 90.5102 109.016 90.0075 109.027C89.5048 109.038 89.0056 108.942 88.543 108.745C87.3799 107.891 86.3999 106.813 85.661 105.574C84.598 103.943 83.668 102.189 83.911 100.257C83.9835 99.488 84.3469 98.7757 84.927 98.2657C85.5071 97.7556 86.26 97.4864 87.032 97.513ZM86.377 98.887C86.1803 99.0007 86.0115 99.1568 85.8828 99.344C85.754 99.5312 85.6687 99.7447 85.633 99.969C85.5922 100.696 85.7295 101.422 86.033 102.084C86.8854 103.834 88.0401 105.42 89.444 106.769C89.6732 106.861 89.9231 106.889 90.1669 106.849C90.4107 106.81 90.6392 106.705 90.828 106.546C90.9995 105.859 90.9186 105.133 90.6 104.5C90.562 104.4 89.239 100.956 89.2 100.856C88.8996 100.037 88.4628 99.2738 87.908 98.6L87.897 98.593L87.919 98.609L87.907 98.602L87.925 98.614L87.911 98.607L87.926 98.617L87.91 98.61C87.6492 98.5477 87.3783 98.5401 87.1145 98.5878C86.8506 98.6355 86.5995 98.7374 86.377 98.887Z" fill="#212121"/>
<path fill-rule="evenodd" clip-rule="evenodd" d="M92.432 95.728C91.9761 95.5294 91.4712 95.4721 90.9825 95.5634C90.4937 95.6546 90.0435 95.8903 89.69 96.24C88.721 97.151 88.955 98.718 89.363 99.878C90.2305 101.868 91.4993 103.657 93.09 105.134C93.877 105.723 95.872 105.387 96.134 104.212C96.434 102.878 95.875 101.794 95.291 100.574C94.575 99.076 93.7 96.816 92.432 95.728Z" fill="white"/>
<path fill-rule="evenodd" clip-rule="evenodd" d="M91.287 94.982C91.8108 94.9711 92.3243 95.1285 92.752 95.431C93.5202 96.0621 94.1756 96.8192 94.69 97.67C95.227 98.526 96.414 100.661 96.669 101.19C97.0921 101.994 97.2953 102.895 97.258 103.803C97.2615 104.303 97.1168 104.792 96.8424 105.21C96.568 105.627 96.176 105.954 95.716 106.149C95.2625 106.366 94.7678 106.485 94.265 106.496C93.7622 106.507 93.2627 106.411 92.8 106.214C91.6374 105.36 90.6578 104.282 89.919 103.043C88.856 101.412 87.926 99.658 88.169 97.726C88.2414 96.9575 88.6044 96.2456 89.1839 95.7357C89.7633 95.2257 90.5155 94.9562 91.287 94.982ZM90.632 96.356C90.4353 96.4696 90.2665 96.6257 90.1378 96.8129C90.009 97.0001 89.9237 97.2136 89.888 97.438C89.8472 98.165 89.9845 98.8911 90.288 99.553C91.1403 101.303 92.2947 102.889 93.698 104.238C93.9274 104.33 94.1774 104.357 94.4213 104.318C94.6653 104.279 94.8939 104.174 95.083 104.015C95.2543 103.327 95.1726 102.601 94.853 101.969C94.816 101.869 93.492 98.425 93.453 98.324C93.1557 97.5044 92.7219 96.7409 92.17 96.066L92.159 96.059L92.181 96.075L92.168 96.068L92.186 96.08L92.172 96.073L92.188 96.083L92.172 96.075C91.9098 96.0128 91.6376 96.0057 91.3725 96.0541C91.1075 96.1024 90.8553 96.2052 90.632 96.356Z" fill="#212121"/>
<path fill-rule="evenodd" clip-rule="evenodd" d="M102.346 100.4C102.51 99.9309 102.529 99.4235 102.401 98.9434C102.272 98.4634 102.003 98.033 101.627 97.708C100.644 96.808 99.098 97.164 97.971 97.659C96.0511 98.6741 94.3613 100.074 93.007 101.772C92.479 102.6 92.966 104.561 94.158 104.733C95.513 104.933 96.553 104.291 97.726 103.617C99.167 102.788 101.356 101.743 102.346 100.4Z" fill="white"/>
<path fill-rule="evenodd" clip-rule="evenodd" d="M99.878 96.3C100.372 96.2836 100.862 96.3895 101.305 96.6083C101.748 96.8271 102.131 97.1519 102.418 97.554C102.753 98.0005 102.955 98.5332 102.999 99.09C103.043 99.6467 102.927 100.204 102.666 100.698C102.014 101.616 101.199 102.405 100.261 103.028C99.0576 103.896 97.8015 104.688 96.5 105.4C95.8571 105.689 95.1578 105.831 94.453 105.816C93.9577 105.822 93.4715 105.682 93.0552 105.414C92.6389 105.146 92.3108 104.761 92.112 104.307C91.8782 103.86 91.7453 103.368 91.7229 102.864C91.7004 102.361 91.7889 101.859 91.982 101.393C92.597 100.168 94.733 98.474 95.955 97.659C97.0917 96.8132 98.4617 96.3387 99.878 96.3ZM100.278 97.992C99.1027 98.1348 97.994 98.6152 97.086 99.375C95.8936 100.212 94.8257 101.214 93.914 102.35C93.794 102.556 93.934 103.515 94.299 103.683C95.0267 103.756 95.7589 103.599 96.393 103.235C99.306 101.835 100.966 101.219 101.981 100.157L101.987 100.146C102.021 99.8941 102.002 99.6379 101.93 99.394C101.855 99.008 101.651 98.6591 101.351 98.404C101.052 98.149 100.675 98.0031 100.282 97.99L100.278 97.992Z" fill="#212121"/>
<path fill-rule="evenodd" clip-rule="evenodd" d="M128.1 149.8C128.1 149.8 129.34 140.219 119.1 134.532C116.682 133.189 142.329 119.475 171.289 118.461C210.444 117.089 220.911 154.089 220.689 163.529C220.589 171.229 218.698 178.799 215.163 185.641C211.629 192.482 206.55 198.406 200.328 202.943L195.507 199.786L125.161 209.826C125.161 209.826 119.298 192.184 114.39 189.133C113.064 188.308 119.702 178.256 119.702 178.256C123.992 154.434 128.1 149.8 128.1 149.8Z" fill="white"/>
<path fill-rule="evenodd" clip-rule="evenodd" d="M127.171 150.392C127.781 149.416 127.665 149.784 127.693 149.352C127.735 147.224 127.33 145.111 126.503 143.15C125.676 141.189 124.446 139.424 122.893 137.969C120.247 135.469 118.721 135.246 118.436 134.629C116.964 131.384 142.036 120.205 165.485 117.929C173.551 117.164 180.574 117.229 188.432 119.593C206.064 124.958 217.591 140.98 221.061 157.505C221.656 160.059 221.867 162.688 221.686 165.305C221.273 173.869 218.701 182.189 214.208 189.491C210.054 196.191 204.508 201.542 200.974 203.807C200.797 203.94 200.583 204.014 200.361 204.021C200.14 204.028 199.922 203.966 199.737 203.845L195.254 200.907C195.361 200.907 125.47 210.866 124.827 210.662C124.299 210.401 124.414 210.337 123.66 208.216C122.235 204.09 117.706 192.253 114.089 189.83C113.858 189.708 113.677 189.51 113.576 189.27C113.23 188.361 113.96 186.77 114.435 185.827C115.827 183.134 117.376 180.526 119.074 178.015C119.19 178.008 122.4 158.436 127.171 150.392ZM161.716 120.13C151.197 121.446 140.891 124.106 131.049 128.045C128.522 129.081 121.461 132.119 119.62 134.168C124.714 137.181 127.462 141.291 128.326 145.935C128.579 147.222 128.646 148.539 128.526 149.846C127.613 151.255 126.867 152.765 126.302 154.346C122.502 164.001 120.553 178.096 120.247 178.61C118.936 180.578 115.556 186.07 114.96 188.534C114.939 188.748 114.941 188.406 116.215 189.699C119.926 193.675 123.985 203.725 125.754 208.829C126.608 208.707 193.954 198.752 195.81 198.752C195.909 198.781 196.002 198.824 196.088 198.881C200.629 201.85 200.252 201.681 200.352 201.608C202.477 200.037 204.452 198.272 206.252 196.336C212.963 189.245 217.387 180.302 218.952 170.665C219.952 163.889 219.98 160.347 217.695 153.071C216.84 150.378 215.783 147.753 214.531 145.22C203.218 123.118 185.575 117.246 161.716 120.13Z" fill="#212121"/>
<path fill-rule="evenodd" clip-rule="evenodd" d="M195.748 199.577C195.748 199.577 159.811 177.068 159.534 177.123C117.48 185.545 103.49 194.69 101.414 195.003C98.008 195.519 94.314 195.519 90.729 196.063C88.998 196.326 79.755 196.721 79.829 198.809C80.042 204.633 90.506 199.562 91.586 204.444C91.9027 205.44 92.5116 206.317 93.3336 206.963C94.1555 207.608 95.1525 207.991 96.195 208.062C100.941 208.281 103.453 206.056 104.715 205.409C105.204 205.162 113.955 207.757 123.457 209.691C181.8 221.567 195.4 199.463 195.748 199.577Z" fill="white"/>
<path fill-rule="evenodd" clip-rule="evenodd" d="M195.973 199.941C195.896 200.053 194.951 201.132 194.415 201.664C192.215 203.817 189.721 205.649 187.008 207.104C155.126 223.604 106.36 205.604 104.815 206.586C102.492 208.247 99.7097 209.144 96.854 209.154C95.8353 209.2 94.8209 208.994 93.901 208.554C93.1492 208.224 92.4724 207.745 91.9118 207.145C91.3511 206.546 90.9184 205.838 90.64 205.066C90.5851 204.678 90.4376 204.31 90.21 203.991C88.394 202.026 81.893 204.412 79.481 201.16C79.0143 200.479 78.7618 199.674 78.756 198.849C78.723 197.16 80.712 196.502 82.329 196.097C84.9659 195.572 87.6342 195.219 90.317 195.041C94.456 194.459 95.931 194.541 99.525 194.175C101.3 193.991 101.025 193.967 101.266 193.957C106.575 191.875 118.266 184.911 154.555 177.257C160.122 176.135 159.532 176.223 159.964 176.398C169.171 181.998 189.164 194.863 195.982 199.208C195.816 199.473 195.557 199.888 195.982 199.214L196.043 199.258C196.09 199.304 196.127 199.36 196.149 199.422C196.172 199.484 196.18 199.551 196.173 199.616C196.166 199.682 196.145 199.745 196.11 199.802C196.076 199.858 196.029 199.905 195.973 199.941ZM104.973 204.331C108.725 204.595 160.433 221.647 188.173 205.204C190.746 203.73 193.071 201.861 195.062 199.664C194.527 199.338 162.847 179.945 159.421 178C146.483 180.747 131.956 184.3 119.445 188.765C113.877 190.721 108.418 192.974 103.091 195.514C101.817 196.086 101.715 196.09 98.743 196.388C94.384 196.741 93.991 196.729 91.71 197.007C88.874 197.407 84.08 197.607 81.578 198.569C81.3457 198.654 81.1255 198.77 80.923 198.912C80.9237 199.165 80.9825 199.414 81.0948 199.64C81.2072 199.867 81.3701 200.065 81.571 200.218C83.164 201.399 87.811 200.374 90.595 201.636C92.516 202.617 92.51 203.975 92.815 204.715C93.1322 205.309 93.583 205.821 94.1319 206.211C94.6808 206.601 95.3128 206.858 95.978 206.962C98.4045 207.176 100.833 206.578 102.883 205.262C104.111 204.53 104.322 204.287 104.97 204.331H104.973ZM195.759 200.006H195.765H195.775H195.759Z" fill="#212121"/>
<path fill-rule="evenodd" clip-rule="evenodd" d="M180.785 146.584L180.725 147.191C176.325 151.651 170.681 159.454 167.46 164.197C166.669 165.36 160.274 174.905 160.182 176.492V176.482L160.177 176.511V176.521V176.535V176.548V176.558V176.594L159.823 177.094C159.183 176.646 159.353 176.786 159.298 176.64C159.125 172.483 170.022 153.708 180.179 146.528L180.785 146.584Z" fill="#212121"/>
<path fill-rule="evenodd" clip-rule="evenodd" d="M235.177 167.462C186.859 172.279 85.892 170.668 37.95 157.4L32.665 268.464C53.574 286.44 194.083 294.537 230.565 283.948C230.972 283.826 236.29 167.353 235.177 167.462Z" fill="white" fill-opacity="0.38"/>
<path fill-rule="evenodd" clip-rule="evenodd" d="M235.34 166.963C235.798 167.163 235.79 167.507 235.84 168.737C236.147 182.883 232.671 267.902 231.74 282.694C231.627 284.055 231.734 284.494 230.966 284.932C209.4 291.127 161.5 290.281 139.126 289C115.734 288.038 56.615 283.078 35.945 272.181C34.4026 271.417 32.967 270.453 31.675 269.316C31.4556 269.063 31.3424 268.735 31.359 268.4C37.056 149.427 36.6 157.165 37 156.6C37.1757 156.393 37.414 156.248 37.679 156.188C39.46 155.938 60.139 164.255 128.613 167.859C201.638 171.4 233.93 166.672 235.34 166.963ZM34.233 268.044C48.484 279.044 106.855 284.286 124.872 285.567C149.835 287.343 205.344 289.619 229.595 283.115C229.595 283.015 235.304 181.138 234.757 168.037C234.176 168.081 228.324 168.714 219.651 169.289C172.34 172.409 84.429 171.16 39.119 159C34.054 269.322 33.788 267.717 34.233 268.044Z" fill="#212121"/>
<path fill-rule="evenodd" clip-rule="evenodd" d="M119.694 192.482C108.594 192.359 88.95 191.417 72.215 187.617L67.867 245.607C76.694 250.061 100.994 253.207 116.1 250.737C116.1 250.737 119.951 192.483 119.694 192.482Z" fill="white" fill-opacity="0.38"/>
<path fill-rule="evenodd" clip-rule="evenodd" d="M83.241 188.654C92.3238 190.098 101.475 191.073 110.658 191.577C119.925 192.091 119.628 191.825 119.995 192.056C120.157 192.188 120.03 192.089 120.127 192.191C120.62 193.025 117.462 248.431 117.36 250.162C117.31 250.988 117.342 251.524 116.494 251.893C109.694 253.593 89.503 253.336 74.619 249.387C72.0204 248.749 69.4977 247.835 67.094 246.66C66.8627 246.491 66.6941 246.25 66.615 245.975C66.492 245.636 69.382 208.369 70.979 188.701C71.098 187.282 71.06 187.359 71.27 186.985C72.139 185.911 71.935 186.768 83.241 188.654ZM72.7 197.238C69.5 242.153 69.163 244.779 69.272 244.827C78.226 248.86 100.882 251.696 114.95 249.668C116.45 228.984 119.011 196.823 119.169 193.01C117.993 193.059 111.507 192.917 110.26 192.881C98.507 192.543 84.779 191.398 73.36 189.014C73.226 188.987 73.33 188.084 72.7 197.238Z" fill="#212121"/>
<path fill-rule="evenodd" clip-rule="evenodd" d="M199.59 195.926C184.127 198.007 165.421 197.033 148.581 193.734L145.967 251.827C154.923 256.016 182.713 257.181 197.738 254.262C197.738 254.262 199.845 195.893 199.59 195.926Z" fill="white" fill-opacity="0.38"/>
<path fill-rule="evenodd" clip-rule="evenodd" d="M164.451 195.1C173.173 196.127 181.962 196.468 190.738 196.12C199.352 195.735 199.626 195.053 200.038 195.664C200.35 196.258 199.631 227.164 199.616 227.847C198.974 256.335 199.033 254.523 198.656 255.052C198.476 255.258 198.233 255.399 197.965 255.452C198.065 255.452 195.057 256.021 192.533 256.307C180.633 257.755 162.59 257.433 150.962 254.801C148.979 254.404 147.052 253.766 145.224 252.901C145.076 252.8 144.951 252.669 144.856 252.516C144.761 252.364 144.699 252.194 144.674 252.016C144.615 251.732 147.317 194.467 147.451 193.482C147.51 193.222 147.656 192.989 147.866 192.824C149.032 192.079 148.743 193.222 164.451 195.1ZM147.342 251C157.774 255.129 184.074 255.407 196.571 253.244C197.271 236.244 198.936 202.835 199.081 196.538C183.117 198.782 165.666 197.908 149.681 195.106C148.327 229.986 147.235 250.953 147.342 251Z" fill="#212121"/>
<path fill-rule="evenodd" clip-rule="evenodd" d="M66.534 256.468C76.356 261.305 97.94 263.506 110.043 262.668C114.859 262.337 113.578 262.121 114.491 262.351L114.7 262.681V262.688C114.559 263.252 114.826 263.252 111.88 263.673C95.696 265.973 74.202 262.993 65.58 258.92C65.41 258.928 65.159 258.584 64.702 258.053L64.771 257.053V257.046L65.529 256.394L66.534 256.468Z" fill="#212121"/>
<path fill-rule="evenodd" clip-rule="evenodd" d="M146.523 263.637C156.968 267.952 184.208 268.598 197.005 265.949L197.397 266.021L197.628 266.336V266.343C197.521 266.934 197.713 266.888 195.422 267.392C178.978 271 154.5 269.6 145.86 266.2C145.421 266.028 145.638 266.192 144.805 265.345V264.345V264.338L145.518 263.638L146.523 263.637Z" fill="#212121"/>
<path fill-rule="evenodd" clip-rule="evenodd" d="M54.422 208.171L54.683 208.446V208.453L54.651 208.828L54.363 209.122C54.224 209.128 51.539 210.542 51.439 210.594C48.4783 212.087 45.7275 213.964 43.258 216.177C44.275 217.471 52.389 225.677 52.49 225.761L52.475 225.752H52.48L52.492 225.761L52.475 225.752L52.482 225.758L52.466 225.749H52.472L52.447 225.737H52.453L52.415 225.722L52.353 225.705L52.659 225.905L52.767 226.292V226.298C52.7566 226.353 52.7384 226.406 52.713 226.455C52.694 226.492 52.6694 226.526 52.64 226.555L52.593 226.6C52.5475 226.636 52.4974 226.666 52.444 226.689L52.359 226.715C52.3079 226.724 52.2559 226.728 52.204 226.725C52.0464 226.702 51.8976 226.638 51.772 226.54C49.4048 225.053 47.1439 223.404 45.006 221.603C43.5178 220.342 42.156 218.938 40.94 217.413C39.574 215.432 40.9 214.78 42.068 213.742C45.268 211.152 47.89 209.482 54.01 208.103L54.422 208.171ZM52.064 225.743C51.887 225.849 51.947 225.793 51.796 225.981C51.716 226.219 51.696 226.2 51.975 225.802C52.369 225.702 52.375 225.721 52.236 225.702L52.064 225.743Z" fill="#212121"/>
<path fill-rule="evenodd" clip-rule="evenodd" d="M216.051 216.715C221.476 218.927 224.439 221.062 227.94 225.504C228.086 225.698 228.184 225.924 228.225 226.164C228.267 226.403 228.25 226.649 228.178 226.881C227.215 229.881 215.501 235.381 214.778 235.381C214.637 235.368 214.507 235.301 214.414 235.194C214.371 235.146 214.339 235.089 214.32 235.027C214.303 234.974 214.293 234.919 214.292 234.864V234.857L214.462 234.494L214.797 234.343L214.732 234.35L214.693 234.359H214.699L214.673 234.367H214.68L214.662 234.373H214.67L214.651 234.379L214.664 234.372H214.67L214.654 234.379C215.154 234.101 219.648 230.645 222.036 228.969C222.955 228.297 224.358 227.325 225.336 226.436C224.659 225.58 223.858 224.664 223.523 224.317C221.08 221.848 218.408 219.619 215.541 217.659L215.304 217.321L215.335 216.945V216.939L215.635 216.711L216.051 216.715ZM215.156 234.485C215.387 234.97 215.337 234.896 215.303 234.685C215.191 234.485 215.244 234.547 215.078 234.407C214.885 234.331 214.941 234.344 214.825 234.337L215.156 234.485Z" fill="#212121"/>
<path fill-rule="evenodd" clip-rule="evenodd" d="M188.266 76.651C180.137 68.639 161.602 61.263 150.888 73.828C150.888 73.828 145.424 83.208 149.403 104.055C149.848 106.402 150.724 108.647 151.986 110.676C154.304 113.853 159.918 114.69 163.664 114.534C165.108 114.474 166.525 114.173 167.919 114.115C168.139 114.106 169.013 113.807 169.201 113.981C170.162 114.862 170.824 120.724 171.101 120.981C172.171 121.968 173.474 122.666 174.889 123.008C176.303 123.351 177.781 123.327 179.184 122.939C181.139 122.528 184.775 121.316 185.52 119.652C185.854 118.91 184.654 111.652 184.955 111.309C190.16 105.391 188.662 99.979 189.52 99.048C189.627 98.93 191.82 98.623 192.39 98.365C194.6 97.373 196.126 93.633 195.562 91.312C195.42 90.6229 195.094 89.9852 194.619 89.4666C194.143 88.948 193.536 88.568 192.862 88.367C191.921 88.097 188.983 89.977 188.983 89.977L188.266 76.651Z" fill="white"/>
<path fill-rule="evenodd" clip-rule="evenodd" d="M192.764 87.661C193.854 87.8532 194.825 88.4681 195.464 89.372C197.037 91.516 196.509 94.421 195.246 96.664C193.563 99.385 192.246 99.297 190.164 99.772C190.049 101.561 189.807 103.339 189.437 105.093C188.775 107.542 187.572 109.812 185.915 111.733C185.874 112.266 186.54 117.024 186.609 118.654C186.689 119.133 186.639 119.624 186.465 120.077C186.291 120.53 185.999 120.929 185.619 121.231C184.811 121.915 183.9 122.467 182.919 122.866C178.379 124.731 174.364 125.007 170.667 122.029C170.05 121.493 170.016 121.453 169.676 119.62C168.653 114.205 168.625 115.47 168.609 115.075C167.945 115.198 167.273 115.277 166.598 115.313C165.094 115.555 163.572 115.658 162.049 115.619C159.449 115.581 156.883 115.025 154.502 113.981C153.451 113.519 152.503 112.852 151.713 112.019C150.923 111.186 150.307 110.204 149.902 109.13C148.464 105.884 148.102 103.1 147.588 99.521C146.81 94.1296 146.72 88.6612 147.319 83.247C147.666 80.0113 148.502 76.8468 149.796 73.861C149.968 73.4436 150.228 73.0683 150.559 72.761C151.587 71.633 152.739 70.6241 153.992 69.753C164.169 62.596 180.286 67.753 188.567 76.341C188.726 76.525 188.697 76.635 188.718 76.969C189.588 89.9 189.399 88.978 189.724 88.794C190.636 88.1868 191.677 87.799 192.764 87.661ZM159.811 68.818C156.894 69.7792 154.277 71.4823 152.216 73.76C151.616 74.431 151.687 74.334 151.549 74.634C149.912 77.988 149.086 83.922 149.005 88.002C148.799 93.18 149.716 105.179 152.591 109.657C153.053 110.401 153.682 111.027 154.428 111.485C156.745 112.985 160.336 113.515 163.111 113.471C164.331 113.419 165.547 113.304 166.754 113.124C167.182 113.102 167.609 113.059 168.033 112.994C169.11 112.746 169.663 112.726 170.291 113.627C171.176 115.166 171.534 118.135 172.014 120.36C173.097 121.332 174.458 121.939 175.905 122.096C179.135 122.471 183.673 120.537 184.462 119.42C184.562 119.281 184.541 119.313 184.549 119.139C184.438 116.47 184.007 114.099 183.911 111.805C183.933 110.718 184.054 110.921 184.811 109.937C185.765 108.761 186.543 107.453 187.12 106.053C187.855 104.02 188.276 101.887 188.368 99.727C188.615 98.293 189.093 98.211 189.843 98.059C191.992 97.649 192.05 97.731 192.861 97.066C193.531 96.4075 194.059 95.6188 194.413 94.7484C194.767 93.8779 194.938 92.9443 194.917 92.005C194.863 91.1475 194.495 90.3397 193.885 89.735C193.779 89.6341 193.665 89.5415 193.545 89.458C193.275 89.2711 192.979 89.1261 192.666 89.028C191.605 89.2773 190.594 89.7055 189.676 90.294C189.2 90.575 189.239 90.574 189.009 90.601C188.865 90.6058 188.724 90.5601 188.611 90.4719C188.497 90.3837 188.418 90.2585 188.387 90.118C188.37 89.955 188.434 91.444 187.85 77.018C187.842 76.818 187.868 76.874 187.768 76.779C180.723 70.306 168.993 65.808 159.811 68.818ZM189.866 99.848L189.888 99.84L189.866 99.848ZM189.875 99.848H189.885H189.875ZM192.69 89.035H192.677H192.69ZM192.69 89.035H192.671H192.69ZM192.667 89.035H192.684H192.667Z" fill="#212121"/>
<path fill-rule="evenodd" clip-rule="evenodd" d="M149.764 78.314C150.032 77.721 148.389 78.443 147.814 78.132C146.651 77.499 145.428 76.622 144.731 73.54C144.143 70.949 146.573 68.382 146.484 68.303C143.244 65.326 143.063 60.983 146.373 57.388C148.209 55.396 150.573 56.178 152.648 56.088C152.963 56.075 153.524 54.002 153.81 53.626C155.033 51.985 156.842 50.8797 158.86 50.541C159.676 50.4293 160.506 50.4987 161.292 50.7441C162.078 50.9895 162.801 51.405 163.408 51.961C164.084 52.477 165.537 53.366 165.537 53.366C166.329 52.4644 167.222 51.6558 168.197 50.956C170.107 50.0098 172.227 49.5655 174.357 49.665C177.857 49.691 180.581 53.773 181.316 53.742C181.516 53.734 187.047 50.426 191.991 53.066C194.737 54.535 197.28 56.347 198.206 59.566C198.773 61.906 198.849 64.3382 198.429 66.709C198.429 66.709 206.154 67.08 206.068 76.045C206.027 80.345 201.968 82.617 201.968 82.653C202.027 84.075 204.175 85.218 202.978 87.553C201.431 90.574 198.878 89.444 198.378 90.274C198.169 90.616 199.849 93.794 195.74 94.874C195.506 94.935 197.04 88.942 192.712 87.58C189.152 86.462 184.876 84.219 183.82 80.652C183.402 79.231 183.864 76.052 182.22 75.317C181.59 75.034 180.665 76.646 180.096 76.785C174.99 78.028 173.196 77.262 168.732 74.73C167.82 74.212 167.112 72.747 166.111 72.541C164.291 72.166 162.118 75.991 160.171 76.352C158.521 76.658 154.956 74.774 154.365 75.1C153.43 75.618 153.359 77.3 152.408 77.826C151.56 78.295 149.134 77.485 149.174 77.501" fill="#212121"/>
<path fill-rule="evenodd" clip-rule="evenodd" d="M187.873 51.411C189.817 51.4272 191.715 52.0085 193.335 53.084C194.666 53.8266 195.869 54.7773 196.9 55.9C199.318 58.563 199.653 62.6 199.175 66.149C200.473 66.3475 201.71 66.835 202.795 67.5754C203.88 68.3158 204.784 69.2903 205.442 70.427C206.333 72.1267 206.772 74.0267 206.718 75.945C206.669 77.3535 206.275 78.7286 205.572 79.9502C204.87 81.1719 203.879 82.2031 202.686 82.954C203.079 84.181 205.232 85.67 202.944 88.804C202.337 89.5821 201.48 90.1256 200.517 90.342C199.617 90.548 199.205 90.511 199.029 90.591C199.291 91.5211 199.229 92.5126 198.854 93.403C198.564 93.9276 198.162 94.3823 197.677 94.7351C197.192 95.0878 196.636 95.3302 196.047 95.445C195.92 95.5066 195.777 95.5275 195.638 95.5047C195.499 95.482 195.371 95.4168 195.27 95.318C194.943 94.932 195.11 94.707 195.161 93.572C195.281 91.814 194.989 89.591 193.499 88.639C192.648 88.034 186.627 86.726 184.04 82.533C183.684 81.9608 183.414 81.3391 183.24 80.688C182.93 79.572 183.155 76.907 182.32 76.046C182.24 75.9597 182.145 75.8874 182.041 75.832C181.81 75.842 181.075 76.84 180.462 77.197C179.8 77.3979 179.124 77.5477 178.44 77.645C174.931 78.188 173.404 77.724 170.279 76.11C168.034 74.867 168.244 75.041 167.279 73.981C166.879 73.531 166.362 72.921 165.812 72.934C164.26 72.958 162.12 76.522 160.036 76.734C158.347 76.872 155.315 75.361 154.536 75.379C154.467 75.379 154.378 75.463 154.324 75.506C153.593 76.28 153.512 77.399 152.696 77.979C151.965 78.479 150.865 78.188 149.996 78.01C150.025 78.0592 150.043 78.1142 150.048 78.1711C150.053 78.228 150.046 78.2854 150.026 78.339C150 78.439 150.026 78.41 149.648 78.557C149.518 78.225 149.732 78.338 148.548 78.473C148.36 78.514 148.165 78.516 147.976 78.4789C147.786 78.4417 147.607 78.3662 147.448 78.257C146.774 77.8785 146.184 77.3677 145.713 76.7555C145.242 76.1432 144.899 75.442 144.706 74.694C144.221 73.5497 144.169 72.268 144.559 71.088C144.9 70.1138 145.388 69.1973 146.006 68.37C145.179 67.5807 144.522 66.6305 144.076 65.578C143.433 63.971 143.383 62.1876 143.935 60.547C144.241 59.6401 144.688 58.787 145.259 58.019C145.935 56.9092 146.999 56.0896 148.245 55.719C149.63 55.507 151.035 55.465 152.43 55.594C152.744 55.007 152.996 53.994 153.34 53.387C154.018 52.4474 154.881 51.657 155.877 51.0649C156.872 50.4728 157.979 50.0916 159.128 49.945C161.781 49.663 163.169 51.199 165.428 52.615C166.076 51.8973 166.789 51.2406 167.557 50.653C170.183 49.1665 173.27 48.715 176.212 49.387C178.697 50.271 180.63 52.616 181.301 53.06C183.335 52.0109 185.584 51.4465 187.873 51.411ZM182.144 74.749C182.503 74.8464 182.833 75.0326 183.101 75.2905C183.37 75.5485 183.569 75.8698 183.681 76.225C184.24 77.477 184.035 79.708 184.481 80.825C185.617 83.671 188.638 85.39 191.481 86.502C193.012 87.083 193.731 87.13 194.691 87.996C196.305 89.464 196.557 91.786 196.406 93.973C196.737 93.8333 197.042 93.6371 197.306 93.393C197.566 93.1308 197.754 92.8058 197.851 92.4496C197.949 92.0934 197.952 91.7181 197.862 91.36C197.746 90.519 197.537 90.183 198.013 89.704C198.89 88.95 200.299 89.522 201.548 88.411C202.137 87.8745 202.535 87.1609 202.682 86.378C202.762 84.908 201.282 83.967 201.321 82.594C201.328 82.5018 201.356 82.4123 201.402 82.332C201.391 82.057 202.995 81.524 204.379 79.396C204.959 78.5108 205.309 77.4947 205.396 76.44C205.528 72.416 204.106 69.14 200.316 67.789C198.507 67.144 198.228 67.599 197.852 67.015C197.607 66.449 198.163 65.824 198.028 62.592C197.987 61.3904 197.759 60.2025 197.352 59.071C197.228 58.7553 197.085 58.4477 196.923 58.15C196.581 57.869 196.367 56.179 191.687 53.633C190.619 53.0669 189.438 52.7464 188.23 52.695C185.889 52.6958 183.583 53.2607 181.507 54.342C180.432 54.621 179.351 52.486 176.861 51.042C175.878 50.4392 174.726 50.1725 173.579 50.282C171.936 50.2882 170.312 50.6377 168.811 51.308C167.835 51.8732 166.965 52.6033 166.239 53.466C165.884 53.846 165.914 53.836 165.716 53.92C165.409 53.992 165.364 53.952 164.728 53.549C162.742 52.267 161.428 50.814 159.212 51.049C158.228 51.1709 157.279 51.4897 156.421 51.9864C155.563 52.4831 154.814 53.1475 154.219 53.94C153.926 54.387 153.534 56.127 152.946 56.501C152.304 56.856 149.512 56.026 147.716 56.918C146.339 57.8677 145.304 59.235 144.763 60.818C144.347 61.9616 144.272 63.2015 144.547 64.387C144.858 65.6631 145.519 66.8273 146.455 67.749C146.795 68.091 146.834 68.082 146.855 68.273C146.867 68.544 146.691 68.617 146.118 69.497C145.286 70.5999 144.896 71.9745 145.027 73.35C145.214 74.368 145.578 75.3452 146.103 76.237C146.568 76.9308 147.202 77.4945 147.946 77.875C148.402 77.9364 148.866 77.9143 149.314 77.81L149.097 77.743L149.14 77.751L149.161 77.687L149.041 77.72C149.008 77.7017 148.98 77.6764 148.958 77.646C148.936 77.6157 148.921 77.5809 148.914 77.5441C148.906 77.5073 148.907 77.4693 148.916 77.4329C148.925 77.3965 148.942 77.3624 148.965 77.333C149.128 77.166 149.159 77.233 149.803 77.4C150.588 77.6633 151.427 77.7255 152.242 77.581C153.16 77.097 153.312 74.781 154.552 74.74C155.508 74.74 157.657 75.804 159.366 75.999C159.744 76.0498 160.13 76.0084 160.489 75.8784C160.848 75.7483 161.17 75.5334 161.428 75.252C163.86 73.245 165.338 70.669 167.606 73.052C168.277 73.9436 169.181 74.6325 170.219 75.043C173.919 76.996 175.526 77.359 179.961 76.279C180.82 75.535 181.339 74.7 182.144 74.749ZM149.534 78.243L149.542 78.269V78.276L149.528 78.237L149.534 78.243ZM179.96 76.281H179.967H179.96Z" fill="#212121"/>
<path fill-rule="evenodd" clip-rule="evenodd" d="M160.541 107.411V107.422V107.399V107.409L160.534 107.386L160.541 107.395L160.53 107.373L160.537 107.382L160.526 107.36L160.533 107.369L160.522 107.348L160.529 107.357L160.519 107.336L160.525 107.345L160.511 107.325L160.522 107.334L160.508 107.315L160.518 107.323L160.504 107.306L160.511 107.314L160.497 107.298L160.507 107.305L160.494 107.291L160.504 107.298L160.49 107.284L160.5 107.291L160.487 107.279L160.497 107.285L160.483 107.273L160.496 107.279L160.48 107.269L160.493 107.275L160.479 107.266H160.493L160.479 107.258H160.493L160.479 107.251H160.493L160.479 107.245H160.492L160.482 107.238H160.499L160.489 107.233H160.508H160.495H160.518H160.508H160.531H160.521H160.548H160.541C160.955 107.177 161.354 107.046 161.721 106.847L161.74 106.836L161.721 106.843L161.746 106.823L161.724 106.833L161.736 106.819L161.704 106.836L161.72 106.823L161.685 106.845L161.697 106.832L161.672 106.849C161.818 106.686 161.94 106.503 162.034 106.306V106.288C162.242 105.865 162.368 105.407 162.408 104.938V104.925C162.488 104.436 162.421 103.934 162.217 103.483C162.012 103.031 161.678 102.65 161.258 102.388C160.758 102.088 160.273 102.139 160.441 102.109H160.424L160.45 102.102C159.986 102.177 159.542 102.345 159.143 102.594V102.586L159.124 102.605V102.597L159.105 102.615L159.111 102.605L159.092 102.623L159.099 102.612L159.092 102.62L159.083 102.629L159.089 102.617L159.076 102.632L159.082 102.62L159.07 102.634V102.62L159.064 102.634V102.619L159.058 102.633L159.064 102.618L159.055 102.632L159.061 102.616L159.055 102.63V102.613L159.049 102.627V102.609V102.623V102.605L159.043 102.619V102.6V102.614V102.6V102.614V102.594V102.608V102.588V102.602V102.581V102.596V102.575V102.589V102.568V102.582V102.561V102.575V102.555V102.569L159.036 102.548V102.563L159.028 102.543V102.557L159.021 102.538V102.551L159.01 102.533V102.547L159.003 102.529V102.539L158.993 102.521L159 102.536L158.861 103.136L158.261 102.996C158.195 102.91 158.149 102.811 158.125 102.706C158.101 102.6 158.099 102.491 158.121 102.385C158.282 101.856 158.605 101.391 159.044 101.055C159.459 100.673 159.979 100.425 160.537 100.344C161.094 100.263 161.664 100.352 162.17 100.599C165.24 101.931 165.242 106.622 162.835 108.099C162.406 108.317 161.934 108.435 161.453 108.443C160.972 108.451 160.496 108.349 160.06 108.145C159.932 108.081 159.825 107.98 159.754 107.856C159.683 107.731 159.65 107.588 159.66 107.445L160.095 107.021L160.518 107.461V107.474V107.452V107.463V107.429V107.441V107.417V107.428L160.541 107.411Z" fill="#212121"/>
<path fill-rule="evenodd" clip-rule="evenodd" d="M141.59 79.936C141.768 80.029 145.806 75.987 145.806 75.987C148.535 75.636 178.531 73.613 184.926 77.711C187.181 79.156 186.758 91.129 186.118 94.692C185.723 96.884 181.08 99.092 181.08 99.092C181.08 99.092 165.215 102.329 141.013 97.836C140.318 97.705 141.59 79.936 141.59 79.936Z" fill="white"/>
<path fill-rule="evenodd" clip-rule="evenodd" d="M184.653 76.382C185.128 76.5492 185.559 76.8238 185.91 77.1844C186.262 77.5449 186.526 77.9818 186.682 78.461C188.173 82.222 187.725 92.285 187.169 94.924C187.064 95.4337 186.848 95.9143 186.538 96.332C185.315 97.7867 183.797 98.9651 182.085 99.789C181.616 100.084 181.081 100.256 180.528 100.289C171.663 101.744 157.645 101.828 142.564 98.935C140.564 98.554 140.147 98.73 140.078 97.081C139.983 94.812 140.353 89.79 140.525 87.56C141.189 79.001 141.111 79.766 141.445 79.534C142.635 78.5134 143.754 77.4143 144.797 76.244C145.666 75.353 145.315 75.481 146.718 75.33C154.329 74.52 177.731 73.014 184.653 76.382ZM161.2 76.038C159.717 76.038 146.321 76.25 146.024 76.55C145.415 77.13 142.731 79.7 142.014 80.209C141.782 85.262 141.427 92.449 141.623 97.151C152.879 99.094 169.639 100.051 180.742 98.062C182.198 97.3809 183.517 96.4402 184.636 95.286C184.819 95.0862 184.958 94.8505 185.044 94.594C185.612 92.163 186.05 80.504 184.403 78.619L184.379 78.596C183.926 78.3055 183.435 78.078 182.921 77.92C177.693 76.155 166.877 76.038 161.2 76.038ZM141.676 97.488L141.669 97.468V97.475V97.481V97.465L141.676 97.488ZM141.665 97.464L141.673 97.48V97.465L141.665 97.464ZM141.465 79.525C141.558 79.4967 141.658 79.5006 141.748 79.536C141.658 79.5002 141.558 79.4963 141.465 79.525ZM141.436 79.536H141.442H141.436Z" fill="#212121"/>
<path fill-rule="evenodd" clip-rule="evenodd" d="M141.591 79.936C141.591 79.936 138.697 96.578 141.013 97.836C148.501 101.892 180.796 101.412 181.266 98.659C182.078 93.882 182.426 81.512 180.655 81.759C175.48 82.461 146.432 82.158 141.591 79.936Z" fill="white"/>
<path fill-rule="evenodd" clip-rule="evenodd" d="M141.167 79.863C141.179 79.7987 141.205 79.7378 141.243 79.685C141.282 79.6322 141.332 79.5889 141.39 79.5582C141.447 79.5275 141.511 79.5103 141.577 79.5078C141.642 79.5054 141.707 79.5177 141.767 79.544C146.254 81.351 167.496 81.166 172.375 81.084C175.186 81.1225 177.996 80.9936 180.791 80.698C182.05 80.792 182.401 82.171 182.639 83.321C183.173 88.3204 183.095 93.3663 182.408 98.347C182.414 98.6752 182.333 98.9991 182.176 99.2869C182.018 99.5746 181.788 99.8163 181.508 99.988C177.782 102.474 152.499 102.647 142.817 99.473C141.873 99.2111 140.986 98.7764 140.2 98.191C138.117 95.801 140.608 83.247 141.163 79.862C141.268 79.881 141.423 79.907 141.167 79.863ZM167.1 99.721C169.574 99.667 178.048 99.368 180.245 98.233C180.574 95.8123 180.77 93.3752 180.83 90.933C180.951 88.4208 180.84 85.9027 180.497 83.411C180.459 83.2194 180.41 83.0303 180.348 82.845C174.71 83.408 162.153 82.908 155.829 82.473C152.862 82.264 144.738 81.618 141.943 80.544C141.443 84.081 140.597 91.344 140.898 94.864C140.888 95.6354 141.054 96.3989 141.382 97.097V97.105L141.375 97.095L141.382 97.105H141.389L141.396 97.113C146.276 99.622 161.236 99.843 167.1 99.721ZM141.42 97.14L141.41 97.129H141.417L141.407 97.119H141.414L141.401 97.109H141.407L141.393 97.098H141.4L141.387 97.09L141.397 97.101L141.39 97.09L141.404 97.105L141.394 97.094L141.407 97.106L141.394 97.096L141.42 97.14ZM141.407 97.129L141.4 97.122L141.407 97.129ZM141.4 97.122H141.41L141.4 97.116V97.122Z" fill="#212121"/>
<path fill-rule="evenodd" clip-rule="evenodd" d="M182.089 85.512C183.33 86.13 204.428 73.406 205.545 72.562C206.969 71.488 207.079 78.124 205.737 79.808C203.709 82.35 182.72 93.894 182.123 92.435C182.049 92.253 182.089 85.512 182.089 85.512Z" fill="white"/>
<path fill-rule="evenodd" clip-rule="evenodd" d="M182.259 85.11H182.269L182.245 85.103H182.255L182.236 85.097H182.245H182.226H182.236L182.219 85.092H182.229H182.213H182.222H182.209C182.517 85.0149 182.816 84.9073 183.102 84.771C186.095 83.471 203.244 72.797 204.178 72.201C205.058 71.637 204.842 71.76 205.026 71.637C205.222 71.5113 205.444 71.4324 205.675 71.4065C205.906 71.3807 206.141 71.4085 206.359 71.4878C206.578 71.5671 206.776 71.6959 206.936 71.864C207.097 72.0321 207.217 72.235 207.287 72.457C208.058 74 207.88 78.511 206.772 80.211C204.872 83.074 186.452 92.903 182.654 93.252C182.368 93.2928 182.076 93.2375 181.825 93.095C181.29 92.734 181.412 92.395 181.501 89.542C181.507 89.389 181.639 85.889 181.665 85.507C181.665 85.4348 181.682 85.3636 181.717 85.3002C181.752 85.2368 181.802 85.1832 181.863 85.1445C181.924 85.1058 181.994 85.0832 182.066 85.079C182.138 85.0747 182.21 85.0888 182.275 85.12H182.285L182.259 85.11ZM182.802 92.332V92.312V92.324V92.302V92.312V92.284V92.332ZM189.129 83.063C187.009 84.1963 184.802 85.159 182.529 85.942C182.565 87.054 182.668 90.099 182.756 91.797C183.372 91.6099 183.973 91.3793 184.556 91.107C187.264 89.896 203.976 80.923 205.035 78.89C205.406 77.8983 205.598 76.8488 205.603 75.79C205.628 75.1452 205.59 74.4995 205.49 73.862C200.767 76.832 193.687 80.774 189.129 83.063Z" fill="#212121"/>
<path fill-rule="evenodd" clip-rule="evenodd" d="M175.98 86.266V86.274L175.865 86.644L175.515 86.844C170.869 87.4885 166.185 87.8166 161.495 87.826C158.411 87.859 149.139 87.705 146.279 86.691L145.55 86.005L145.515 85.005V84.998L146.198 84.27C147.698 84.216 146.736 84.181 148.169 84.503C151.917 85.275 159.634 85.685 163.446 85.843C174.921 86.302 174.607 85.566 175.782 85.928L175.98 86.266Z" fill="#212121"/>
<path fill-rule="evenodd" clip-rule="evenodd" d="M139.16 133.882C130.489 145.524 124.375 158.867 121.219 173.037C120.159 177.752 120.705 176.81 119.943 177.413L119.568 176.93C120.686 160.654 127.368 145.257 138.492 133.323L139.105 133.269L139.16 133.882Z" fill="#212121"/>
</svg>
